<svg width="16" height="16" viewBox="0 0 16 16" fill="none" xmlns="http://www.w3.org/2000/svg">
<path d="M10.6667 8.5H5.33334C5.06001 8.5 4.83334 8.27333 4.83334 8C4.83334 7.72667 5.06001 7.5 5.33334 7.5H10.6667C10.94 7.5 11.1667 7.72667 11.1667 8C11.1667 8.27333 10.94 8.5 10.6667 8.5Z" fill="#001A4D"/>
<mask id="path-2-inside-1_2315_10924" fill="white">
<path d="M8 11.1667C7.72667 11.1667 7.5 10.94 7.5 10.6667V5.33337C7.5 5.06004 7.72667 4.83337 8 4.83337C8.27333 4.83337 8.5 5.06004 8.5 5.33337V10.6667C8.5 10.94 8.27333 11.1667 8 11.1667Z"/>
</mask>
<path d="M8 11.1667C7.72667 11.1667 7.5 10.94 7.5 10.6667V5.33337C7.5 5.06004 7.72667 4.83337 8 4.83337C8.27333 4.83337 8.5 5.06004 8.5 5.33337V10.6667C8.5 10.94 8.27333 11.1667 8 11.1667Z" fill="#0C0507"/>
<path d="M8 10.1667C8.27895 10.1667 8.5 10.3878 8.5 10.6667H6.5C6.5 11.4923 7.17438 12.1667 8 12.1667V10.1667ZM8.5 10.6667V5.33337H6.5V10.6667H8.5ZM8.5 5.33337C8.5 5.61233 8.27895 5.83337 8 5.83337V3.83337C7.17438 3.83337 6.5 4.50776 6.5 5.33337H8.5ZM8 5.83337C7.72105 5.83337 7.5 5.61233 7.5 5.33337H9.5C9.5 4.50776 8.82562 3.83337 8 3.83337V5.83337ZM7.5 5.33337V10.6667H9.5V5.33337H7.5ZM7.5 10.6667C7.5 10.3878 7.72105 10.1667 8 10.1667V12.1667C8.82562 12.1667 9.5 11.4923 9.5 10.6667H7.5Z" fill="#001A4D" mask="url(#path-2-inside-1_2315_10924)"/>
<path d="M10 15.1667H6.00001C2.38001 15.1667 0.833344 13.62 0.833344 10V6.00004C0.833344 2.38004 2.38001 0.833374 6.00001 0.833374H10C13.62 0.833374 15.1667 2.38004 15.1667 6.00004V10C15.1667 13.62 13.62 15.1667 10 15.1667ZM6.00001 1.83337C2.92668 1.83337 1.83334 2.92671 1.83334 6.00004V10C1.83334 13.0734 2.92668 14.1667 6.00001 14.1667H10C13.0733 14.1667 14.1667 13.0734 14.1667 10V6.00004C14.1667 2.92671 13.0733 1.83337 10 1.83337H6.00001Z" fill="#0C0507"/>
</svg>
