<svg width="20" height="20" viewBox="0 0 20 20" fill="none" xmlns="http://www.w3.org/2000/svg">
<path d="M13.3334 10.625H6.66669C6.32502 10.625 6.04169 10.3417 6.04169 10C6.04169 9.65833 6.32502 9.375 6.66669 9.375H13.3334C13.675 9.375 13.9584 9.65833 13.9584 10C13.9584 10.3417 13.675 10.625 13.3334 10.625Z" fill="white"/>
<path d="M10 13.4583C9.96985 13.4583 9.93857 13.446 9.91293 13.4204C9.88728 13.3947 9.875 13.3634 9.875 13.3333V6.66663C9.875 6.63648 9.88728 6.6052 9.91293 6.57955C9.93857 6.55391 9.96985 6.54163 10 6.54163C10.0301 6.54163 10.0614 6.55391 10.0871 6.57955C10.1127 6.6052 10.125 6.63648 10.125 6.66663V13.3333C10.125 13.3634 10.1127 13.3947 10.0871 13.4204C10.0614 13.446 10.0301 13.4583 10 13.4583Z" fill="white" stroke="white"/>
<path d="M12.5 18.9583H7.50002C2.97502 18.9583 1.04169 17.025 1.04169 12.5V7.49996C1.04169 2.97496 2.97502 1.04163 7.50002 1.04163H12.5C17.025 1.04163 18.9584 2.97496 18.9584 7.49996V12.5C18.9584 17.025 17.025 18.9583 12.5 18.9583ZM7.50002 2.29163C3.65835 2.29163 2.29169 3.65829 2.29169 7.49996V12.5C2.29169 16.3416 3.65835 17.7083 7.50002 17.7083H12.5C16.3417 17.7083 17.7084 16.3416 17.7084 12.5V7.49996C17.7084 3.65829 16.3417 2.29163 12.5 2.29163H7.50002Z" fill="white"/>
</svg>
