<svg width="68" height="68" viewBox="0 0 68 68" fill="none" xmlns="http://www.w3.org/2000/svg">
<g filter="url(#filter0_d)">
<circle cx="34" cy="32" r="28" fill="url(#paint0_linear)"/>
</g>
<g clip-path="url(#clip0)">
<g filter="url(#filter1_d)">
<path d="M45.4998 29.5H36.9998C36.7237 29.5 36.4998 29.2761 36.4998 29V20.5C36.4998 19.1194 35.3805 18 33.9998 18C32.6192 18 31.4998 19.1194 31.4998 20.5V29C31.4998 29.2761 31.276 29.5 30.9998 29.5H22.4998C21.1192 29.5 19.9998 30.6194 19.9998 32C19.9998 33.3806 21.1192 34.5 22.4998 34.5H30.9998C31.276 34.5 31.4998 34.7239 31.4998 35V43.5C31.4998 44.8806 32.6192 46 33.9998 46C35.3805 46 36.4998 44.8806 36.4998 43.5V35C36.4998 34.7239 36.7237 34.5 36.9998 34.5H45.4998C46.8805 34.5 47.9998 33.3806 47.9998 32C47.9998 30.6194 46.8805 29.5 45.4998 29.5Z" fill="white"/>
</g>
</g>
<defs>
<filter id="filter0_d" x="0" y="0" width="68" height="68" filterUnits="userSpaceOnUse" color-interpolation-filters="sRGB">
<feFlood flood-opacity="0" result="BackgroundImageFix"/>
<feColorMatrix in="SourceAlpha" type="matrix" values="0 0 0 0 0 0 0 0 0 0 0 0 0 0 0 0 0 0 127 0" result="hardAlpha"/>
<feOffset dy="2"/>
<feGaussianBlur stdDeviation="3"/>
<feColorMatrix type="matrix" values="0 0 0 0 0.0627451 0 0 0 0 0.427451 0 0 0 0 0.713726 0 0 0 0.5 0"/>
<feBlend mode="normal" in2="BackgroundImageFix" result="effect1_dropShadow"/>
<feBlend mode="normal" in="SourceGraphic" in2="effect1_dropShadow" result="shape"/>
</filter>
<filter id="filter1_d" x="18.9998" y="17.5" width="30" height="30" filterUnits="userSpaceOnUse" color-interpolation-filters="sRGB">
<feFlood flood-opacity="0" result="BackgroundImageFix"/>
<feColorMatrix in="SourceAlpha" type="matrix" values="0 0 0 0 0 0 0 0 0 0 0 0 0 0 0 0 0 0 127 0" result="hardAlpha"/>
<feOffset dy="0.5"/>
<feGaussianBlur stdDeviation="0.5"/>
<feColorMatrix type="matrix" values="0 0 0 0 0 0 0 0 0 0 0 0 0 0 0 0 0 0 0.25 0"/>
<feBlend mode="normal" in2="BackgroundImageFix" result="effect1_dropShadow"/>
<feBlend mode="normal" in="SourceGraphic" in2="effect1_dropShadow" result="shape"/>
</filter>
<linearGradient id="paint0_linear" x1="19.3636" y1="6.54545" x2="51.1818" y2="60" gradientUnits="userSpaceOnUse">
<stop stop-color="#106DB6"/>
<stop offset="1" stop-color="#106DB6"/>
</linearGradient>
<clipPath id="clip0">
<rect width="28" height="28" fill="white" transform="translate(19.9998 18)"/>
</clipPath>
</defs>
</svg>
