<svg width="21" height="20" viewBox="0 0 21 20" fill="none" xmlns="http://www.w3.org/2000/svg">
<path d="M16.5823 0.292415C15.6855 0.40739 14.869 0.876911 14.2298 1.5212L4.72809 11.0978C4.3093 11.5199 3.98901 12.0502 3.89287 12.6392C3.59352 14.4735 5.1505 16.0449 6.97153 15.7476C7.55603 15.6522 8.08272 15.3305 8.5014 14.9085L17.1709 6.17068C17.338 6.00226 17.338 5.72926 17.1709 5.56084L16.5659 4.95112C16.3988 4.7827 16.128 4.7827 15.9609 4.95112L7.20502 13.776C7.02368 13.9584 6.78261 14.059 6.52562 14.059C5.99708 14.059 5.56713 13.6248 5.56713 13.0913C5.56713 12.8336 5.66701 12.591 5.84791 12.4082L15.5543 2.62526C15.9642 2.21218 16.5091 1.98478 17.0886 1.98478C18.2848 1.98478 19.2584 2.96598 19.2584 4.20152C19.2584 4.7717 19.0419 5.31157 18.6484 5.72174L8.53092 16.271C7.91851 16.9095 7.124 17.3741 6.24926 17.481C3.92957 17.7645 1.96666 15.8439 2.15719 13.4653C2.22943 12.5635 2.67013 11.7301 3.30488 11.0904L12.7153 1.60577C12.8824 1.43735 12.8824 1.16435 12.7153 0.995928L12.1103 0.386206C11.9432 0.217786 11.6724 0.217786 11.5053 0.386206L2.00356 9.96283C0.991006 10.9834 0.433264 12.3398 0.432983 13.8285C0.432743 15.2236 0.997825 16.5797 1.96895 17.5738C4.30131 19.9617 7.71619 19.6015 9.65054 17.5854L19.8788 6.92024C20.5824 6.1871 20.9697 5.22149 20.9697 4.17164C20.9697 1.8468 18.9471 -0.010829 16.5823 0.292415Z" fill="#106DB6"/>
</svg>
