<svg width="16" height="16" viewBox="0 0 16 16" fill="none" xmlns="http://www.w3.org/2000/svg">
<g id="vuesax/bold/attach-square">
<g id="attach-square">
<path id="Vector" d="M10.793 1.33325H5.20634C2.77967 1.33325 1.33301 2.77992 1.33301 5.20659V10.7866C1.33301 13.2199 2.77967 14.6666 5.20634 14.6666H10.7863C13.213 14.6666 14.6597 13.2199 14.6597 10.7933V5.20659C14.6663 2.77992 13.2197 1.33325 10.793 1.33325ZM10.913 9.56659L9.43301 11.0466C9.07301 11.4066 8.60634 11.5799 8.13967 11.5799C7.67301 11.5799 7.19968 11.3999 6.84634 11.0466C6.49967 10.6999 6.30634 10.2399 6.30634 9.75325C6.30634 9.26659 6.49967 8.79992 6.84634 8.45992L7.78634 7.51992C7.97967 7.32659 8.29967 7.32659 8.49301 7.51992C8.68634 7.71325 8.68634 8.03325 8.49301 8.22659L7.55301 9.16659C7.39301 9.32659 7.30634 9.53325 7.30634 9.75325C7.30634 9.97325 7.39301 10.1866 7.55301 10.3399C7.87967 10.6666 8.40634 10.6666 8.73301 10.3399L10.213 8.85992C11.0597 8.01325 11.0597 6.63992 10.213 5.79325C9.36634 4.94659 7.99301 4.94659 7.14634 5.79325L5.53301 7.40659C5.19301 7.74659 5.00634 8.19325 5.00634 8.66659C5.00634 9.13992 5.19301 9.59325 5.53301 9.92659C5.72634 10.1199 5.72634 10.4399 5.53301 10.6333C5.33967 10.8266 5.01967 10.8266 4.82634 10.6333C4.29301 10.1199 3.99967 9.41992 3.99967 8.67325C3.99967 7.92659 4.28634 7.22659 4.81301 6.69992L6.42634 5.08659C7.65968 3.85325 9.67301 3.85325 10.9063 5.08659C12.1463 6.31992 12.1463 8.33325 10.913 9.56659Z" fill="#286CF5"/>
</g>
</g>
</svg>
