<svg width="18" height="16" viewBox="0 0 18 16" fill="none" xmlns="http://www.w3.org/2000/svg">
  <path d="M13.167 0.916992H4.83366C2.33366 0.916992 0.666992 2.16699 0.666992 5.08366V10.917C0.666992 13.8337 2.33366 15.0837 4.83366 15.0837H13.167C15.667 15.0837 17.3337 13.8337 17.3337 10.917V5.08366C17.3337 2.16699 15.667 0.916992 13.167 0.916992ZM4.62533 11.3337C4.62533 11.6753 4.34199 11.9587 4.00033 11.9587C3.65866 11.9587 3.37533 11.6753 3.37533 11.3337V4.66699C3.37533 4.32533 3.65866 4.04199 4.00033 4.04199C4.34199 4.04199 4.62533 4.32533 4.62533 4.66699V11.3337ZM7.12533 11.3337C7.12533 11.6753 6.84199 11.9587 6.50033 11.9587C6.15866 11.9587 5.87533 11.6753 5.87533 11.3337V10.5003C5.87533 10.1587 6.15866 9.87533 6.50033 9.87533C6.84199 9.87533 7.12533 10.1587 7.12533 10.5003V11.3337ZM7.12533 8.00033C7.12533 8.34199 6.84199 8.62533 6.50033 8.62533C6.15866 8.62533 5.87533 8.34199 5.87533 8.00033V4.66699C5.87533 4.32533 6.15866 4.04199 6.50033 4.04199C6.84199 4.04199 7.12533 4.32533 7.12533 4.66699V8.00033ZM9.62533 11.3337C9.62533 11.6753 9.34199 11.9587 9.00033 11.9587C8.65866 11.9587 8.37533 11.6753 8.37533 11.3337V4.66699C8.37533 4.32533 8.65866 4.04199 9.00033 4.04199C9.34199 4.04199 9.62533 4.32533 9.62533 4.66699V11.3337ZM12.1253 11.3337C12.1253 11.6753 11.842 11.9587 11.5003 11.9587C11.1587 11.9587 10.8753 11.6753 10.8753 11.3337V8.00033C10.8753 7.65866 11.1587 7.37533 11.5003 7.37533C11.842 7.37533 12.1253 7.65866 12.1253 8.00033V11.3337ZM12.1253 5.50033C12.1253 5.84199 11.842 6.12533 11.5003 6.12533C11.1587 6.12533 10.8753 5.84199 10.8753 5.50033V4.66699C10.8753 4.32533 11.1587 4.04199 11.5003 4.04199C11.842 4.04199 12.1253 4.32533 12.1253 4.66699V5.50033ZM14.6253 11.3337C14.6253 11.6753 14.342 11.9587 14.0003 11.9587C13.6587 11.9587 13.3753 11.6753 13.3753 11.3337V4.66699C13.3753 4.32533 13.6587 4.04199 14.0003 4.04199C14.342 4.04199 14.6253 4.32533 14.6253 4.66699V11.3337Z" fill="#0041C4"/>
</svg>
