<svg width="15" height="15" viewBox="0 0 15 15" fill="none" xmlns="http://www.w3.org/2000/svg">
<path d="M12.803 2.19697C11.3857 0.779672 9.50442 0 7.5 0C5.49558 0 3.61427 0.779672 2.19697 2.19697C0.779672 3.61427 0 5.49558 0 7.5C0 9.50442 0.779672 11.3857 2.19697 12.803C3.61427 14.2203 5.49558 15 7.5 15C9.50442 15 11.3857 14.2203 12.803 12.803C14.2203 11.3857 15 9.50442 15 7.5C15 5.49558 14.2203 3.61427 12.803 2.19697ZM12.2001 12.2001C10.9438 13.4564 9.27399 14.1477 7.5 14.1477C5.72601 14.1477 4.05619 13.4564 2.79987 12.2001C0.208333 9.60859 0.208333 5.39141 2.79987 2.79987C4.05619 1.54356 5.72601 0.852273 7.5 0.852273C9.27399 0.852273 10.9438 1.54356 12.2001 2.79987C14.7917 5.39141 14.7917 9.60859 12.2001 12.2001Z" fill="#0160AE"/>
</svg>
