<svg width="10" height="10" viewBox="0 0 10 10" fill="none" xmlns="http://www.w3.org/2000/svg">
<path d="M8.61931 1.3504C7.72861 0.479238 6.5463 0 5.28662 0C4.02694 0 2.84463 0.479238 1.95393 1.3504C1.06323 2.22157 0.573242 3.37795 0.573242 4.61C0.573242 5.84205 1.06323 6.99843 1.95393 7.86959C2.84463 8.74076 4.02694 9.21999 5.28662 9.21999C6.5463 9.21999 7.72861 8.74076 8.61931 7.86959C9.51001 6.99843 9.99999 5.84205 9.99999 4.61C9.99999 3.37795 9.51001 2.22157 8.61931 1.3504ZM8.24041 7.49901C7.45088 8.27122 6.40148 8.69613 5.28662 8.69613C4.17175 8.69613 3.12235 8.27122 2.33282 7.49901C0.704169 5.90607 0.704169 3.31392 2.33282 1.72099C3.12235 0.948775 4.17175 0.523863 5.28662 0.523863C6.40148 0.523863 7.45088 0.948775 8.24041 1.72099C9.86907 3.31392 9.86907 5.90607 8.24041 7.49901Z" fill="#ED1C24"/>
</svg>
