<svg width="13" height="11" viewBox="0 0 13 11" fill="none" xmlns="http://www.w3.org/2000/svg">
<path d="M9.31467 4.72307C9.55291 4.72307 9.74605 4.54213 9.74605 4.31893C9.74605 4.09573 9.55291 3.91479 9.31467 3.91479C9.07643 3.91479 8.8833 4.09573 8.8833 4.31893C8.8833 4.54213 9.07643 4.72307 9.31467 4.72307Z" fill="#666666"/>
<path d="M10.3069 0.883714H9.74613V0.479577C9.74613 0.256372 9.55301 0.0754395 9.31476 0.0754395C9.07651 0.0754395 8.88339 0.256372 8.88339 0.479577V0.883714H6.92064V0.479577C6.92064 0.256372 6.72751 0.0754395 6.48926 0.0754395C6.25102 0.0754395 6.05789 0.256372 6.05789 0.479577V0.883714H4.11671V0.479577C4.11671 0.256372 3.92359 0.0754395 3.68534 0.0754395C3.44709 0.0754395 3.25397 0.256372 3.25397 0.479577V0.883714H2.71475C1.76331 0.883714 0.989258 1.6089 0.989258 2.50026V8.8048C0.989258 9.69617 1.76331 10.4214 2.71475 10.4214H6.01475C6.253 10.4214 6.44613 10.2404 6.44613 10.0172C6.44613 9.79401 6.253 9.61308 6.01475 9.61308H2.71475C2.23903 9.61308 1.852 9.25049 1.852 8.8048V2.50026C1.852 2.05458 2.23903 1.69199 2.71475 1.69199H3.25397V2.09613C3.25397 2.31933 3.44709 2.50026 3.68534 2.50026C3.92359 2.50026 4.11671 2.31933 4.11671 2.09613V1.69199H6.05789V2.09613C6.05789 2.31933 6.25102 2.50026 6.48926 2.50026C6.72751 2.50026 6.92064 2.31933 6.92064 2.09613V1.69199H8.88339V2.09613C8.88339 2.31933 9.07651 2.50026 9.31476 2.50026C9.55301 2.50026 9.74613 2.31933 9.74613 2.09613V1.69199H10.3069C10.7826 1.69199 11.1697 2.05458 11.1697 2.50026V4.80384C11.1697 5.02705 11.3628 5.20798 11.601 5.20798C11.8393 5.20798 12.0324 5.02705 12.0324 4.80384V2.50026C12.0324 1.6089 11.2584 0.883714 10.3069 0.883714Z" fill="#666666"/>
<path d="M9.42255 5.53125C7.98349 5.53125 6.81274 6.62808 6.81274 7.97628C6.81274 9.32448 7.98349 10.4213 9.42255 10.4213C10.8616 10.4213 12.0324 9.32448 12.0324 7.97628C12.0324 6.62808 10.8616 5.53125 9.42255 5.53125ZM9.42255 9.61304C8.45923 9.61304 7.67549 8.8788 7.67549 7.97628C7.67549 7.07376 8.45923 6.33952 9.42255 6.33952C10.3859 6.33952 11.1696 7.07376 11.1696 7.97628C11.1696 8.8788 10.3859 9.61304 9.42255 9.61304Z" fill="#666666"/>
<path d="M10.0481 7.57213H9.85396V7.14779C9.85396 6.92458 9.66083 6.74365 9.42258 6.74365C9.18434 6.74365 8.99121 6.92458 8.99121 7.14779V7.97627C8.99121 8.19948 9.18434 8.38041 9.42258 8.38041H10.0481C10.2863 8.38041 10.4794 8.19948 10.4794 7.97627C10.4794 7.75307 10.2863 7.57213 10.0481 7.57213Z" fill="#666666"/>
<path d="M7.43821 4.72307C7.67645 4.72307 7.86958 4.54213 7.86958 4.31893C7.86958 4.09573 7.67645 3.91479 7.43821 3.91479C7.19997 3.91479 7.00684 4.09573 7.00684 4.31893C7.00684 4.54213 7.19997 4.72307 7.43821 4.72307Z" fill="#666666"/>
<path d="M5.56174 6.481C5.79998 6.481 5.99312 6.30007 5.99312 6.07687C5.99312 5.85367 5.79998 5.67273 5.56174 5.67273C5.3235 5.67273 5.13037 5.85367 5.13037 6.07687C5.13037 6.30007 5.3235 6.481 5.56174 6.481Z" fill="#666666"/>
<path d="M3.68528 4.72307C3.92352 4.72307 4.11665 4.54213 4.11665 4.31893C4.11665 4.09573 3.92352 3.91479 3.68528 3.91479C3.44704 3.91479 3.25391 4.09573 3.25391 4.31893C3.25391 4.54213 3.44704 4.72307 3.68528 4.72307Z" fill="#666666"/>
<path d="M3.68528 6.481C3.92352 6.481 4.11665 6.30007 4.11665 6.07687C4.11665 5.85367 3.92352 5.67273 3.68528 5.67273C3.44704 5.67273 3.25391 5.85367 3.25391 6.07687C3.25391 6.30007 3.44704 6.481 3.68528 6.481Z" fill="#666666"/>
<path d="M3.68528 8.23906C3.92352 8.23906 4.11665 8.05812 4.11665 7.83492C4.11665 7.61172 3.92352 7.43079 3.68528 7.43079C3.44704 7.43079 3.25391 7.61172 3.25391 7.83492C3.25391 8.05812 3.44704 8.23906 3.68528 8.23906Z" fill="#666666"/>
<path d="M5.56174 8.23906C5.79998 8.23906 5.99312 8.05812 5.99312 7.83492C5.99312 7.61172 5.79998 7.43079 5.56174 7.43079C5.3235 7.43079 5.13037 7.61172 5.13037 7.83492C5.13037 8.05812 5.3235 8.23906 5.56174 8.23906Z" fill="#666666"/>
<path d="M5.56174 4.72307C5.79998 4.72307 5.99312 4.54213 5.99312 4.31893C5.99312 4.09573 5.79998 3.91479 5.56174 3.91479C5.3235 3.91479 5.13037 4.09573 5.13037 4.31893C5.13037 4.54213 5.3235 4.72307 5.56174 4.72307Z" fill="#666666"/>
</svg>
