<svg width="17" height="16" viewBox="0 0 17 16" fill="none" xmlns="http://www.w3.org/2000/svg">
<g id="vuesax/outline/calendar-tick">
<g id="calendar-tick">
<path id="Vector" d="M5.83333 3.83398C5.55999 3.83398 5.33333 3.60732 5.33333 3.33398V1.33398C5.33333 1.06065 5.55999 0.833984 5.83333 0.833984C6.10666 0.833984 6.33333 1.06065 6.33333 1.33398V3.33398C6.33333 3.60732 6.10666 3.83398 5.83333 3.83398Z" fill="#8E9AB0"/>
<path id="Vector_2" d="M11.1667 3.83398C10.8933 3.83398 10.6667 3.60732 10.6667 3.33398V1.33398C10.6667 1.06065 10.8933 0.833984 11.1667 0.833984C11.44 0.833984 11.6667 1.06065 11.6667 1.33398V3.33398C11.6667 3.60732 11.44 3.83398 11.1667 3.83398Z" fill="#8E9AB0"/>
<path id="Vector_3" d="M6.16667 9.66679C5.99333 9.66679 5.82 9.59345 5.69333 9.47345C5.57333 9.34679 5.5 9.18012 5.5 9.00012C5.5 8.91346 5.52 8.82679 5.55333 8.74679C5.58667 8.66679 5.63333 8.59346 5.69333 8.5268C5.94 8.28013 6.38667 8.28013 6.64 8.5268C6.76 8.65346 6.83333 8.82679 6.83333 9.00012C6.83333 9.04012 6.82667 9.0868 6.82 9.13347C6.81334 9.17347 6.8 9.21346 6.78 9.25346C6.76667 9.29346 6.74667 9.33346 6.72 9.37346C6.69333 9.40679 6.66667 9.44012 6.64 9.47345C6.51333 9.59345 6.34 9.66679 6.16667 9.66679Z" fill="#8E9AB0"/>
<path id="Vector_4" d="M8.49999 9.66753C8.41333 9.66753 8.32666 9.64753 8.24666 9.6142C8.16 9.58087 8.09333 9.53419 8.02666 9.47419C7.90666 9.34752 7.83333 9.18086 7.83333 9.00086C7.83333 8.91419 7.85333 8.82752 7.88666 8.74752C7.92 8.66752 7.96666 8.5942 8.02666 8.52753C8.09333 8.46753 8.16 8.42085 8.24666 8.38752C8.49333 8.28752 8.78666 8.34086 8.97333 8.52753C9.09333 8.6542 9.16666 8.82753 9.16666 9.00086C9.16666 9.04086 9.16 9.08753 9.15333 9.1342C9.14666 9.1742 9.13333 9.2142 9.11333 9.2542C9.09999 9.2942 9.08 9.33419 9.05333 9.37419C9.03333 9.40752 8.99999 9.44085 8.97333 9.47419C8.84666 9.59419 8.67333 9.66753 8.49999 9.66753Z" fill="#8E9AB0"/>
<path id="Vector_5" d="M6.16667 12.0005C6.08 12.0005 5.99334 11.9805 5.91334 11.9472C5.82667 11.9138 5.75333 11.8672 5.69333 11.8072C5.63333 11.7472 5.58667 11.6738 5.55333 11.5872C5.52 11.5072 5.5 11.4205 5.5 11.3338C5.5 11.2472 5.52 11.1605 5.55333 11.0805C5.58667 10.9938 5.63333 10.9205 5.69333 10.8605C5.75333 10.8005 5.82667 10.7538 5.91334 10.7205C6.07334 10.6538 6.26 10.6472 6.42 10.7205C6.50666 10.7538 6.58 10.8005 6.64 10.8605C6.7 10.9205 6.74667 10.9938 6.78 11.0805C6.81333 11.1605 6.83333 11.2472 6.83333 11.3338C6.83333 11.4205 6.81333 11.5072 6.78 11.5872C6.74667 11.6738 6.7 11.7472 6.64 11.8072C6.58 11.8672 6.50666 11.9138 6.42 11.9472C6.34 11.9805 6.25333 12.0005 6.16667 12.0005Z" fill="#8E9AB0"/>
<path id="Vector_6" d="M14.1667 6.56055H2.83334C2.56 6.56055 2.33334 6.33388 2.33334 6.06055C2.33334 5.78721 2.56 5.56055 2.83334 5.56055H14.1667C14.44 5.56055 14.6667 5.78721 14.6667 6.06055C14.6667 6.33388 14.44 6.56055 14.1667 6.56055Z" fill="#8E9AB0"/>
<path id="Vector_7" d="M12.5 15.8333C11.72 15.8333 10.98 15.5533 10.4133 15.04C10.1733 14.84 9.96 14.5867 9.78666 14.2933C9.49333 13.8133 9.33333 13.2467 9.33333 12.6667C9.33333 10.92 10.7533 9.5 12.5 9.5C13.4067 9.5 14.2733 9.89332 14.8733 10.5733C15.3867 11.16 15.6667 11.9 15.6667 12.6667C15.6667 13.2467 15.5067 13.8133 15.2067 14.3C14.6467 15.2467 13.6067 15.8333 12.5 15.8333ZM12.5 10.5C11.3067 10.5 10.3333 11.4733 10.3333 12.6667C10.3333 13.06 10.44 13.4467 10.6467 13.78C10.76 13.98 10.9067 14.1467 11.0667 14.2867C11.4667 14.6467 11.9667 14.8333 12.5 14.8333C13.2667 14.8333 13.96 14.44 14.3533 13.7867C14.56 13.4467 14.6667 13.0667 14.6667 12.6667C14.6667 12.1467 14.4733 11.64 14.1267 11.2333C13.7133 10.7667 13.12 10.5 12.5 10.5Z" fill="#8E9AB0"/>
<path id="Vector_8" d="M12.1199 13.8257C11.9933 13.8257 11.8666 13.779 11.7666 13.679L11.1066 13.0191C10.9133 12.8257 10.9133 12.5057 11.1066 12.3124C11.2999 12.1191 11.6199 12.1191 11.8133 12.3124L12.1333 12.6324L13.1999 11.6457C13.3999 11.4591 13.7199 11.4724 13.9066 11.6724C14.0933 11.8724 14.0799 12.1924 13.8799 12.3791L12.4599 13.6924C12.3599 13.7791 12.2399 13.8257 12.1199 13.8257Z" fill="#8E9AB0"/>
<path id="Vector_9" d="M10.7467 15.1673H5.83333C3.4 15.1673 2 13.7673 2 11.334V5.66732C2 3.23398 3.4 1.83398 5.83333 1.83398H11.1667C13.6 1.83398 15 3.23398 15 5.66732V10.9073C15 11.114 14.8733 11.3006 14.6733 11.374C14.48 11.4473 14.26 11.394 14.12 11.234C13.7067 10.7673 13.1133 10.5007 12.4933 10.5007C11.3 10.5007 10.3267 11.474 10.3267 12.6673C10.3267 13.0607 10.4333 13.4473 10.64 13.7807C10.7533 13.9807 10.9 14.1473 11.06 14.2873C11.22 14.4206 11.28 14.6407 11.2067 14.8407C11.1467 15.034 10.96 15.1673 10.7467 15.1673ZM5.83333 2.83398C3.92667 2.83398 3 3.76065 3 5.66732V11.334C3 13.2407 3.92667 14.1673 5.83333 14.1673H9.71333C9.46667 13.714 9.33333 13.2007 9.33333 12.6673C9.33333 10.9207 10.7533 9.50065 12.5 9.50065C13.0267 9.50065 13.5467 9.63399 14 9.88066V5.66732C14 3.76065 13.0733 2.83398 11.1667 2.83398H5.83333Z" fill="#8E9AB0"/>
</g>
</g>
</svg>
