<svg width="20" height="21" viewBox="0 0 20 21" fill="none" xmlns="http://www.w3.org/2000/svg">
<g id="vuesax/outline/calendar-2">
<g id="calendar-2">
<path id="Vector" d="M6.66666 5.29175C6.325 5.29175 6.04166 5.00841 6.04166 4.66675V2.16675C6.04166 1.82508 6.325 1.54175 6.66666 1.54175C7.00833 1.54175 7.29166 1.82508 7.29166 2.16675V4.66675C7.29166 5.00841 7.00833 5.29175 6.66666 5.29175Z" fill="#0041C4"/>
<path id="Vector_2" d="M13.3333 5.29175C12.9917 5.29175 12.7083 5.00841 12.7083 4.66675V2.16675C12.7083 1.82508 12.9917 1.54175 13.3333 1.54175C13.675 1.54175 13.9583 1.82508 13.9583 2.16675V4.66675C13.9583 5.00841 13.675 5.29175 13.3333 5.29175Z" fill="#0041C4"/>
<path id="Vector_3" d="M17.0833 8.69995H2.91666C2.575 8.69995 2.29166 8.41662 2.29166 8.07495C2.29166 7.73328 2.575 7.44995 2.91666 7.44995H17.0833C17.425 7.44995 17.7083 7.73328 17.7083 8.07495C17.7083 8.41662 17.425 8.69995 17.0833 8.69995Z" fill="#0041C4"/>
<path id="Vector_4" d="M13.3333 19.4584H6.66667C3.625 19.4584 1.875 17.7084 1.875 14.6667V7.58342C1.875 4.54175 3.625 2.79175 6.66667 2.79175H13.3333C16.375 2.79175 18.125 4.54175 18.125 7.58342V14.6667C18.125 17.7084 16.375 19.4584 13.3333 19.4584ZM6.66667 4.04175C4.28333 4.04175 3.125 5.20008 3.125 7.58342V14.6667C3.125 17.0501 4.28333 18.2084 6.66667 18.2084H13.3333C15.7167 18.2084 16.875 17.0501 16.875 14.6667V7.58342C16.875 5.20008 15.7167 4.04175 13.3333 4.04175H6.66667Z" fill="#0041C4"/>
<path id="Vector_5" d="M7.08333 12.5834C6.975 12.5834 6.86666 12.5584 6.76666 12.5168C6.66666 12.4751 6.57501 12.4168 6.49167 12.3418C6.41667 12.2584 6.35832 12.1668 6.31666 12.0668C6.27499 11.9668 6.25 11.8584 6.25 11.7501C6.25 11.5334 6.34167 11.3168 6.49167 11.1584C6.57501 11.0834 6.66666 11.0251 6.76666 10.9834C6.91666 10.9167 7.08334 10.9001 7.25001 10.9334C7.30001 10.9417 7.35 10.9584 7.4 10.9834C7.45 11.0001 7.5 11.0251 7.55 11.0584C7.59166 11.0918 7.63333 11.1251 7.67499 11.1584C7.70833 11.2001 7.74999 11.2418 7.77499 11.2834C7.80832 11.3334 7.83334 11.3834 7.85001 11.4334C7.87501 11.4834 7.89168 11.5334 7.90001 11.5834C7.90834 11.6417 7.91667 11.6918 7.91667 11.7501C7.91667 11.9668 7.82499 12.1834 7.67499 12.3418C7.51666 12.4918 7.3 12.5834 7.08333 12.5834Z" fill="#0C0507"/>
<path id="Vector_6" d="M10 12.5832C9.78333 12.5832 9.56667 12.4916 9.40834 12.3416C9.375 12.2999 9.34168 12.2582 9.30834 12.2166C9.27501 12.1666 9.24999 12.1166 9.23332 12.0666C9.20832 12.0166 9.19165 11.9666 9.18332 11.9166C9.17499 11.8582 9.16666 11.8082 9.16666 11.7499C9.16666 11.6416 9.19165 11.5332 9.23332 11.4332C9.27499 11.3332 9.33334 11.2416 9.40834 11.1582C9.64167 10.9249 10.0167 10.8499 10.3167 10.9832C10.425 11.0249 10.5083 11.0832 10.5917 11.1582C10.7417 11.3166 10.8333 11.5332 10.8333 11.7499C10.8333 11.8082 10.825 11.8582 10.8167 11.9166C10.8083 11.9666 10.7917 12.0166 10.7667 12.0666C10.75 12.1166 10.725 12.1666 10.6917 12.2166C10.6583 12.2582 10.625 12.2999 10.5917 12.3416C10.5083 12.4166 10.425 12.4749 10.3167 12.5166C10.2167 12.5582 10.1083 12.5832 10 12.5832Z" fill="#0C0507"/>
<path id="Vector_7" d="M7.08333 15.5C6.975 15.5 6.86666 15.475 6.76666 15.4333C6.66666 15.3917 6.57501 15.3333 6.49167 15.2583C6.41667 15.175 6.35832 15.0916 6.31666 14.9833C6.27499 14.8833 6.25 14.775 6.25 14.6666C6.25 14.45 6.34167 14.2333 6.49167 14.075C6.57501 14 6.66666 13.9416 6.76666 13.9C7.075 13.7666 7.44166 13.8416 7.67499 14.075C7.70833 14.1166 7.74999 14.1583 7.77499 14.2C7.80832 14.25 7.83334 14.3 7.85001 14.35C7.87501 14.4 7.89168 14.45 7.90001 14.5083C7.90834 14.5583 7.91667 14.6166 7.91667 14.6666C7.91667 14.8833 7.82499 15.1 7.67499 15.2583C7.51666 15.4083 7.3 15.5 7.08333 15.5Z" fill="#0C0507"/>
</g>
</g>
</svg>
