<svg width="16" height="16" viewBox="0 0 16 16" fill="none" xmlns="http://www.w3.org/2000/svg">
<path d="M5.33331 3.83325C5.05998 3.83325 4.83331 3.60659 4.83331 3.33325V1.33325C4.83331 1.05992 5.05998 0.833252 5.33331 0.833252C5.60665 0.833252 5.83331 1.05992 5.83331 1.33325V3.33325C5.83331 3.60659 5.60665 3.83325 5.33331 3.83325Z" fill="#8E9AB0"/>
<path d="M10.6667 3.83325C10.3934 3.83325 10.1667 3.60659 10.1667 3.33325V1.33325C10.1667 1.05992 10.3934 0.833252 10.6667 0.833252C10.94 0.833252 11.1667 1.05992 11.1667 1.33325V3.33325C11.1667 3.60659 10.94 3.83325 10.6667 3.83325Z" fill="#8E9AB0"/>
<path d="M5.66667 9.66679C5.49333 9.66679 5.32 9.59345 5.19333 9.47345C5.07333 9.34679 5 9.18012 5 9.00012C5 8.91346 5.02 8.82679 5.05333 8.74679C5.08667 8.66679 5.13333 8.59346 5.19333 8.5268C5.44 8.28013 5.88667 8.28013 6.14 8.5268C6.26 8.65346 6.33333 8.82679 6.33333 9.00012C6.33333 9.04012 6.32667 9.0868 6.32 9.13347C6.31334 9.17347 6.3 9.21346 6.28 9.25346C6.26667 9.29346 6.24667 9.33346 6.22 9.37346C6.19333 9.40679 6.16667 9.44012 6.14 9.47345C6.01333 9.59345 5.84 9.66679 5.66667 9.66679Z" fill="#8E9AB0"/>
<path d="M7.99998 9.66655C7.91331 9.66655 7.82665 9.64656 7.74665 9.61322C7.65998 9.57989 7.59331 9.53321 7.52665 9.47321C7.40665 9.34654 7.33331 9.17988 7.33331 8.99988C7.33331 8.91322 7.35331 8.82655 7.38665 8.74655C7.41998 8.66655 7.46665 8.59322 7.52665 8.52655C7.59331 8.46655 7.65998 8.41987 7.74665 8.38654C7.99331 8.28654 8.28665 8.33989 8.47331 8.52655C8.59331 8.65322 8.66665 8.82655 8.66665 8.99988C8.66665 9.03988 8.65998 9.08656 8.65332 9.13322C8.64665 9.17322 8.63331 9.21322 8.61331 9.25322C8.59998 9.29322 8.57998 9.33321 8.55331 9.37321C8.53331 9.40655 8.49998 9.43988 8.47331 9.47321C8.34665 9.59321 8.17331 9.66655 7.99998 9.66655Z" fill="#8E9AB0"/>
<path d="M5.66667 12C5.58 12 5.49334 11.98 5.41334 11.9467C5.32667 11.9134 5.25333 11.8667 5.19333 11.8067C5.13333 11.7467 5.08667 11.6734 5.05333 11.5867C5.02 11.5067 5 11.42 5 11.3334C5 11.2467 5.02 11.16 5.05333 11.08C5.08667 10.9933 5.13333 10.92 5.19333 10.86C5.25333 10.8 5.32667 10.7533 5.41334 10.72C5.57334 10.6533 5.76 10.6467 5.92 10.72C6.00666 10.7533 6.08 10.8 6.14 10.86C6.2 10.92 6.24667 10.9933 6.28 11.08C6.31333 11.16 6.33333 11.2467 6.33333 11.3334C6.33333 11.42 6.31333 11.5067 6.28 11.5867C6.24667 11.6734 6.2 11.7467 6.14 11.8067C6.08 11.8667 6.00666 11.9134 5.92 11.9467C5.84 11.98 5.75333 12 5.66667 12Z" fill="#8E9AB0"/>
<path d="M13.6666 6.56006H2.33331C2.05998 6.56006 1.83331 6.33339 1.83331 6.06006C1.83331 5.78673 2.05998 5.56006 2.33331 5.56006H13.6666C13.94 5.56006 14.1666 5.78673 14.1666 6.06006C14.1666 6.33339 13.94 6.56006 13.6666 6.56006Z" fill="#8E9AB0"/>
<path d="M12 15.8333C11.22 15.8333 10.48 15.5533 9.91331 15.04C9.67331 14.84 9.45998 14.5867 9.28665 14.2933C8.99331 13.8133 8.83331 13.2467 8.83331 12.6667C8.83331 10.92 10.2533 9.5 12 9.5C12.9066 9.5 13.7733 9.89332 14.3733 10.5733C14.8866 11.16 15.1666 11.9 15.1666 12.6667C15.1666 13.2467 15.0066 13.8133 14.7066 14.3C14.1466 15.2467 13.1066 15.8333 12 15.8333ZM12 10.5C10.8066 10.5 9.83331 11.4733 9.83331 12.6667C9.83331 13.06 9.93998 13.4467 10.1466 13.78C10.26 13.98 10.4066 14.1467 10.5666 14.2867C10.9666 14.6467 11.4666 14.8333 12 14.8333C12.7666 14.8333 13.46 14.44 13.8533 13.7867C14.06 13.4467 14.1666 13.0667 14.1666 12.6667C14.1666 12.1467 13.9733 11.64 13.6266 11.2333C13.2133 10.7667 12.62 10.5 12 10.5Z" fill="#8E9AB0"/>
<path d="M11.6199 13.8267C11.4933 13.8267 11.3666 13.78 11.2666 13.68L10.6066 13.02C10.4133 12.8267 10.4133 12.5067 10.6066 12.3134C10.7999 12.12 11.1199 12.12 11.3133 12.3134L11.6333 12.6334L12.6999 11.6467C12.8999 11.46 13.2199 11.4734 13.4066 11.6734C13.5933 11.8734 13.5799 12.1934 13.3799 12.38L11.9599 13.6934C11.8599 13.78 11.7399 13.8267 11.6199 13.8267Z" fill="#8E9AB0"/>
<path d="M10.2467 15.1666H5.33333C2.9 15.1666 1.5 13.7666 1.5 11.3333V5.66659C1.5 3.23325 2.9 1.83325 5.33333 1.83325H10.6667C13.1 1.83325 14.5 3.23325 14.5 5.66659V10.9066C14.5 11.1132 14.3733 11.2999 14.1733 11.3733C13.98 11.4466 13.76 11.3933 13.62 11.2333C13.2067 10.7666 12.6133 10.4999 11.9933 10.4999C10.8 10.4999 9.82667 11.4733 9.82667 12.6666C9.82667 13.0599 9.93333 13.4466 10.14 13.7799C10.2533 13.9799 10.4 14.1466 10.56 14.2866C10.72 14.4199 10.78 14.6399 10.7067 14.8399C10.6467 15.0333 10.46 15.1666 10.2467 15.1666ZM5.33333 2.83325C3.42667 2.83325 2.5 3.75992 2.5 5.66659V11.3333C2.5 13.2399 3.42667 14.1666 5.33333 14.1666H9.21333C8.96667 13.7133 8.83333 13.1999 8.83333 12.6666C8.83333 10.9199 10.2533 9.49992 12 9.49992C12.5267 9.49992 13.0467 9.63326 13.5 9.87992V5.66659C13.5 3.75992 12.5733 2.83325 10.6667 2.83325H5.33333Z" fill="#8E9AB0"/>
</svg>
