<svg width="91" height="91" viewBox="0 0 91 91" fill="none" xmlns="http://www.w3.org/2000/svg">
<path d="M41.9536 1.04058C32.3329 1.73893 23.6035 5.25825 16.1789 11.4148C14.7914 12.5634 12.0807 15.2281 10.9137 16.6065C4.81236 23.7278 1.2379 32.0437 0.217944 41.4714C0.0249783 43.3459 -0.011777 48.2528 0.172 50.017C1.14602 59.5183 4.49075 67.5861 10.4267 74.7809C11.6029 76.196 14.8098 79.4029 16.2249 80.5791C22.997 86.1659 30.7708 89.5474 39.3348 90.6316C50.0765 91.9916 60.8458 89.5014 69.7498 83.6022C74.188 80.6618 78.2035 76.8576 81.3002 72.6491C88.8626 62.3944 91.6927 49.4565 89.129 36.8862C87.6588 29.6454 84.4703 23.0203 79.637 17.167C78.5159 15.807 75.1804 12.4715 73.8848 11.3964C66.7818 5.55229 58.7048 2.15243 49.6263 1.17841C48.0458 1.00382 43.5249 0.930311 41.9536 1.04058ZM47.2372 5.35933C56.3892 5.88309 64.9716 9.35647 71.6795 15.2557C75.9155 18.9955 79.0213 22.9927 81.4656 27.8903C85.5178 36.0041 86.7032 45.1837 84.8562 54.2347C83.5882 60.5015 80.8683 66.2537 76.7517 71.427C75.3366 73.2096 72.24 76.2971 70.4206 77.7489C69.0239 78.8608 66.497 80.5791 65.1094 81.3693C51.9327 88.8398 35.5398 88.3436 22.9052 80.1012C19.7534 78.0338 16.8865 75.5436 14.3412 72.6491C5.39125 62.4679 2.18435 48.2528 5.84151 35.0209C7.33929 29.6362 10.1235 24.3251 13.7071 20.0155C14.7547 18.7566 17.0059 16.4686 18.3567 15.2833C23.1073 11.1115 29.0525 8.00571 35.1447 6.50793C39.2429 5.50635 43.1757 5.12961 47.2372 5.35933Z" fill="white"/>
<path d="M37.8094 24.2793C35.503 24.9409 33.8674 26.8981 33.5918 29.3147L33.5274 29.8936H30.2562C26.5256 29.8936 26.2683 29.9304 25.0553 30.5552C24.0078 31.1066 23.1257 31.9887 22.6295 33.027C21.9219 34.4605 21.9679 33.4681 21.9679 47.2697C21.9679 59.3254 21.9679 59.6562 22.1517 60.3546C22.409 61.3562 22.8868 62.1556 23.7046 62.9826C24.4764 63.7453 24.9726 64.0577 26.011 64.4252L26.7001 64.6733H45.1697H63.6392L64.3284 64.4252C65.3667 64.0577 65.8629 63.7453 66.6348 62.9826C67.4618 62.1556 67.9396 61.347 68.1877 60.3362C68.3715 59.6287 68.3715 59.3622 68.3531 47.0216C68.3255 34.4605 68.3255 34.4421 68.1326 33.9367C67.4802 32.2276 66.5429 31.1617 65.1002 30.4541C64.0343 29.9304 63.6944 29.8936 60.0831 29.8936H56.8119L56.7476 29.3147C56.5179 27.2656 55.3325 25.5657 53.5315 24.6744C52.3645 24.0955 52.5207 24.1047 45.1145 24.1139C38.9856 24.1139 38.3148 24.1322 37.8094 24.2793ZM47.7242 38.3841C49.2955 38.8527 50.5084 39.597 51.6478 40.7916C53.4121 42.6477 54.2299 44.8255 54.1012 47.334C53.9174 51.2209 51.2343 54.5105 47.4485 55.5029C46.2264 55.8153 44.453 55.8337 43.2584 55.5488C38.1678 54.2992 35.2641 49.1718 36.8262 44.1823C37.5246 41.9494 39.1878 40.0197 41.3104 38.9722C42.7438 38.2555 43.6719 38.0625 45.4913 38.1084C46.7042 38.136 47.035 38.1728 47.7242 38.3841Z" fill="white"/>
</svg>
