<svg width="22" height="28" viewBox="0 0 22 28" fill="none" xmlns="http://www.w3.org/2000/svg">
<path d="M6.24645 2.48164C4.85998 3.84694 2.8967 5.79964 1.87537 6.82097L0.023218 8.67842L0.00734241 16.8173C-0.00853318 25.9087 -0.0349925 25.3054 0.367189 25.9193C0.753495 26.5173 1.37264 26.9353 2.03942 27.0412C2.45747 27.11 17.5393 27.11 17.9573 27.0412C18.8464 26.8983 19.6296 26.2104 19.8995 25.3425C19.9947 25.0303 20 24.6598 20 13.5258C20 2.15355 20 2.02125 19.8942 1.71962C19.7513 1.30156 19.5819 1.02638 19.275 0.719454C18.984 0.428402 18.423 0.132057 17.9944 0.0526791C17.8145 0.0209274 16.0417 -0.000238419 13.2423 -0.000238419H8.77067L6.24645 2.48164ZM17.9415 1.22747C18.2114 1.30685 18.5447 1.59261 18.6929 1.87308L18.8093 2.09005V13.5205V24.9509L18.6982 25.1626C18.5447 25.4483 18.3278 25.66 18.0685 25.7764C17.8674 25.8717 17.5075 25.877 9.99838 25.877C2.49981 25.877 2.12938 25.8717 1.92829 25.7764C1.67428 25.66 1.41498 25.406 1.28268 25.1414C1.19272 24.9615 1.18743 24.5381 1.17155 17.2618L1.16097 9.57803H4.3255C7.75992 9.57803 7.72288 9.57803 8.31557 9.28169C8.64895 9.11235 9.11464 8.64137 9.28927 8.2974C9.60149 7.67825 9.59091 7.81055 9.61207 4.34967L9.63324 1.16397H13.6868C16.6079 1.16397 17.7933 1.17985 17.9415 1.22747ZM8.3579 7.37132C8.25736 7.85818 7.87634 8.24977 7.39478 8.3609C7.10373 8.42441 2.06059 8.43499 2.06059 8.3662C2.06059 8.33974 3.4841 6.91093 5.22512 5.19108L8.38436 2.06888L8.40024 4.5931C8.40553 6.1489 8.39495 7.21257 8.3579 7.37132Z" fill="#106DB6"/>
<path d="M18.7578 5.06006C18.4102 5.13428 18.0039 5.32178 17.7031 5.54834C17.4375 5.75146 17.375 5.82568 15.7109 7.9624C15.0508 8.81006 14.5039 9.51318 14.4961 9.521C14.4883 9.52881 14.293 9.44678 14.0625 9.3374C13.2383 8.95068 12.5625 8.79834 11.8047 8.8335C11.2695 8.85693 10.9922 8.92334 10.5742 9.12256C10.3047 9.25537 10.1914 9.35303 9.16406 10.3726C7.95703 11.5718 7.84375 11.7163 7.65625 12.2788C7.55859 12.5679 7.55078 12.6382 7.55078 13.2554C7.55078 13.7671 7.56641 13.9741 7.61719 14.1577C7.65234 14.2905 7.68359 14.4077 7.68359 14.4155C7.68359 14.4272 7.43359 14.4468 7.12891 14.4585C6.04688 14.5015 5.16406 14.7827 4.28516 15.3647C3.91016 15.6147 3.14844 16.3765 2.89844 16.7515C2.5 17.353 2.22266 18.021 2.07031 18.7437C2.01953 18.9819 2 19.2554 2 19.7202C2 20.4312 2.05469 20.7632 2.25781 21.3843C2.51562 22.1655 2.90234 22.7905 3.52344 23.4155C4.30859 24.2085 5.16797 24.6733 6.27734 24.9038C6.73438 24.9976 7.76172 24.9976 8.23828 24.9038C9.29297 24.6929 10.168 24.2241 10.9492 23.4507C11.9531 22.4585 12.4531 21.314 12.5156 19.8647C12.5273 19.5483 12.5469 19.2905 12.5586 19.2905C12.5664 19.2905 12.6836 19.3218 12.8164 19.3569C12.9961 19.4077 13.2148 19.4233 13.6992 19.4272C14.2695 19.4272 14.3789 19.4155 14.6367 19.3374C15.2383 19.1499 15.3047 19.0952 16.5547 17.8491C17.625 16.7749 17.7188 16.6733 17.8516 16.3999C18.0508 15.9819 18.1172 15.7046 18.1406 15.1694C18.1758 14.4116 18.0234 13.7358 17.6367 12.9116C17.5273 12.6812 17.4453 12.4858 17.4531 12.478C17.4609 12.4702 18.2773 11.8335 19.2656 11.064C20.2539 10.2944 21.1523 9.57178 21.2617 9.4585C21.9883 8.70068 22.1797 7.50146 21.7305 6.53662C21.2031 5.41162 19.9727 4.79834 18.7578 5.06006ZM19.9258 6.29443C20.3438 6.48584 20.6641 6.88037 20.7695 7.3335C20.8633 7.73975 20.7383 8.271 20.4766 8.57959C20.3984 8.66553 19.1367 9.67725 17.6719 10.8179C16.207 11.9624 14.9414 12.9507 14.8633 13.0132L14.7188 13.1304L14.5312 13.0601C14.2852 12.9663 14.0391 12.728 13.9336 12.4858C13.8672 12.3296 13.8555 12.2671 13.8906 12.2124C13.9805 12.0679 18.1289 6.76318 18.2656 6.62256C18.4375 6.43896 18.6914 6.28271 18.9297 6.21631C19.2031 6.13818 19.6641 6.17725 19.9258 6.29443ZM12.4727 10.0366C12.7578 10.0874 13.3477 10.2788 13.5742 10.396L13.7422 10.4858L13.1953 11.1733C12.6562 11.8452 12.6445 11.8647 12.6445 12.0522C12.6445 12.896 13.1641 13.7202 13.9336 14.0874C14.2773 14.2515 14.5938 14.3296 14.9219 14.3296C15.1133 14.3296 15.1289 14.3179 15.8047 13.7788L16.4922 13.228L16.6172 13.4976C16.6875 13.6421 16.7891 13.9194 16.8477 14.1147C16.9375 14.4155 16.9531 14.5405 16.957 14.9741C16.9609 15.3843 16.9453 15.521 16.8867 15.6772C16.7852 15.9468 16.6133 16.189 16.4258 16.3218C15.4375 17.0405 13.5273 16.4507 12.0391 14.9741C11.5195 14.4585 11.1602 13.9858 10.8711 13.4312C10.0117 11.7827 10.2344 10.3687 11.4023 10.0562C11.6523 9.98584 12.1523 9.97803 12.4727 10.0366ZM9.33984 12.7632C9.83203 14.6226 11.5391 16.521 13.4883 17.3765C13.8672 17.5444 14.668 17.7671 14.8828 17.7671C14.9961 17.7671 15 17.7671 14.9297 17.8452C14.8086 17.9819 14.5078 18.1499 14.2695 18.2163C13.9648 18.3062 13.2969 18.2788 12.8711 18.1616C11.5273 17.7944 10.1289 16.6616 9.32031 15.2905C8.61719 14.0952 8.49609 12.8374 9.01953 12.1772L9.18359 11.9702L9.23047 12.2397C9.25391 12.3921 9.30469 12.6265 9.33984 12.7632ZM7.82031 15.6577C8.21094 15.7163 8.20703 15.7124 8.37891 16.0015C8.66406 16.478 9.01953 16.9233 9.53516 17.4351C10.0625 17.9624 10.4141 18.2476 10.9336 18.5679C11.0977 18.6694 11.2422 18.7749 11.2539 18.8062C11.3164 18.9663 11.3633 19.5913 11.3438 19.9546C11.2695 21.2515 10.5664 22.4507 9.47266 23.1577C9.09375 23.4038 8.69531 23.5757 8.19141 23.7163C7.76562 23.8296 6.74219 23.8296 6.31641 23.7163C5.51953 23.4976 4.88672 23.1421 4.35938 22.6147C3.83203 22.0874 3.47656 21.4546 3.25781 20.6577C3.14453 20.2319 3.14453 19.2085 3.25781 18.7827C3.6875 17.2241 4.79688 16.1069 6.28125 15.7437C6.46094 15.6968 6.67188 15.6538 6.74609 15.646C7.03125 15.6147 7.55859 15.6226 7.82031 15.6577Z" fill="#106DB6"/>
<path d="M7.61719 19.103L6.66797 20.0522L6.30469 19.689C6.10547 19.4937 5.92578 19.3296 5.90625 19.3296C5.85547 19.3296 5.10547 20.0796 5.10547 20.1304C5.10547 20.1538 5.45703 20.521 5.88672 20.9507L6.66797 21.7319L8.03516 20.3647C8.78906 19.6147 9.40234 18.978 9.40234 18.9585C9.40234 18.9077 8.65234 18.1577 8.60156 18.1577C8.57812 18.1577 8.13672 18.5835 7.61719 19.103Z" fill="#106DB6"/>
</svg>
