<svg width="20" height="20" viewBox="0 0 20 20" fill="none" xmlns="http://www.w3.org/2000/svg">
<g id="vuesax/bold/check">
<path id="Vector" d="M12.5 18.3334C12.1583 18.3334 11.875 18.0501 11.875 17.7084V2.29175C11.875 1.95008 12.1583 1.66675 12.5 1.66675C12.8417 1.66675 13.125 1.95008 13.125 2.29175V17.7084C13.125 18.0501 12.8417 18.3334 12.5 18.3334Z" fill="#0041C4"/>
<path id="Vector_2" d="M15 16.6666H12.5V3.33325H15C16.8417 3.33325 18.3333 4.82492 18.3333 6.66659V13.3333C18.3333 15.1749 16.8417 16.6666 15 16.6666Z" fill="#0041C4"/>
<path id="Vector_3" d="M4.99996 3.33325C3.15829 3.33325 1.66663 4.82492 1.66663 6.66659V13.3333C1.66663 15.1749 3.15829 16.6666 4.99996 16.6666H9.16663C9.62496 16.6666 9.99996 16.2916 9.99996 15.8333V4.16659C9.99996 3.70825 9.62496 3.33325 9.16663 3.33325H4.99996ZM6.45829 12.9166C6.45829 13.2583 6.17496 13.5416 5.83329 13.5416C5.49163 13.5416 5.20829 13.2583 5.20829 12.9166V7.08325C5.20829 6.74159 5.49163 6.45825 5.83329 6.45825C6.17496 6.45825 6.45829 6.74159 6.45829 7.08325V12.9166Z" fill="#0041C4"/>
</g>
</svg>
