<svg width="5" height="5" viewBox="0 0 5 5" fill="none" xmlns="http://www.w3.org/2000/svg">
<path d="M4.3636 0.578528C4.25846 0.475696 4.08985 0.475696 3.98471 0.578528L2.28663 2.23937L0.588546 0.578528C0.483408 0.475696 0.31479 0.475696 0.209652 0.578528C0.104514 0.681361 0.104514 0.846281 0.209652 0.949113L1.90773 2.60995L0.209652 4.2708C0.104514 4.37363 0.104514 4.53855 0.209652 4.64138C0.261229 4.69183 0.33066 4.71899 0.398107 4.71899C0.465554 4.71899 0.534985 4.69377 0.586563 4.64138L2.28464 2.98054L3.98273 4.64138C4.0343 4.69183 4.10373 4.71899 4.17118 4.71899C4.24061 4.71899 4.30806 4.69377 4.35964 4.64138C4.46477 4.53855 4.46477 4.37363 4.35964 4.2708L2.66552 2.60995L4.3636 0.949113C4.46874 0.846281 4.46874 0.681361 4.3636 0.578528Z" fill="#ED1C24"/>
</svg>
