<svg width="16" height="16" viewBox="0 0 16 16" fill="none" xmlns="http://www.w3.org/2000/svg">
<g id="vuesax/bold/clipboard-tick">
<g id="clipboard-tick">
<path id="Vector" d="M9.56618 1.33325H6.43285C5.73952 1.33325 5.17285 1.89325 5.17285 2.58659V3.21325C5.17285 3.90659 5.73285 4.46659 6.42618 4.46659H9.56618C10.2595 4.46659 10.8195 3.90659 10.8195 3.21325V2.58659C10.8262 1.89325 10.2595 1.33325 9.56618 1.33325Z" fill="#286CF5"/>
<path id="Vector_2" d="M11.4934 3.21332C11.4934 4.27332 10.6267 5.13999 9.56669 5.13999H6.43336C5.37336 5.13999 4.50669 4.27332 4.50669 3.21332C4.50669 2.83999 4.10669 2.60665 3.77336 2.77999C2.83336 3.27999 2.19336 4.27332 2.19336 5.41332V11.6867C2.19336 13.3267 3.53336 14.6667 5.17336 14.6667H10.8267C12.4667 14.6667 13.8067 13.3267 13.8067 11.6867V5.41332C13.8067 4.27332 13.1667 3.27999 12.2267 2.77999C11.8934 2.60665 11.4934 2.83999 11.4934 3.21332ZM10.2267 8.48665L7.56003 11.1533C7.46003 11.2533 7.33336 11.3 7.20669 11.3C7.08003 11.3 6.95336 11.2533 6.85336 11.1533L5.85336 10.1533C5.66003 9.95999 5.66003 9.63999 5.85336 9.44665C6.04669 9.25332 6.36669 9.25332 6.56003 9.44665L7.20669 10.0933L9.52003 7.77999C9.71336 7.58665 10.0334 7.58665 10.2267 7.77999C10.42 7.97332 10.42 8.29332 10.2267 8.48665Z" fill="#286CF5"/>
</g>
</g>
</svg>
