<svg width="16" height="16" viewBox="0 0 16 16" fill="none" xmlns="http://www.w3.org/2000/svg">
<g id="vuesax/bold/clipboard">
<path id="Vector" d="M9.25997 1.92009L6.13331 1.42676C3.52664 1.02009 2.31997 1.90009 1.90664 4.50676L1.41331 7.63343C1.14664 9.34009 1.42664 10.4468 2.39331 11.1201C2.89997 11.4801 3.59331 11.7201 4.49331 11.8601L7.61997 12.3534C10.2266 12.7601 11.4333 11.8801 11.8466 9.27343L12.3333 6.14676C12.4133 5.63343 12.4466 5.17343 12.42 4.76676C12.3333 3.10009 11.3533 2.24676 9.25997 1.92009ZM5.49331 6.23343C4.71331 6.23343 4.07997 5.60009 4.07997 4.82676C4.07997 4.04676 4.71331 3.41343 5.49331 3.41343C6.26664 3.41343 6.89997 4.04676 6.89997 4.82676C6.89997 5.60009 6.26664 6.23343 5.49331 6.23343Z" fill="#286CF5"/>
<path id="Vector_2" d="M13.6667 8.98036L12.6667 11.987C11.8334 14.4937 10.5 15.1604 7.99336 14.327L4.9867 13.327C4.0467 13.0137 3.3667 12.627 2.9267 12.1404C3.3467 12.307 3.83336 12.4337 4.3867 12.5204L7.52003 13.0137C7.9467 13.0804 8.3467 13.1137 8.72003 13.1137C10.92 13.1137 12.1 11.927 12.5067 9.3737L12.9934 6.24703C13.06 5.86036 13.0867 5.52036 13.0867 5.20703C14.1 6.04036 14.2467 7.22703 13.6667 8.98036Z" fill="#286CF5"/>
</g>
</svg>
