<svg width="16" height="16" viewBox="0 0 16 16" fill="none" xmlns="http://www.w3.org/2000/svg">
<path d="M10.6666 8.59992V11.3999C10.6666 13.7333 9.73325 14.6666 7.39992 14.6666H4.59992C2.26659 14.6666 1.33325 13.7333 1.33325 11.3999V8.59992C1.33325 6.26659 2.26659 5.33325 4.59992 5.33325H7.39992C9.73325 5.33325 10.6666 6.26659 10.6666 8.59992Z" fill="#286CF5"/>
<path d="M11.4001 1.33325H8.60009C6.67939 1.33325 5.71176 1.97018 5.42932 3.49252C5.32773 4.04009 5.79508 4.49992 6.35199 4.49992H7.40009C10.2001 4.49992 11.5001 5.79992 11.5001 8.59992V9.64802C11.5001 10.2049 11.9599 10.6723 12.5075 10.5707C14.0298 10.2882 14.6668 9.32062 14.6668 7.39992V4.59992C14.6668 2.26659 13.7334 1.33325 11.4001 1.33325Z" fill="#286CF5"/>
</svg>
