<svg width="26" height="28" viewBox="0 0 26 28" fill="none" xmlns="http://www.w3.org/2000/svg">
<path d="M12.0983 0.504531C10.265 0.730338 8.77037 1.3755 7.45854 2.50992C6.13057 3.66046 5.20584 5.23573 4.80261 7.03144C4.69508 7.52069 4.67896 7.73575 4.67896 8.71962C4.67896 9.7035 4.69508 9.91855 4.80261 10.4078C5.50154 13.5261 7.82413 15.9401 10.8618 16.7089C14.5607 17.639 18.4425 15.8917 20.1844 12.5153C20.5554 11.7841 20.7812 11.1766 20.9532 10.4078C21.0607 9.91317 21.0769 9.70887 21.0769 8.69274C21.0715 7.63359 21.0607 7.48843 20.9317 6.94542C20.1091 3.49917 17.3941 1.00453 13.9639 0.547542C13.4371 0.477649 12.4962 0.456143 12.0983 0.504531ZM14.2704 1.354C16.3349 1.75722 18.136 2.99379 19.265 4.79487C20.3296 6.4938 20.6414 8.76801 20.0822 10.768C19.9156 11.3648 19.9102 11.3702 19.7328 11.1121C19.6038 10.9239 19.0876 10.5261 18.8887 10.4508C18.8349 10.4347 18.8403 10.4024 18.9048 10.3272C19.2597 9.91855 19.3779 9.12822 19.1736 8.57984C18.9693 8.03682 18.4747 7.59058 17.9263 7.45617C17.7328 7.40779 17.6629 7.3594 17.5822 7.20348C17.4532 6.9723 17.0392 6.59058 16.7543 6.45079L16.5392 6.34327L16.6683 6.16585C16.9209 5.82176 17.0446 5.27337 16.9693 4.84326C16.8564 4.23035 16.5231 3.77874 15.9855 3.49379C15.7274 3.35938 15.6467 3.34325 15.1629 3.34325C14.7059 3.34325 14.593 3.35938 14.3941 3.46691C14.0553 3.64971 13.7274 3.96691 13.5446 4.29487C13.3994 4.55831 13.3887 4.62283 13.3887 5.11745C13.3887 5.57982 13.4048 5.68735 13.5177 5.89703C13.5876 6.03144 13.679 6.18198 13.7274 6.23574C13.8242 6.34327 13.8295 6.33251 13.5338 6.48305C13.4048 6.54757 13.2113 6.68735 13.093 6.7895L12.8833 6.97768L12.5983 6.74649C12.4371 6.61746 12.2328 6.47768 12.136 6.44004C11.9586 6.36477 11.9209 6.30563 12.0177 6.24649C12.05 6.22499 12.136 6.0852 12.2166 5.93466C12.3242 5.71961 12.3618 5.55294 12.3833 5.22498C12.4155 4.63358 12.2704 4.26261 11.8618 3.84863C11.4478 3.44003 11.0768 3.29487 10.4854 3.32712C10.0499 3.35401 9.77575 3.45078 9.42629 3.70885C9.18435 3.89164 8.91016 4.33788 8.81338 4.71423C8.68435 5.23036 8.80263 5.80025 9.12521 6.21423L9.22199 6.34327L9.00693 6.44004C8.74349 6.55832 8.308 6.96155 8.17359 7.20886C8.09295 7.35402 8.02306 7.40779 7.82951 7.45617C7.28112 7.59058 6.78649 8.03682 6.58219 8.57984C6.42627 9.00457 6.45316 9.62285 6.65746 10.0207C6.7381 10.1712 6.82413 10.311 6.85638 10.3325C6.95316 10.3917 6.91552 10.4508 6.70585 10.5422C6.48004 10.6444 6.13595 10.9401 5.95853 11.1927L5.84563 11.3487L5.73272 10.9884C5.48003 10.1659 5.43165 9.78952 5.43165 8.66586C5.43702 7.68736 5.44778 7.5422 5.57681 7.02606C5.74348 6.35402 5.91014 5.90778 6.18434 5.36477C7.308 3.1282 9.43166 1.62819 11.9639 1.27335C12.4586 1.20346 13.7381 1.25185 14.2704 1.354ZM11.0123 4.14433C11.222 4.23573 11.5069 4.52605 11.5822 4.73036C11.679 4.98842 11.6521 5.37552 11.5177 5.63359C11.179 6.268 10.3564 6.38628 9.84027 5.87552C9.2865 5.32176 9.47468 4.41853 10.1951 4.1282C10.3887 4.05293 10.8134 4.05831 11.0123 4.14433ZM15.6629 4.18197C16.2973 4.4938 16.4317 5.35939 15.9156 5.87015C15.5338 6.25724 15.0177 6.30026 14.55 5.98843C14.1844 5.74649 14.0123 5.16047 14.1736 4.73036C14.2489 4.53143 14.5285 4.23573 14.7328 4.14433C14.9801 4.0368 15.3887 4.05293 15.6629 4.18197ZM11.8564 7.13897C11.9908 7.21961 12.1414 7.33252 12.1897 7.38628C12.2811 7.48843 12.2758 7.49381 12.0607 7.59058C11.5553 7.81101 11.1198 8.45618 11.0661 9.06371C11.0338 9.4293 11.1521 9.9078 11.351 10.2143C11.4263 10.3325 11.4801 10.4293 11.4693 10.4347C11.4586 10.4401 11.3457 10.51 11.2112 10.5852C11.0768 10.6659 10.8887 10.811 10.7865 10.9186L10.6037 11.1067L10.3403 10.8702C10.1951 10.7411 9.98543 10.5906 9.87253 10.5422L9.66822 10.4508L9.84564 10.1605C10.179 9.60672 10.2059 8.98306 9.92091 8.39166C9.77575 8.09596 9.39403 7.71424 9.11446 7.59058L8.8994 7.49381L9.01768 7.3594C9.08758 7.28413 9.265 7.17123 9.41016 7.09596C9.66822 6.9723 9.72199 6.96692 10.6467 6.98305C11.5822 6.99918 11.6198 7.00456 11.8564 7.13897ZM16.3457 7.10133C16.4962 7.17123 16.6683 7.28413 16.7381 7.3594L16.8564 7.49381L16.6414 7.59058C16.3618 7.71424 15.9801 8.09596 15.8349 8.39166C15.55 8.98306 15.5769 9.60672 15.9102 10.1605L16.0876 10.4508L15.8833 10.5422C15.7704 10.5906 15.5607 10.7411 15.4156 10.8702L15.1521 11.1067L14.9693 10.9186C14.8672 10.811 14.679 10.6659 14.5446 10.5852C14.4102 10.51 14.2919 10.4401 14.2811 10.4347C14.2704 10.4239 14.3134 10.3487 14.3725 10.2626C14.5876 9.96156 14.679 9.64973 14.679 9.20349C14.679 8.82177 14.6575 8.725 14.5016 8.41317C14.3188 8.0422 14.0338 7.7465 13.7059 7.59058C13.6037 7.5422 13.5231 7.48306 13.5231 7.45617C13.5231 7.38091 13.8779 7.12822 14.0984 7.04757C14.2381 6.99918 14.5876 6.97768 15.1898 6.97768C16.0123 6.9723 16.0984 6.98305 16.3457 7.10133ZM8.89403 8.33252C9.18973 8.52607 9.35102 8.84865 9.35102 9.23038C9.34564 9.57984 9.24349 9.79489 8.98543 10.0261C8.32413 10.6067 7.308 10.1766 7.24348 9.28952C7.21122 8.83252 7.41553 8.47768 7.85101 8.24112C8.1037 8.10671 8.61446 8.14973 8.89403 8.33252ZM13.2973 8.23575C14.0338 8.54758 14.1736 9.48306 13.5607 10.0207C13.3833 10.1766 13.0768 10.3056 12.8779 10.3056C12.5123 10.3056 12.0661 9.9992 11.9048 9.6336C11.5123 8.76801 12.4102 7.87015 13.2973 8.23575ZM17.9209 8.25725C18.3403 8.47231 18.5446 8.83252 18.5123 9.28952C18.4425 10.2196 17.3726 10.6229 16.7166 9.96156C16.1629 9.4078 16.351 8.50457 17.0769 8.21424C17.2973 8.12822 17.7059 8.14973 17.9209 8.25725ZM9.52306 11.2035C9.765 11.3325 10.0607 11.6444 10.1413 11.8487C10.2112 12.0368 10.2059 15.682 10.1306 15.682C10.0607 15.682 9.18973 15.2465 8.88865 15.0584C8.43166 14.7734 7.77574 14.225 7.39402 13.8164C6.86714 13.2465 6.37251 12.4992 6.37251 12.2788C6.37251 11.9562 6.48541 11.6981 6.7166 11.4616C7.07682 11.1067 7.26499 11.0583 8.36177 11.0745C9.21123 11.0852 9.32414 11.096 9.52306 11.2035ZM13.9048 11.1229C14.2166 11.2304 14.4908 11.4454 14.6414 11.6981L14.7865 11.9454V13.9616V15.9777L14.3027 16.0745C13.6252 16.2197 12.1306 16.2197 11.4532 16.0745L10.9693 15.9777V13.9616V11.9454L11.1145 11.6928C11.2596 11.4454 11.5069 11.2519 11.8295 11.1282C12.05 11.0422 13.6629 11.0368 13.9048 11.1229ZM18.55 11.1497C18.8779 11.2573 19.2489 11.6175 19.3242 11.8971C19.4371 12.2949 19.4048 12.4186 19.0661 12.9239C18.5177 13.7358 17.6844 14.5476 16.8672 15.0584C16.5607 15.2465 15.6951 15.682 15.6199 15.682C15.5769 15.682 15.5661 15.1336 15.5769 13.7519L15.593 11.8218L15.7596 11.6175C16.1467 11.139 16.3726 11.0637 17.4532 11.0583C18.093 11.0583 18.3511 11.0798 18.55 11.1497Z" fill="#106DB6"/>
<path d="M1.65728 7.78655C1.05513 7.86181 0.641149 8.20053 0.469105 8.74891C0.388459 9.01773 0.377707 9.31343 0.393836 11.7597C0.404588 13.2543 0.43147 15.5608 0.452976 16.8941C0.49061 19.206 0.501363 19.3296 0.614267 19.6629C0.888461 20.4479 1.11965 20.706 2.45298 21.7113C3.7003 22.6522 3.76482 22.7328 3.90998 23.5339C4.03364 24.206 4.03901 24.1683 3.80783 24.206C3.26482 24.292 3.10352 24.3511 2.94223 24.5178C2.66266 24.8135 2.65729 24.9479 2.85621 26.2275C2.95299 26.8565 3.06589 27.4425 3.09815 27.5286C3.17879 27.7275 3.46374 27.9425 3.69493 27.9748C3.7917 27.9909 4.56052 27.8942 5.40461 27.7598C6.2487 27.6253 8.02828 27.3458 9.35624 27.1361C10.6896 26.9264 11.8724 26.7275 11.9907 26.6952C12.2541 26.6307 12.5391 26.335 12.5874 26.0877C12.6089 25.9748 12.5444 25.4479 12.4261 24.7114C12.2057 23.3619 12.152 23.2382 11.7272 23.0769C11.5337 23.0017 11.4315 22.9963 11.1896 23.0339L10.8885 23.0877L10.867 22.921C10.8509 22.8296 10.8025 22.1361 10.7541 21.378C10.6466 19.5715 10.5283 19.1307 9.99603 18.5393C9.72721 18.2382 5.63042 15.1952 5.22181 14.9855C5.01214 14.8834 4.85084 14.8511 4.45299 14.835C4.13041 14.8188 3.95299 14.792 3.95299 14.7489C3.95837 14.3833 3.34009 8.82956 3.27557 8.65214C3.04976 8.03386 2.40997 7.68977 1.65728 7.78655ZM2.47449 8.75967C2.54976 8.84569 2.6089 8.94784 2.6089 8.98548C2.6089 9.01773 2.75406 10.4263 2.93148 12.1091L3.24869 15.1737L3.03901 15.3887C2.38847 16.0608 2.36696 16.964 2.97987 17.7758C3.05514 17.878 3.6788 18.378 4.36697 18.8887C5.98526 20.0984 6.00139 20.1092 6.17881 20.0608C6.36698 20.0178 6.50139 19.8135 6.45838 19.6414C6.41537 19.4748 6.32397 19.3995 4.82934 18.292C3.60353 17.3887 3.39923 17.1844 3.30783 16.792C3.22181 16.4156 3.36697 16.0823 3.75944 15.7705C3.93149 15.6307 4.01213 15.6038 4.32934 15.5877C4.65192 15.5661 4.73256 15.5823 4.94224 15.7006C5.28095 15.8887 9.03366 18.6576 9.31861 18.9318C9.58742 19.1844 9.78635 19.5393 9.867 19.9103C9.92076 20.1414 10.1466 23.1683 10.1143 23.2006C10.0928 23.2167 4.7917 24.0554 4.7702 24.0447C4.76482 24.0393 4.71106 23.7705 4.6573 23.4479C4.46912 22.3673 4.34547 22.1952 2.99062 21.1737C2.40997 20.7328 1.85621 20.2866 1.75943 20.1791C1.49061 19.8726 1.32395 19.4909 1.26481 19.0608C1.20567 18.5877 1.08739 9.64139 1.13577 9.25967C1.20029 8.7758 1.34545 8.60375 1.74868 8.53386C2.02825 8.48547 2.32395 8.57687 2.47449 8.75967ZM11.6842 24.8458C11.781 25.4372 11.8401 25.9318 11.8186 25.9533C11.7595 26.0124 3.84009 27.2544 3.79708 27.2167C3.72718 27.1415 3.43686 25.0877 3.49062 25.0501C3.55514 25.0071 11.3025 23.7597 11.4261 23.7705C11.4907 23.7759 11.5498 24.0232 11.6842 24.8458Z" fill="#106DB6"/>
<path d="M10.3617 24.7889C10.2972 24.8588 10.2434 24.9664 10.2434 25.0362C10.2434 25.1814 10.4692 25.418 10.609 25.418C10.7864 25.418 10.9961 25.2137 10.9961 25.0362C10.9961 24.7029 10.5929 24.5416 10.3617 24.7889Z" fill="#106DB6"/>
<path d="M23.5606 7.78749C23.0714 7.86276 22.6466 8.20147 22.48 8.65308C22.4154 8.8305 21.8025 14.3628 21.8025 14.7499C21.8025 14.7929 21.6251 14.8198 21.3025 14.8359C20.9047 14.852 20.7434 14.8843 20.5337 14.9864C20.1251 15.1907 16.0283 18.2391 15.7595 18.5402C15.2272 19.1316 15.109 19.5725 15.0014 21.3789C14.953 22.137 14.9046 22.8306 14.8885 22.922L14.867 23.0886L14.5659 23.0349C14.324 22.9972 14.2218 23.0026 14.0283 23.0779C13.5982 23.2445 13.5391 23.3736 13.3294 24.7015C13.2218 25.3467 13.152 25.9542 13.1681 26.051C13.2003 26.2714 13.3831 26.5241 13.5821 26.6263C13.7864 26.7338 21.8294 28.0134 22.0606 27.9757C22.281 27.9435 22.5337 27.7607 22.6359 27.5725C22.6789 27.4865 22.7864 26.9542 22.8724 26.379C22.9638 25.8037 23.0498 25.2822 23.0606 25.2123C23.0929 24.9919 22.98 24.68 22.8025 24.508C22.6574 24.3682 22.5391 24.3198 22.1843 24.2499C21.9477 24.2015 21.7488 24.137 21.7488 24.1048C21.7541 24.0725 21.7972 23.8144 21.8455 23.5349C21.9907 22.7338 22.0606 22.6531 23.2757 21.7392C24.609 20.7392 24.8724 20.4435 25.1359 19.6693C25.281 19.2338 25.2864 19.1047 25.3563 13.8036C25.4154 9.16921 25.4101 8.96491 25.1628 8.48104C24.8993 7.95415 24.2703 7.68534 23.5606 7.78749ZM24.3133 8.63695C24.4746 8.7176 24.5767 8.92728 24.6197 9.26061C24.6681 9.64233 24.5499 18.5886 24.4907 19.0617C24.4316 19.4918 24.2649 19.8736 23.9961 20.18C23.9047 20.2875 23.3509 20.7338 22.7703 21.1693C21.4047 22.2069 21.2918 22.3628 21.1036 23.4488C21.0445 23.7714 20.9907 24.0402 20.9853 24.0456C20.9692 24.0564 15.6573 23.2177 15.6412 23.1962C15.609 23.1639 15.8348 20.137 15.8885 19.9112C15.9692 19.5402 16.1681 19.1854 16.4369 18.9327C16.7219 18.6585 20.4746 15.8897 20.8133 15.7015C21.023 15.5832 21.1036 15.5671 21.4262 15.5886C21.7434 15.6047 21.824 15.6316 21.9961 15.7714C22.3886 16.0886 22.5176 16.3735 22.4423 16.7822C22.3724 17.1746 22.1466 17.3897 20.781 18.4058C20.0606 18.9435 19.4208 19.4435 19.3617 19.5241C19.2219 19.7069 19.2918 19.9273 19.5176 20.0349C19.652 20.0994 19.695 20.0994 19.8294 20.0241C20.1789 19.8198 22.3832 18.1639 22.6251 17.9219C23.3832 17.1531 23.4208 16.1209 22.7165 15.3897L22.5068 15.1746L22.824 12.1101C23.0015 10.4219 23.1466 9.0133 23.1466 8.98104C23.1466 8.85201 23.4423 8.57781 23.6305 8.54018C23.8402 8.49717 24.1359 8.5348 24.3133 8.63695ZM18.3617 24.4005C20.4746 24.7338 22.2326 25.0241 22.2649 25.0456C22.3025 25.0779 22.2703 25.4166 22.1574 26.137C22.066 26.7123 21.9746 27.1962 21.9584 27.2177C21.9369 27.2338 21.0928 27.1155 20.0767 26.9542C19.0606 26.7929 17.2703 26.508 16.1036 26.3252C14.9369 26.1424 13.9638 25.9757 13.9369 25.9542C13.8993 25.922 14.1788 23.9972 14.2487 23.8091C14.2649 23.7661 14.324 23.7499 14.3993 23.7661C14.4638 23.7822 16.2487 24.0671 18.3617 24.4005Z" fill="#106DB6"/>
<path d="M14.867 24.7696C14.7111 24.9255 14.7273 25.1675 14.8993 25.3019C15.0875 25.447 15.2165 25.4416 15.3778 25.2804C15.5445 25.1191 15.5498 24.9309 15.3886 24.7804C15.2326 24.6352 15.0068 24.6298 14.867 24.7696Z" fill="#106DB6"/>
</svg>
