<svg width="20" height="20" viewBox="0 0 20 20" fill="none" xmlns="http://www.w3.org/2000/svg">
<path d="M15.0779 8.98438C15.5093 8.98438 15.8591 8.6346 15.8591 8.20312C15.8591 7.77165 15.5093 7.42188 15.0779 7.42188C14.6464 7.42188 14.2966 7.77165 14.2966 8.20312C14.2966 8.6346 14.6464 8.98438 15.0779 8.98438Z" fill="#106DB6"/>
<path d="M16.8749 1.5625H15.8593V0.78125C15.8593 0.349766 15.5095 0 15.0781 0C14.6466 0 14.2968 0.349766 14.2968 0.78125V1.5625H10.7421V0.78125C10.7421 0.349766 10.3924 0 9.96089 0C9.52941 0 9.17964 0.349766 9.17964 0.78125V1.5625H5.66403V0.78125C5.66403 0.349766 5.31427 0 4.88279 0C4.45131 0 4.10154 0.349766 4.10154 0.78125V1.5625H3.12498C1.40187 1.5625 0 2.96438 0 4.6875V16.875C0 18.5981 1.40187 20 3.12498 20H9.10152C9.533 20 9.88276 19.6502 9.88276 19.2188C9.88276 18.7873 9.533 18.4375 9.10152 18.4375H3.12498C2.26343 18.4375 1.56249 17.7366 1.56249 16.875V4.6875C1.56249 3.82594 2.26343 3.125 3.12498 3.125H4.10154V3.90625C4.10154 4.33773 4.45131 4.6875 4.88279 4.6875C5.31427 4.6875 5.66403 4.33773 5.66403 3.90625V3.125H9.17964V3.90625C9.17964 4.33773 9.52941 4.6875 9.96089 4.6875C10.3924 4.6875 10.7421 4.33773 10.7421 3.90625V3.125H14.2968V3.90625C14.2968 4.33773 14.6466 4.6875 15.0781 4.6875C15.5095 4.6875 15.8593 4.33773 15.8593 3.90625V3.125H16.8749C17.7365 3.125 18.4374 3.82594 18.4374 4.6875V9.14062C18.4374 9.57211 18.7872 9.92188 19.2187 9.92188C19.6501 9.92188 19.9999 9.57211 19.9999 9.14062V4.6875C19.9999 2.96438 18.598 1.5625 16.8749 1.5625Z" fill="#106DB6"/>
<path d="M15.2737 10.5466C12.6674 10.5466 10.5471 12.6669 10.5471 15.2732C10.5471 17.8794 12.6674 19.9998 15.2737 19.9998C17.8799 19.9998 20.0002 17.8794 20.0002 15.2732C20.0002 12.6669 17.8799 10.5466 15.2737 10.5466ZM15.2737 18.4373C13.529 18.4373 12.1096 17.0179 12.1096 15.2732C12.1096 13.5285 13.529 12.1091 15.2737 12.1091C17.0183 12.1091 18.4377 13.5285 18.4377 15.2732C18.4377 17.0179 17.0183 18.4373 15.2737 18.4373Z" fill="#106DB6"/>
<path d="M16.406 14.4922H16.0544V13.6719C16.0544 13.2404 15.7047 12.8906 15.2732 12.8906C14.8417 12.8906 14.4919 13.2404 14.4919 13.6719V15.2734C14.4919 15.7049 14.8417 16.0547 15.2732 16.0547H16.406C16.8375 16.0547 17.1872 15.7049 17.1872 15.2734C17.1872 14.842 16.8375 14.4922 16.406 14.4922Z" fill="#106DB6"/>
<path d="M11.6792 8.98438C12.1107 8.98438 12.4604 8.6346 12.4604 8.20312C12.4604 7.77165 12.1107 7.42188 11.6792 7.42188C11.2477 7.42188 10.8979 7.77165 10.8979 8.20312C10.8979 8.6346 11.2477 8.98438 11.6792 8.98438Z" fill="#106DB6"/>
<path d="M8.28125 12.3828C8.71272 12.3828 9.06249 12.033 9.06249 11.6016C9.06249 11.1701 8.71272 10.8203 8.28125 10.8203C7.84978 10.8203 7.5 11.1701 7.5 11.6016C7.5 12.033 7.84978 12.3828 8.28125 12.3828Z" fill="#106DB6"/>
<path d="M4.88232 8.98438C5.31379 8.98438 5.66357 8.6346 5.66357 8.20312C5.66357 7.77165 5.31379 7.42188 4.88232 7.42188C4.45085 7.42188 4.10107 7.77165 4.10107 8.20312C4.10107 8.6346 4.45085 8.98438 4.88232 8.98438Z" fill="#106DB6"/>
<path d="M4.88232 12.3828C5.31379 12.3828 5.66357 12.033 5.66357 11.6016C5.66357 11.1701 5.31379 10.8203 4.88232 10.8203C4.45085 10.8203 4.10107 11.1701 4.10107 11.6016C4.10107 12.033 4.45085 12.3828 4.88232 12.3828Z" fill="#106DB6"/>
<path d="M4.88232 15.7815C5.31379 15.7815 5.66357 15.4317 5.66357 15.0002C5.66357 14.5688 5.31379 14.219 4.88232 14.219C4.45085 14.219 4.10107 14.5688 4.10107 15.0002C4.10107 15.4317 4.45085 15.7815 4.88232 15.7815Z" fill="#106DB6"/>
<path d="M8.28125 15.7815C8.71272 15.7815 9.06249 15.4317 9.06249 15.0002C9.06249 14.5688 8.71272 14.219 8.28125 14.219C7.84978 14.219 7.5 14.5688 7.5 15.0002C7.5 15.4317 7.84978 15.7815 8.28125 15.7815Z" fill="#106DB6"/>
<path d="M8.28125 8.98438C8.71272 8.98438 9.06249 8.6346 9.06249 8.20312C9.06249 7.77165 8.71272 7.42188 8.28125 7.42188C7.84978 7.42188 7.5 7.77165 7.5 8.20312C7.5 8.6346 7.84978 8.98438 8.28125 8.98438Z" fill="#106DB6"/>
</svg>
