<svg width="15" height="20" viewBox="0 0 15 20" fill="none" xmlns="http://www.w3.org/2000/svg">
<path d="M4.07568 0.0698242C3.86474 0.202637 0.0405273 4.06982 0.0131836 4.17529C0.00146484 4.22998 -0.0024414 7.33936 0.00146484 11.0894L0.0131836 17.9058L0.106934 18.0542C0.157715 18.1362 0.270996 18.2495 0.356933 18.3081L0.51709 18.4136L3.01709 18.4253L5.51709 18.437L6.26318 19.1714C7.0249 19.9292 7.11865 19.9956 7.41552 19.9956C7.7124 19.9956 7.80615 19.9292 8.56787 19.1714L9.31396 18.437L11.814 18.4253L14.314 18.4136L14.4741 18.3081C14.5601 18.2495 14.6733 18.1362 14.7241 18.0542L14.8179 17.9058V9.21045V0.519043L14.7124 0.358887C14.6538 0.272949 14.5405 0.159668 14.4585 0.108887L14.3101 0.0151367L9.25146 0.00341797C4.3374 -0.00439453 4.18896 -0.00439453 4.07568 0.0698242ZM14.0561 9.21436V17.6519H12.0796H10.103L10.2788 17.4604C10.8101 16.8628 10.4468 16.0894 9.63818 16.0894H9.37255L9.36083 14.7495L9.34912 13.4058L9.24365 13.2495C9.18505 13.1636 9.07177 13.0503 8.98974 12.9995L8.8413 12.9058H7.41162H5.98584L5.82568 13.0112C5.73974 13.0698 5.62646 13.1831 5.57568 13.2651C5.48193 13.4136 5.48193 13.4214 5.47021 14.7495L5.45849 16.0894H5.20459C4.79834 16.0894 4.51318 16.2534 4.36474 16.5776C4.22803 16.8706 4.29443 17.1675 4.55615 17.4604L4.72802 17.6519H2.75146H0.774902V11.1675V4.68701L2.46631 4.67529L4.15771 4.66357L4.31787 4.55811C4.40381 4.49951 4.51709 4.38623 4.56787 4.3042L4.66162 4.15576L4.67334 2.46436L4.68506 0.776855H9.36865H14.0561V9.21436ZM3.8999 2.63232V3.90186H2.62256H1.34131L2.61084 2.63232C3.31006 1.93311 3.88428 1.36279 3.88818 1.36279C3.89599 1.36279 3.8999 1.93311 3.8999 2.63232ZM8.5874 15.1128C8.5874 16.1479 8.59912 16.5815 8.63427 16.6558C8.7124 16.8276 8.84912 16.8706 9.3374 16.8706H9.7788L8.59521 18.0503L7.41552 19.2339L6.23584 18.0503L5.05224 16.8706H5.48974C5.74756 16.8706 5.97021 16.8511 6.02881 16.8237C6.23974 16.73 6.24365 16.6831 6.24365 15.1128V13.6675H7.41552H8.5874V15.1128Z" fill="#106DB6"/>
<path d="M2.5366 5.71435C2.27488 5.85888 2.28269 6.27295 2.55222 6.39404C2.63035 6.4292 3.80613 6.44092 7.4194 6.44092C11.4663 6.44092 12.2006 6.43311 12.2944 6.38623C12.5522 6.24951 12.5522 5.85107 12.2944 5.71435C12.1381 5.63623 2.68113 5.63232 2.5366 5.71435Z" fill="#106DB6"/>
<path d="M2.53667 7.47217C2.19682 7.65967 2.34136 8.19873 2.72808 8.19873C2.9273 8.19873 3.1187 8.00732 3.1187 7.81201C3.1187 7.51904 2.79448 7.32763 2.53667 7.47217Z" fill="#106DB6"/>
<path d="M4.29441 7.47217C4.03269 7.6167 4.0405 8.03076 4.31003 8.15186C4.38425 8.18701 5.36863 8.19873 8.29831 8.19873C11.5874 8.19873 12.2006 8.19092 12.2944 8.14404C12.5522 8.00733 12.5522 7.60889 12.2944 7.47217C12.1381 7.39405 4.43894 7.39405 4.29441 7.47217Z" fill="#106DB6"/>
<path d="M2.5366 9.22998C2.27488 9.37451 2.28269 9.78857 2.55222 9.90967C2.63035 9.94482 3.80613 9.95654 7.4194 9.95654C11.4663 9.95654 12.2006 9.94873 12.2944 9.90186C12.5522 9.76514 12.5522 9.3667 12.2944 9.22998C12.1381 9.15185 2.68113 9.14795 2.5366 9.22998Z" fill="#106DB6"/>
<path d="M2.5366 10.9878C2.27488 11.1323 2.28269 11.5464 2.55222 11.6675C2.69675 11.7339 7.44675 11.7339 7.59128 11.6675C7.70456 11.6167 7.80613 11.4526 7.80613 11.3237C7.80613 11.1948 7.70456 11.0308 7.59128 10.98C7.43503 10.9097 2.6655 10.9175 2.5366 10.9878Z" fill="#106DB6"/>
</svg>
