<svg width="16" height="20" viewBox="0 0 16 20" fill="none" xmlns="http://www.w3.org/2000/svg">
<mask id="path-1-inside-1_451_249" fill="white">
<path d="M14.8037 0H5.53288C5.37112 0 5.23999 0.131094 5.23999 0.292891C5.23999 0.454688 5.37112 0.585781 5.53288 0.585781H14.8037C15.0021 0.585781 15.1635 0.747227 15.1635 0.945586V11.815C15.1635 11.9768 15.2946 12.1079 15.4564 12.1079C15.6181 12.1079 15.7492 11.9768 15.7492 11.815V0.945547C15.7492 0.42418 15.3251 0 14.8037 0V0Z"/>
</mask>
<path d="M14.8037 0H5.53288C5.37112 0 5.23999 0.131094 5.23999 0.292891C5.23999 0.454688 5.37112 0.585781 5.53288 0.585781H14.8037C15.0021 0.585781 15.1635 0.747227 15.1635 0.945586V11.815C15.1635 11.9768 15.2946 12.1079 15.4564 12.1079C15.6181 12.1079 15.7492 11.9768 15.7492 11.815V0.945547C15.7492 0.42418 15.3251 0 14.8037 0V0Z" fill="#106DB6"/>
<path d="M14.8037 0H20.8037V-6H14.8037V0ZM14.8037 0H8.80366V6H14.8037V0ZM14.8037 -6H5.53288V6H14.8037V-6ZM5.53288 -6C2.05794 -6 -0.76001 -3.18314 -0.76001 0.292891H11.24C11.24 3.44533 8.68431 6 5.53288 6V-6ZM-0.76001 0.292891C-0.76001 3.76892 2.05794 6.58578 5.53288 6.58578V-5.41422C8.68431 -5.41422 11.24 -2.85954 11.24 0.292891H-0.76001ZM5.53288 6.58578H14.8037V-5.41422H5.53288V6.58578ZM14.8037 6.58578C11.6879 6.58578 9.16347 4.06051 9.16347 0.945586H21.1635C21.1635 -2.56606 18.3162 -5.41422 14.8037 -5.41422V6.58578ZM9.16347 0.945586V11.815H21.1635V0.945586H9.16347ZM9.16347 11.815C9.16347 15.2904 11.9809 18.1079 15.4564 18.1079V6.10789C18.6083 6.10789 21.1635 8.66308 21.1635 11.815H9.16347ZM15.4564 18.1079C18.9313 18.1079 21.7493 15.291 21.7493 11.815H9.74925C9.74925 8.66257 12.3049 6.10789 15.4564 6.10789V18.1079ZM21.7493 11.815V0.945547H9.74925V11.815H21.7493ZM21.7493 0.945547C21.7493 -2.88969 18.6386 -6 14.8037 -6V6C12.0115 6 9.74925 3.73805 9.74925 0.945547H21.7493ZM20.8037 0V0H8.80366V0H20.8037Z" fill="#106DB6" mask="url(#path-1-inside-1_451_249)"/>
<mask id="path-3-inside-2_451_249" fill="white">
<path d="M15.4563 12.8866C15.2945 12.8866 15.1634 13.0177 15.1634 13.1795V16.2521C15.1634 16.2521 12.7565 16.2504 12.756 16.2504C12.5496 16.2504 12.3555 16.3307 12.2095 16.4766C12.0634 16.6227 11.9829 16.8168 11.9829 17.0235V19.4143H1.19656C0.998164 19.4143 0.836758 19.2528 0.836758 19.0545V0.945547C0.836758 0.747187 0.998164 0.585742 1.19656 0.585742H4.17797C4.33973 0.585742 4.47086 0.454648 4.47086 0.292852C4.47086 0.131055 4.33973 0 4.17797 0H1.19656C0.675156 0 0.250977 0.42418 0.250977 0.945547V19.0544C0.250977 19.5758 0.675156 20 1.19656 20H12.2758C12.2998 20 12.3231 19.9968 12.3463 19.9911C12.3977 19.9783 12.4448 19.9521 12.4823 19.9148C12.4823 19.9148 15.6625 16.7531 15.6628 16.7528C15.7184 16.6975 15.7492 16.6241 15.7492 16.5452V13.1795C15.7492 13.0178 15.618 12.8866 15.4563 12.8866ZM12.5687 19.003V17.0235C12.5687 16.9734 12.5882 16.9263 12.6236 16.891C12.6589 16.8556 12.706 16.8362 12.756 16.8362H12.7561L14.7468 16.8375L12.5687 19.003Z"/>
</mask>
<path d="M15.4563 12.8866C15.2945 12.8866 15.1634 13.0177 15.1634 13.1795V16.2521C15.1634 16.2521 12.7565 16.2504 12.756 16.2504C12.5496 16.2504 12.3555 16.3307 12.2095 16.4766C12.0634 16.6227 11.9829 16.8168 11.9829 17.0235V19.4143H1.19656C0.998164 19.4143 0.836758 19.2528 0.836758 19.0545V0.945547C0.836758 0.747187 0.998164 0.585742 1.19656 0.585742H4.17797C4.33973 0.585742 4.47086 0.454648 4.47086 0.292852C4.47086 0.131055 4.33973 0 4.17797 0H1.19656C0.675156 0 0.250977 0.42418 0.250977 0.945547V19.0544C0.250977 19.5758 0.675156 20 1.19656 20H12.2758C12.2998 20 12.3231 19.9968 12.3463 19.9911C12.3977 19.9783 12.4448 19.9521 12.4823 19.9148C12.4823 19.9148 15.6625 16.7531 15.6628 16.7528C15.7184 16.6975 15.7492 16.6241 15.7492 16.5452V13.1795C15.7492 13.0178 15.618 12.8866 15.4563 12.8866ZM12.5687 19.003V17.0235C12.5687 16.9734 12.5882 16.9263 12.6236 16.891C12.6589 16.8556 12.706 16.8362 12.756 16.8362H12.7561L14.7468 16.8375L12.5687 19.003Z" fill="#106DB6"/>
<path d="M15.1634 16.2521L15.1592 22.2521L21.1634 22.2563V16.2521H15.1634ZM12.2095 16.4766L7.96916 12.2317L7.96802 12.2328L12.2095 16.4766ZM11.9829 19.4143V25.4143H17.9829V19.4143H11.9829ZM12.3463 19.9911L13.7899 25.8148L13.7942 25.8137L12.3463 19.9911ZM12.4823 19.9148L8.25207 15.6598L8.25074 15.6611L12.4823 19.9148ZM15.6628 16.7528L11.4321 12.4982L11.4261 12.5042L11.4202 12.5102L15.6628 16.7528ZM15.7492 13.1795H21.7492V13.1781L15.7492 13.1795ZM12.5687 19.003H6.56867V33.4286L16.7989 23.258L12.5687 19.003ZM12.6236 16.891L16.8616 21.1383L16.8662 21.1336L12.6236 16.891ZM12.7561 16.8362L12.7603 10.8362H12.7561V16.8362ZM14.7468 16.8375L18.977 21.0926L29.2821 10.8475L14.7509 10.8375L14.7468 16.8375ZM15.4563 6.88664C11.9813 6.88664 9.1634 9.7035 9.1634 13.1795H21.1634C21.1634 16.332 18.6077 18.8866 15.4563 18.8866V6.88664ZM9.1634 13.1795V16.2521H21.1634V13.1795H9.1634ZM15.1634 16.2521C15.1676 10.2521 15.1676 10.2521 15.1676 10.2521C15.1675 10.2521 15.1675 10.2521 15.1675 10.2521C15.1674 10.2521 15.1673 10.2521 15.1671 10.2521C15.1669 10.2521 15.1664 10.2521 15.1658 10.2521C15.1647 10.2521 15.163 10.2521 15.1607 10.2521C15.1561 10.2521 15.1494 10.2521 15.1406 10.2521C15.1229 10.252 15.0971 10.252 15.0642 10.252C14.9983 10.252 14.9043 10.2519 14.7915 10.2518C14.5658 10.2517 14.265 10.2514 13.9641 10.2512C13.3651 10.2508 12.759 10.2504 12.756 10.2504V22.2504C12.7535 22.2504 13.3511 22.2508 13.9557 22.2512C14.2566 22.2514 14.5575 22.2516 14.7831 22.2518C14.896 22.2519 14.99 22.252 15.0558 22.252C15.0887 22.252 15.1146 22.252 15.1322 22.2521C15.141 22.2521 15.1478 22.2521 15.1523 22.2521C15.1546 22.2521 15.1563 22.2521 15.1575 22.2521C15.158 22.2521 15.1585 22.2521 15.1588 22.2521C15.1589 22.2521 15.159 22.2521 15.1591 22.2521C15.1591 22.2521 15.1592 22.2521 15.1592 22.2521C15.1592 22.2521 15.1592 22.2521 15.1634 16.2521ZM12.756 10.2504C10.9588 10.2504 9.23975 10.9625 7.96916 12.2317L16.4499 20.7215C15.4713 21.699 14.1404 22.2504 12.756 22.2504V10.2504ZM7.96802 12.2328C6.69595 13.5042 5.98293 15.225 5.98293 17.0235H17.9829C17.9829 18.4087 17.4308 19.7411 16.451 20.7204L7.96802 12.2328ZM5.98293 17.0235V19.4143H17.9829V17.0235H5.98293ZM11.9829 13.4143H1.19656V25.4143H11.9829V13.4143ZM1.19656 13.4143C4.3123 13.4143 6.83676 15.9395 6.83676 19.0545H-5.16324C-5.16324 22.5661 -2.31597 25.4143 1.19656 25.4143V13.4143ZM6.83676 19.0545V0.945547H-5.16324V19.0545H6.83676ZM6.83676 0.945547C6.83676 4.06047 4.3123 6.58574 1.19656 6.58574V-5.41426C-2.31597 -5.41426 -5.16324 -2.5661 -5.16324 0.945547H6.83676ZM1.19656 6.58574H4.17797V-5.41426H1.19656V6.58574ZM4.17797 6.58574C7.65293 6.58574 10.4709 3.76886 10.4709 0.292852H-1.52914C-1.52914 -2.85957 1.02652 -5.41426 4.17797 -5.41426V6.58574ZM10.4709 0.292852C10.4709 -3.1842 7.65189 -6 4.17797 -6V6C1.02757 6 -1.52914 3.44631 -1.52914 0.292852H10.4709ZM4.17797 -6H1.19656V6H4.17797V-6ZM1.19656 -6C-2.63839 -6 -5.74902 -2.88969 -5.74902 0.945547H6.25098C6.25098 3.73805 3.9887 6 1.19656 6V-6ZM-5.74902 0.945547V19.0544H6.25098V0.945547H-5.74902ZM-5.74902 19.0544C-5.74902 22.8895 -2.63855 26 1.19656 26V14C3.98887 14 6.25098 16.2621 6.25098 19.0544H-5.74902ZM1.19656 26H12.2758V14H1.19656V26ZM12.2758 26C12.8432 26 13.353 25.9231 13.7899 25.8148L10.9026 14.1673C11.2932 14.0705 11.7564 14 12.2758 14V26ZM13.7942 25.8137C14.8701 25.5462 15.8871 24.991 16.7139 24.1685L8.25074 15.6611C9.00246 14.9133 9.92517 14.4104 10.8984 14.1684L13.7942 25.8137ZM12.4823 19.9148C16.7125 24.1698 16.7126 24.1698 16.7126 24.1698C16.7126 24.1698 16.7126 24.1697 16.7127 24.1697C16.7128 24.1696 16.7129 24.1694 16.7131 24.1692C16.7135 24.1689 16.7141 24.1683 16.7148 24.1675C16.7164 24.166 16.7187 24.1637 16.7217 24.1607C16.7277 24.1548 16.7366 24.1459 16.7483 24.1343C16.7715 24.1111 16.8057 24.0772 16.8492 24.034C16.9361 23.9475 17.0604 23.824 17.2095 23.6758C17.5076 23.3794 17.9051 22.9842 18.3027 22.5889C19.0895 21.8067 19.897 21.0039 19.9055 20.9955L11.4202 12.5102C11.4283 12.5021 10.6456 13.2802 9.8422 14.0789C9.44466 14.4741 9.04712 14.8694 8.74898 15.1658C8.5999 15.314 8.47568 15.4375 8.38872 15.5239C8.34524 15.5672 8.31108 15.6011 8.28778 15.6243C8.27614 15.6359 8.26721 15.6447 8.26119 15.6507C8.25818 15.6537 8.2559 15.656 8.25437 15.6575C8.25361 15.6583 8.25303 15.6588 8.25265 15.6592C8.25246 15.6594 8.2523 15.6596 8.25221 15.6597C8.25216 15.6597 8.25213 15.6597 8.2521 15.6598C8.25208 15.6598 8.25207 15.6598 12.4823 19.9148ZM19.8935 21.0074C21.0751 19.8324 21.7492 18.2304 21.7492 16.5452H9.74922C9.74922 15.0178 10.3617 13.5627 11.4321 12.4982L19.8935 21.0074ZM21.7492 16.5452V13.1795H9.74922V16.5452H21.7492ZM21.7492 13.1781C21.7484 9.70399 18.932 6.88664 15.4563 6.88664V18.8866C12.3041 18.8866 9.74998 16.3316 9.74922 13.181L21.7492 13.1781ZM18.5687 19.003V17.0235H6.56867V19.003H18.5687ZM18.5687 17.0235C18.5687 18.5636 17.9566 20.0457 16.8615 21.1383L8.38564 12.6437C7.21974 13.807 6.56867 15.3832 6.56867 17.0235H18.5687ZM16.8662 21.1336C15.7742 22.2257 14.2942 22.8362 12.756 22.8362V10.8362C11.1178 10.8362 9.54373 11.4856 8.38095 12.6483L16.8662 21.1336ZM12.756 22.8362H12.7561V10.8362H12.756V22.8362ZM12.752 22.8362L14.7427 22.8375L14.7509 10.8375L12.7603 10.8362L12.752 22.8362ZM10.5166 12.5825L8.33845 14.7479L16.7989 23.258L18.977 21.0926L10.5166 12.5825Z" fill="#106DB6" mask="url(#path-3-inside-2_451_249)"/>
<path d="M7.78405 10.1762H7.28405V10.6762V13.8266C7.28405 14.0432 7.10857 14.2186 6.89202 14.2186C6.67552 14.2186 6.5 14.0431 6.5 13.8266V5.89202C6.5 5.67544 6.67547 5.5 6.89202 5.5H10.108C10.3245 5.5 10.5 5.67544 10.5 5.89202C10.5 6.1086 10.3245 6.28405 10.108 6.28405H7.78405H7.28405V6.78405V8.89216V9.39216H7.78405H9.85255C10.0691 9.39216 10.2446 9.56768 10.2446 9.78418C10.2446 10.0008 10.0691 10.1762 9.85255 10.1762H7.78405Z" fill="#106DB6" stroke="#106DB6"/>
</svg>
