<svg width="20" height="20" viewBox="0 0 20 20" fill="none" xmlns="http://www.w3.org/2000/svg">
<path d="M19.3651 8.78181L10.4658 0.189532C10.2066 -0.0631773 9.79309 -0.0631773 9.53383 0.189532L0.634917 8.78147C0.503908 8.90791 0.429932 9.08216 0.429932 9.26425C0.429932 9.63484 0.730364 9.93523 1.10092 9.93523H2.28352V19.329C2.28352 19.6996 2.58391 20 2.95451 20H7.65139C8.02198 20 8.32237 19.6996 8.32237 19.329V13.9611H11.6773V19.329C11.6773 19.6996 11.9777 20 12.3483 20H17.0452C17.4157 20 17.7161 19.6996 17.7161 19.329V9.93523H18.8987C19.0807 9.93523 19.2547 9.86138 19.3812 9.73058C19.6387 9.46411 19.6315 9.03934 19.3651 8.78181ZM17.7161 9.26425C17.3455 9.26425 17.0452 9.56464 17.0452 9.93523V19.329H12.3483V13.9611C12.3483 13.5905 12.0479 13.2901 11.6773 13.2901H8.32237C7.95178 13.2901 7.65139 13.5905 7.65139 13.9611V19.329H2.95451V9.93523C2.95451 9.56464 2.65412 9.26425 2.28352 9.26425H1.10092L9.99983 0.672304L18.9021 9.26425H17.7161Z" fill="#106DB6"/>
</svg>
