<svg width="70" height="70" viewBox="0 0 70 70" fill="none" xmlns="http://www.w3.org/2000/svg">
<path d="M56.2168 42.9998H58.2676V47.5041H56.2168V42.9998Z" fill="#99E6FC"/>
<path d="M56.2168 56.3433H58.2676V60.8476H56.2168V56.3433Z" fill="#99E6FC"/>
<path d="M57.2422 18.5884C56.6758 18.5884 56.2168 19.0475 56.2168 19.6138V21.2544C56.2168 21.8207 56.6758 22.2798 57.2422 22.2798C57.8086 22.2798 58.2676 21.8207 58.2676 21.2544V19.6138C58.2676 19.0475 57.8085 18.5884 57.2422 18.5884Z" fill="#99E6FC"/>
<path d="M53.0958 13.3525H51.0632C51.0918 13.7203 51.1078 14.09 51.1078 14.4579C51.1078 14.7725 51.0963 15.0885 51.0754 15.4033H53.0958C53.6623 15.4033 54.1212 14.9442 54.1212 14.3779C54.1212 13.8116 53.6623 13.3525 53.0958 13.3525Z" fill="#99E6FC"/>
<path d="M57.2205 17.2223C57.2677 17.2223 57.3153 17.219 57.3633 17.2123C57.9242 17.1342 58.3155 16.6163 58.2376 16.0554C58.1237 15.237 57.699 14.5078 57.0418 14.0023C56.5927 13.6569 55.949 13.741 55.6038 14.1898C55.2586 14.6387 55.3424 15.2825 55.7913 15.6278C56.0196 15.8034 56.167 16.0556 56.2062 16.3381C56.2777 16.8511 56.717 17.2223 57.2205 17.2223Z" fill="#99E6FC"/>
<path d="M57.2422 28.7056C56.6758 28.7056 56.2168 29.1647 56.2168 29.731V31.3716C56.2168 31.9379 56.6758 32.397 57.2422 32.397C57.8086 32.397 58.2676 31.9379 58.2676 31.3716V29.731C58.2676 29.1647 57.8085 28.7056 57.2422 28.7056Z" fill="#99E6FC"/>
<path d="M57.2422 23.647C56.6758 23.647 56.2168 24.1061 56.2168 24.6724V26.313C56.2168 26.8793 56.6758 27.3384 57.2422 27.3384C57.8086 27.3384 58.2676 26.8793 58.2676 26.313V24.6724C58.2676 24.1061 57.8085 23.647 57.2422 23.647Z" fill="#99E6FC"/>
<path d="M25.2 64.2419H23.5593C22.993 64.2419 22.5339 64.701 22.5339 65.2673C22.5339 65.8336 22.993 66.2927 23.5593 66.2927H25.2C25.7662 66.2927 26.2253 65.8336 26.2253 65.2673C26.2253 64.701 25.7662 64.2419 25.2 64.2419Z" fill="#99E6FC"/>
<path d="M20.1415 64.242H20.0762C19.8019 64.242 19.5401 64.1396 19.3389 63.9539C18.923 63.5697 18.2741 63.5956 17.8899 64.0118C17.5057 64.4278 17.5317 65.0765 17.9477 65.4607C18.5289 65.9972 19.2848 66.2928 20.0762 66.2928H20.1415C20.7078 66.2928 21.1669 65.8337 21.1669 65.2674C21.1669 64.7011 20.7078 64.242 20.1415 64.242Z" fill="#99E6FC"/>
<path d="M18.9888 61.4814V59.8408C18.9888 59.2745 18.5297 58.8154 17.9634 58.8154C17.3971 58.8154 16.938 59.2745 16.938 59.8408V61.4814C16.938 62.0477 17.3971 62.5068 17.9634 62.5068C18.5297 62.5068 18.9888 62.0477 18.9888 61.4814Z" fill="#99E6FC"/>
<path d="M17.9634 57.4482C18.5297 57.4482 18.9888 56.9891 18.9888 56.4229V54.7822C18.9888 54.2159 18.5297 53.7568 17.9634 53.7568C17.3971 53.7568 16.938 54.2159 16.938 54.7822V56.4229C16.938 56.9891 17.3971 57.4482 17.9634 57.4482Z" fill="#99E6FC"/>
<path d="M35.3171 64.2419H33.6765C33.1102 64.2419 32.6511 64.701 32.6511 65.2673C32.6511 65.8336 33.1102 66.2927 33.6765 66.2927H35.3171C35.8836 66.2927 36.3425 65.8336 36.3425 65.2673C36.3425 64.701 35.8836 64.2419 35.3171 64.2419Z" fill="#99E6FC"/>
<path d="M44.6211 64.2419H43.7937C43.2273 64.2419 42.7683 64.701 42.7683 65.2673C42.7683 65.8336 43.2273 66.2927 43.7937 66.2927H44.6211V64.2419Z" fill="#99E6FC"/>
<path d="M40.3757 64.2419H38.7351C38.1687 64.2419 37.7097 64.701 37.7097 65.2673C37.7097 65.8336 38.1687 66.2927 38.7351 66.2927H40.3757C40.9422 66.2927 41.4011 65.8336 41.4011 65.2673C41.4011 64.701 40.9422 64.2419 40.3757 64.2419Z" fill="#99E6FC"/>
<path d="M30.2585 64.2419H28.6179C28.0516 64.2419 27.5925 64.701 27.5925 65.2673C27.5925 65.8336 28.0516 66.2927 28.6179 66.2927H30.2585C30.8248 66.2927 31.2839 65.8336 31.2839 65.2673C31.2839 64.701 30.8248 64.2419 30.2585 64.2419Z" fill="#99E6FC"/>
<path d="M22.7414 51.5967C22.7414 47.1109 26.3908 43.4616 30.8766 43.4616C30.8857 43.4616 30.8946 43.4623 30.9036 43.4623V23.7809L29.1406 25.5439C29.0124 25.6721 28.8422 25.7427 28.661 25.7427C28.5112 25.7427 28.37 25.6943 28.2527 25.6024C27.3469 24.8932 26.5279 24.0744 25.8188 23.1685C25.6111 22.9033 25.6364 22.5216 25.8773 22.2805L27.9304 20.2274C28.2249 19.9331 28.2909 19.4842 28.0947 19.1107C27.8146 18.5774 27.5818 18.0146 27.4025 17.4385C27.2772 17.0359 26.9134 16.7654 26.4969 16.7654H23.5922C23.2515 16.7654 22.9638 16.5135 22.9231 16.1793C22.8539 15.6107 22.8188 15.0316 22.8188 14.4579C22.8188 14.4312 22.8199 14.4046 22.82 14.3779H6.8559C6.48238 14.3779 6.12418 14.5263 5.86004 14.7904L0.41248 20.238C0.14834 20.5021 0 20.8603 0 21.2338V51.6756C0 52.4536 0.630547 53.0841 1.40848 53.0841H22.8802C22.7905 52.6015 22.7414 52.1049 22.7414 51.5967Z" fill="#FEF1DA"/>
<path d="M5.84514 51.6755V21.2337C5.84514 20.8602 5.99348 20.5019 6.25762 20.2377L11.7052 14.7902C11.9693 14.526 12.3275 14.3777 12.701 14.3777H6.8559C6.48238 14.3777 6.12418 14.526 5.86004 14.7902L0.41248 20.2379C0.14834 20.502 0 20.8602 0 21.2337V51.6755C0 52.4534 0.630547 53.084 1.40848 53.084H7.25361C6.47568 53.084 5.84514 52.4534 5.84514 51.6755Z" fill="#FAE2C0"/>
<path d="M22.7771 25.2854H8.12671C7.56042 25.2854 7.10132 24.8263 7.10132 24.26C7.10132 23.6937 7.56042 23.2346 8.12671 23.2346H22.7771C23.3434 23.2346 23.8025 23.6937 23.8025 24.26C23.8025 24.8263 23.3434 25.2854 22.7771 25.2854Z" fill="#D8AA5E"/>
<path d="M22.7771 30.4031H8.12671C7.56042 30.4031 7.10132 29.944 7.10132 29.3777C7.10132 28.8114 7.56042 28.3523 8.12671 28.3523H22.7771C23.3434 28.3523 23.8025 28.8114 23.8025 29.3777C23.8025 29.944 23.3434 30.4031 22.7771 30.4031Z" fill="#D8AA5E"/>
<path d="M22.7771 35.4983H8.12671C7.56042 35.4983 7.10132 35.0392 7.10132 34.4729C7.10132 33.9066 7.56042 33.4475 8.12671 33.4475H22.7771C23.3434 33.4475 23.8025 33.9066 23.8025 34.4729C23.8025 35.0392 23.3434 35.4983 22.7771 35.4983Z" fill="#D8AA5E"/>
<path d="M22.7771 40.6392H8.12671C7.56042 40.6392 7.10132 40.1801 7.10132 39.6138C7.10132 39.0475 7.56042 38.5884 8.12671 38.5884H22.7771C23.3434 38.5884 23.8025 39.0475 23.8025 39.6138C23.8025 40.1801 23.3434 40.6392 22.7771 40.6392Z" fill="#D8AA5E"/>
<path d="M14.6941 45.7571H8.12671C7.56042 45.7571 7.10132 45.298 7.10132 44.7317C7.10132 44.1654 7.56042 43.7063 8.12671 43.7063H14.6941C15.2604 43.7063 15.7195 44.1654 15.7195 44.7317C15.7195 45.298 15.2604 45.7571 14.6941 45.7571Z" fill="#D8AA5E"/>
<path d="M30.8766 59.8685C35.4451 59.8685 39.1485 56.165 39.1485 51.5966C39.1485 47.0282 35.4451 43.3247 30.8766 43.3247C26.3082 43.3247 22.6047 47.0282 22.6047 51.5966C22.6047 56.165 26.3082 59.8685 30.8766 59.8685Z" fill="#05E39C"/>
<path d="M27.3295 51.5966C27.3295 47.8493 29.822 44.6857 33.239 43.669C32.4902 43.4461 31.6978 43.3247 30.8766 43.3247C26.3082 43.3247 22.6047 47.0281 22.6047 51.5966C22.6047 56.1651 26.3082 59.8685 30.8766 59.8685C31.6978 59.8685 32.4902 59.7471 33.239 59.5242C29.822 58.5075 27.3295 55.3439 27.3295 51.5966Z" fill="#0ED290"/>
<path d="M30.3513 54.9609C30.089 54.9609 29.8265 54.8608 29.6263 54.6605L26.4131 51.4474C26.0127 51.0469 26.0127 50.3977 26.4131 49.9973C26.8136 49.5969 27.4629 49.5969 27.8632 49.9973L30.3513 52.4855L33.8904 48.9464C34.2909 48.5459 34.94 48.5458 35.3405 48.9464C35.7409 49.3468 35.7409 49.9961 35.3405 50.3964L31.0763 54.6607C30.876 54.8608 30.6137 54.9609 30.3513 54.9609Z" fill="white"/>
<path d="M46.0928 8.78512L48.1459 6.73201C48.4341 6.44381 48.4665 5.98402 48.2153 5.66314C47.4989 4.74795 46.6734 3.9223 45.7581 3.2059C45.4372 2.95475 44.9774 2.98715 44.6892 3.27535L42.6361 5.32846C42.3832 5.58139 41.9964 5.63471 41.6796 5.46846C41.1412 5.18572 40.5744 4.95015 39.9844 4.76668C39.643 4.66058 39.4075 4.34914 39.4075 3.99176V1.08676C39.4075 0.679336 39.1057 0.33125 38.7013 0.282031C38.1316 0.212715 37.5517 0.176758 36.9634 0.176758C36.3751 0.176758 35.795 0.212715 35.2254 0.282031C34.821 0.33125 34.5191 0.679336 34.5191 1.08676V3.99162C34.5191 4.34914 34.2835 4.66045 33.9421 4.76654C33.3522 4.95002 32.7852 5.18558 32.247 5.46832C31.9302 5.63471 31.5434 5.58139 31.2905 5.32832L29.2374 3.27521C28.9492 2.98701 28.4894 2.95461 28.1685 3.20576C27.2533 3.92217 26.4277 4.74767 25.7113 5.66301C25.4601 5.98389 25.4925 6.44367 25.7807 6.73187L27.8338 8.78498C28.0868 9.03791 28.1401 9.42469 27.9738 9.74146C27.6911 10.2799 27.4555 10.8467 27.272 11.4366C27.166 11.778 26.8545 12.0136 26.4971 12.0136H23.5921C23.1847 12.0136 22.8366 12.3153 22.7874 12.7197C22.7181 13.2895 22.6821 13.8694 22.6821 14.4577C22.6821 15.0461 22.7181 15.6261 22.7874 16.1957C22.8366 16.6001 23.1847 16.9018 23.5921 16.9018H26.497C26.8545 16.9018 27.1658 17.1374 27.2719 17.4788C27.4554 18.0687 27.691 18.6357 27.9737 19.174C28.1401 19.4907 28.0868 19.8775 27.8337 20.1304L25.7806 22.1835C25.4924 22.4718 25.46 22.9315 25.7111 23.2524C26.4275 24.1676 27.253 24.9933 28.1684 25.7097C28.4893 25.9608 28.949 25.9284 29.2372 25.6402L31.2904 23.5871C31.5433 23.3342 31.9301 23.2809 32.2468 23.4471C32.7852 23.7298 33.3521 23.9654 33.942 24.1489C34.2834 24.255 34.519 24.5664 34.519 24.9238V27.8287C34.519 28.2361 34.8207 28.5842 35.2253 28.6334C35.795 28.7027 36.3749 28.7387 36.9632 28.7387C37.5515 28.7387 38.1316 28.7027 38.7012 28.6334C39.1056 28.5842 39.4073 28.2361 39.4073 27.8287V24.9238C39.4073 24.5663 39.6429 24.255 39.9843 24.1489C40.5742 23.9654 41.1412 23.7298 41.6795 23.4471C41.9963 23.2807 42.383 23.334 42.636 23.5871L44.6891 25.6402C44.9773 25.9284 45.4371 25.9608 45.7579 25.7097C46.6731 24.9933 47.4988 24.1677 48.2152 23.2524C48.4663 22.9315 48.4339 22.4718 48.1457 22.1835L46.0926 20.1304C45.8397 19.8775 45.7864 19.4907 45.9526 19.174C46.2354 18.6356 46.4709 18.0687 46.6544 17.4788C46.7605 17.1374 47.0719 16.9018 47.4293 16.9018H50.3342C50.7416 16.9018 51.0897 16.6001 51.1389 16.1957C51.2082 15.626 51.2442 15.046 51.2442 14.4577C51.2442 13.8693 51.2082 13.2893 51.1389 12.7197C51.0897 12.3153 50.7416 12.0136 50.3342 12.0136H47.4293C47.0718 12.0136 46.7605 11.778 46.6544 11.4366C46.4709 10.8467 46.2354 10.2797 45.9526 9.74146C45.7865 9.42482 45.8398 9.03804 46.0928 8.78512Z" fill="#7CA1B1"/>
<path d="M34.6483 21.5153C31.6826 20.5399 29.5346 17.7458 29.5346 14.4578C29.5346 11.1699 31.6826 8.37578 34.6483 7.40043C35.9078 5.92906 37.5534 4.79799 39.4285 4.1643C39.4161 4.10824 39.4075 4.05096 39.4075 3.99162V1.08676C39.4075 0.679336 39.1057 0.33125 38.7013 0.282031C38.1316 0.212715 37.5517 0.176758 36.9634 0.176758C36.3751 0.176758 35.795 0.212715 35.2254 0.282031C34.821 0.33125 34.5191 0.679336 34.5191 1.08676V3.99162C34.5191 4.34914 34.2835 4.66045 33.9421 4.76654C33.3522 4.95002 32.7852 5.18558 32.247 5.46832C31.9302 5.63471 31.5434 5.58139 31.2905 5.32832L29.2374 3.27521C28.9492 2.98701 28.4894 2.95461 28.1685 3.20576C27.2533 3.92217 26.4277 4.74767 25.7113 5.66301C25.4601 5.98389 25.4925 6.44367 25.7807 6.73187L27.8338 8.78498C28.0868 9.03791 28.1401 9.42469 27.9738 9.74146C27.6911 10.2799 27.4555 10.8467 27.272 11.4366C27.166 11.778 26.8545 12.0136 26.4971 12.0136H23.5921C23.1847 12.0136 22.8366 12.3153 22.7874 12.7197C22.7181 13.2895 22.6821 13.8694 22.6821 14.4577C22.6821 15.046 22.7181 15.6261 22.7874 16.1957C22.8366 16.6001 23.1847 16.9018 23.5921 16.9018H26.497C26.8545 16.9018 27.1658 17.1374 27.2719 17.4788C27.4554 18.0687 27.691 18.6357 27.9737 19.174C28.1401 19.4907 28.0868 19.8775 27.8337 20.1304L25.7806 22.1835C25.4924 22.4718 25.46 22.9315 25.7111 23.2524C26.4275 24.1676 27.253 24.9933 28.1684 25.7097C28.4893 25.9608 28.949 25.9284 29.2372 25.6402L31.2904 23.5871C31.5433 23.3342 31.9301 23.2809 32.2468 23.4471C32.7852 23.7298 33.3521 23.9654 33.942 24.1489C34.2834 24.255 34.519 24.5664 34.519 24.9238V27.8287C34.519 28.2361 34.8207 28.5842 35.2253 28.6334C35.795 28.7027 36.3749 28.7387 36.9632 28.7387C37.5515 28.7387 38.1316 28.7027 38.7012 28.6334C39.1056 28.5842 39.4073 28.2361 39.4073 27.8287V24.9238C39.4073 24.8645 39.4161 24.8072 39.4284 24.7511C37.5536 24.1177 35.9078 22.9866 34.6483 21.5153Z" fill="#678D98"/>
<path d="M36.9633 20.8611C40.4997 20.8611 43.3665 17.9943 43.3665 14.4579C43.3665 10.9215 40.4997 8.05469 36.9633 8.05469C33.4269 8.05469 30.5601 10.9215 30.5601 14.4579C30.5601 17.9943 33.4269 20.8611 36.9633 20.8611Z" fill="#3E5959"/>
<path d="M34.1549 14.4579C34.1549 11.5458 36.0996 9.08938 38.7607 8.31227C38.1903 8.14574 37.5875 8.05469 36.9633 8.05469C33.4268 8.05469 30.5601 10.9215 30.5601 14.4579C30.5601 17.9943 33.4269 20.8611 36.9633 20.8611C37.5875 20.8611 38.1903 20.7701 38.7607 20.6036C36.0996 19.8266 34.1549 17.37 34.1549 14.4579Z" fill="#384949"/>
<path d="M36.9633 21.8865C32.8672 21.8865 29.5347 18.554 29.5347 14.4579C29.5347 10.3618 32.8672 7.0293 36.9633 7.0293C41.0594 7.0293 44.3919 10.3618 44.3919 14.4579C44.3919 18.554 41.0594 21.8865 36.9633 21.8865ZM36.9633 9.08008C33.998 9.08008 31.5854 11.4926 31.5854 14.4579C31.5854 17.4232 33.998 19.8357 36.9633 19.8357C39.9286 19.8357 42.3411 17.4232 42.3411 14.4579C42.3411 11.4926 39.9287 9.08008 36.9633 9.08008Z" fill="#8EBAC5"/>
<path d="M36.9632 16.681C38.191 16.681 39.1864 15.6856 39.1864 14.4578C39.1864 13.23 38.191 12.2346 36.9632 12.2346C35.7353 12.2346 34.74 13.23 34.74 14.4578C34.74 15.6856 35.7353 16.681 36.9632 16.681Z" fill="white"/>
<path d="M69.2957 43.1365H45.1886C44.7996 43.1365 44.4844 42.8212 44.4844 42.4323V34.7282C44.4844 34.3392 44.7996 34.0239 45.1886 34.0239H69.2957C69.6846 34.0239 69.9999 34.3392 69.9999 34.7282V42.4324C69.9999 42.8212 69.6846 43.1365 69.2957 43.1365Z" fill="#01D0FB"/>
<path d="M49.2252 42.4324V34.7282C49.2252 34.3392 49.5405 34.0239 49.9295 34.0239H45.1886C44.7996 34.0239 44.4844 34.3392 44.4844 34.7282V42.4324C44.4844 42.8214 44.7996 43.1366 45.1886 43.1366H49.9295C49.5405 43.1366 49.2252 42.8212 49.2252 42.4324Z" fill="#01C0FA"/>
<path d="M64.9879 39.6055H49.4963C48.9299 39.6055 48.4709 39.1464 48.4709 38.5801C48.4709 38.0138 48.9299 37.5547 49.4963 37.5547H64.9879C65.5544 37.5547 66.0133 38.0138 66.0133 38.5801C66.0133 39.1464 65.5542 39.6055 64.9879 39.6055Z" fill="#99E6FC"/>
<path d="M69.2957 56.4799H45.1886C44.7996 56.4799 44.4844 56.1646 44.4844 55.7757V48.0714C44.4844 47.6825 44.7996 47.3672 45.1886 47.3672H69.2957C69.6846 47.3672 69.9999 47.6825 69.9999 48.0714V55.7757C69.9999 56.1646 69.6846 56.4799 69.2957 56.4799Z" fill="#FED402"/>
<path d="M49.2252 55.7757V48.0714C49.2252 47.6825 49.5405 47.3672 49.9295 47.3672H45.1886C44.7996 47.3672 44.4844 47.6825 44.4844 48.0714V55.7757C44.4844 56.1646 44.7996 56.4799 45.1886 56.4799H49.9295C49.5405 56.4799 49.2252 56.1646 49.2252 55.7757Z" fill="#FAC600"/>
<path d="M64.9879 52.9492H49.4963C48.9299 52.9492 48.4709 52.4901 48.4709 51.9238C48.4709 51.3575 48.9299 50.8984 49.4963 50.8984H64.9879C65.5544 50.8984 66.0133 51.3575 66.0133 51.9238C66.0133 52.4901 65.5542 52.9492 64.9879 52.9492Z" fill="#C99C56"/>
<path d="M69.2957 69.8237H45.1886C44.7996 69.8237 44.4844 69.5084 44.4844 69.1194V61.4152C44.4844 61.0262 44.7996 60.7109 45.1886 60.7109H69.2957C69.6846 60.7109 69.9999 61.0262 69.9999 61.4152V69.1194C69.9999 69.5084 69.6846 69.8237 69.2957 69.8237Z" fill="#FD5426"/>
<path d="M49.2252 69.1194V61.4152C49.2252 61.0262 49.5405 60.7109 49.9295 60.7109H45.1886C44.7996 60.7109 44.4844 61.0262 44.4844 61.4152V69.1194C44.4844 69.5084 44.7996 69.8237 45.1886 69.8237H49.9295C49.5405 69.8237 49.2252 69.5084 49.2252 69.1194Z" fill="#EF4424"/>
<path d="M64.9879 66.2927H49.4963C48.9299 66.2927 48.4709 65.8336 48.4709 65.2673C48.4709 64.701 48.9299 64.2419 49.4963 64.2419H64.9879C65.5544 64.2419 66.0133 64.701 66.0133 65.2673C66.0133 65.8336 65.5542 66.2927 64.9879 66.2927Z" fill="#D73D24"/>
</svg>
