<svg width="70" height="70" viewBox="0 0 70 70" fill="none" xmlns="http://www.w3.org/2000/svg">
<path d="M4.375 2.1875H52.5C54.9161 2.1875 56.875 4.14642 56.875 6.5625V65.625C56.875 68.0411 54.9161 70 52.5 70H4.375C1.95892 70 0 68.0411 0 65.625V6.5625C0 4.14642 1.95892 2.1875 4.375 2.1875Z" fill="#FFBF40"/>
<path d="M4.375 51.2183V6.5625H52.5V65.625H18.7817L4.375 51.2183Z" fill="white"/>
<path d="M18.7817 51.2183V65.625L4.375 51.2183H18.7817Z" fill="#E76E54"/>
<path d="M17.5 8.75V0H39.375V8.75C39.375 11.1661 37.4161 13.125 35 13.125H21.875C19.4589 13.125 17.5 11.1661 17.5 8.75Z" fill="#E76E54"/>
<path d="M70 50.3125C70 61.1854 61.1854 70 50.3125 70C39.4396 70 30.625 61.1854 30.625 50.3125C30.625 39.4396 39.4396 30.625 50.3125 30.625C61.1854 30.625 70 39.4396 70 50.3125Z" fill="#47A920"/>
<path d="M45.8019 58.741L41.5626 54.4995C40.7086 53.645 40.7086 52.2602 41.5626 51.4063C42.4165 50.5523 43.8014 50.5523 44.6558 51.4063L46.0732 52.8215L55.9805 44.5639C56.9087 43.7895 58.2893 43.915 59.0626 44.8438C59.837 45.772 59.7115 47.1525 58.7827 47.9258L45.8019 58.741Z" fill="white"/>
<path d="M24.0625 17.5H41.5625C42.7705 17.5 43.75 18.4795 43.75 19.6875C43.75 20.8955 42.7705 21.875 41.5625 21.875H24.0625C22.8545 21.875 21.875 20.8955 21.875 19.6875C21.875 18.4795 22.8545 17.5 24.0625 17.5Z" fill="#28B2DB"/>
<path d="M13.125 17.5H17.5V21.875H13.125V17.5Z" fill="#28B2DB"/>
<path d="M13.125 26.25H17.5V30.625H13.125V26.25Z" fill="#28B2DB"/>
<path d="M13.125 35H17.5V39.375H13.125V35Z" fill="#28B2DB"/>
<path d="M13.125 43.75H17.5V48.125H13.125V43.75Z" fill="#28B2DB"/>
<path d="M24.0625 26.25H37.1875C38.3955 26.25 39.375 27.2295 39.375 28.4375C39.375 29.6455 38.3955 30.625 37.1875 30.625H24.0625C22.8545 30.625 21.875 29.6455 21.875 28.4375C21.875 27.2295 22.8545 26.25 24.0625 26.25Z" fill="#28B2DB"/>
<path d="M24.0625 35H28.4375C29.6455 35 30.625 35.9795 30.625 37.1875C30.625 38.3955 29.6455 39.375 28.4375 39.375H24.0625C22.8545 39.375 21.875 38.3955 21.875 37.1875C21.875 35.9795 22.8545 35 24.0625 35Z" fill="#28B2DB"/>
</svg>
