<svg width="26" height="27" viewBox="0 0 26 27" fill="none" xmlns="http://www.w3.org/2000/svg">
<path d="M4.22072 0.0580082C2.43302 0.358593 0.872084 1.64531 0.297279 3.30117C-0.0138545 4.18711 0.00196586 3.66504 0.00196586 13.5C0.00196586 21.5314 0.0125127 22.565 0.0863409 22.9289C0.328919 24.1049 0.898451 25.0699 1.79494 25.824C2.21154 26.1773 3.01837 26.6203 3.48244 26.7627C4.24709 26.9895 4.4422 27 8.41311 27C11.9252 27 12.2258 26.9947 12.3893 26.9051C12.9008 26.6467 12.9483 25.9506 12.4842 25.6078C12.3365 25.4971 12.2733 25.4971 8.39728 25.4707C4.02033 25.4338 4.21017 25.4496 3.44552 25.0699C2.60705 24.648 1.97423 23.8992 1.67365 22.9658L1.55763 22.5967V13.5V4.40332L1.67365 4.03418C1.97423 3.10605 2.62814 2.32559 3.45607 1.9248C4.22072 1.55039 4.0256 1.56621 8.43947 1.5293C12.1625 1.50293 12.4367 1.49766 12.5686 1.40801C13.0643 1.08633 13.0221 0.353319 12.5 0.0949211C12.3313 0.00527382 12.0307 0 8.41311 0.00527382C6.26681 0.0105457 4.37892 0.031641 4.22072 0.0580082Z" fill="#ED1C24"/>
<path d="M18.9863 7.89983C18.5539 8.11604 18.4273 8.6592 18.7174 9.04943C18.8018 9.16018 19.6455 10.025 20.5894 10.969L22.3086 12.6828L14.3879 12.7092C6.70449 12.7356 6.45664 12.7408 6.29316 12.8358C5.77636 13.1522 5.79746 13.8957 6.33007 14.1699L6.5621 14.2912H14.4775H22.3877L20.4945 16.1844L18.6014 18.0776L18.5803 18.3623C18.5644 18.5785 18.5855 18.6787 18.6646 18.8158C18.8756 19.1428 19.2447 19.2746 19.6033 19.1428C19.7721 19.0795 24.8029 14.0803 24.9242 13.8588C25.0508 13.6162 25.0191 13.2787 24.8451 13.0467C24.7607 12.936 23.59 11.7442 22.2506 10.4047C19.4926 7.65725 19.482 7.6467 18.9863 7.89983Z" fill="#ED1C24"/>
</svg>
