<svg width="29" height="31" viewBox="0 0 29 31" fill="none" xmlns="http://www.w3.org/2000/svg">
<path d="M20.0825 1.08117C19.9075 1.29117 19.9075 1.50117 20.065 2.13117C20.3625 3.23367 20.345 3.28617 19.8025 3.00617C18.98 2.58617 17.475 2.20117 15.8825 2.00867C10.3875 1.34367 4.805 4.42367 2.33751 9.46367C1.23501 11.7387 0.955006 12.9112 0.955006 15.5012C0.937506 18.0737 1.23501 19.4737 2.21501 21.4512C2.75751 22.5362 2.93251 22.7637 3.28251 22.7637C4.0875 22.7637 4.1225 22.2912 3.42251 20.7862C1.76001 17.2687 1.86501 13.3837 3.68501 9.84867C4.665 7.95867 6.8525 5.71867 8.6375 4.79117C10.755 3.70617 12.2075 3.33867 14.5 3.33867C16.1275 3.33867 16.775 3.42617 17.895 3.77617L19.2775 4.19617L18.56 4.44117C17.9825 4.63367 17.825 4.77367 17.825 5.08867C17.825 5.87617 18.1925 5.94617 19.995 5.42117C20.9225 5.17617 21.7625 4.84367 21.885 4.70367C22.0425 4.49367 22.025 4.17867 21.78 3.19867C21.3075 1.36117 21.045 0.801172 20.66 0.801172C20.4675 0.801172 20.2225 0.923672 20.0825 1.08117Z" fill="#1779C6"/>
<path d="M12.925 7.03078C11.4725 7.66078 10.8425 8.76328 10.7025 10.9683L10.5975 12.5258L9.96749 12.8233C8.86499 13.3658 8.72499 13.9083 8.72499 17.6008C8.72499 22.7108 8.67249 22.6758 14.5 22.6758C20.3275 22.6758 20.275 22.7108 20.275 17.6008C20.275 13.9083 20.135 13.3658 19.0325 12.8233L18.4025 12.5258L18.2975 10.9508C18.14 8.71078 17.51 7.64328 16.04 7.01328C15.2175 6.68078 13.73 6.68078 12.925 7.03078ZM15.55 8.36078C16.6 8.90328 16.95 9.63828 16.95 11.2483V12.5258H14.5H12.05V11.2483C12.05 9.63828 12.4 8.90328 13.45 8.36078C13.87 8.15078 14.3425 7.97578 14.5 7.97578C14.6575 7.97578 15.13 8.15078 15.55 8.36078ZM18.595 14.2058C19.015 14.6083 19.015 20.5933 18.595 20.9958C18.1925 21.4158 10.8075 21.4158 10.405 20.9958C9.98499 20.5933 9.98499 14.6083 10.405 14.2058C10.8075 13.7858 18.1925 13.7858 18.595 14.2058Z" fill="#1779C6"/>
<path d="M13.17 15.3945C12.6625 15.902 12.575 16.112 12.575 16.812C12.575 17.5295 12.6625 17.722 13.17 18.212C13.6075 18.632 13.7825 18.947 13.835 19.437C13.94 20.732 15.06 20.732 15.165 19.437C15.2175 18.947 15.3925 18.632 15.83 18.212C16.3375 17.722 16.425 17.5295 16.425 16.812C16.425 16.112 16.3375 15.902 15.83 15.3945C15.34 14.9045 15.095 14.7995 14.5 14.7995C13.905 14.7995 13.66 14.9045 13.17 15.3945Z" fill="#1779C6"/>
<path d="M25.21 8.53563C24.895 8.85063 24.9475 9.04313 25.5425 10.2506C27.1525 13.5056 27.135 17.7406 25.49 21.0131C22.795 26.3681 16.4775 29.0806 10.9125 27.2956C9.72252 26.9106 9.63502 26.7706 10.37 26.5256C11.0525 26.3156 11.42 25.8431 11.245 25.4056C11.0525 24.8981 10.545 24.9506 8.88252 25.6156C7.64002 26.1231 7.22003 26.3681 7.18503 26.6481C7.13253 26.9981 8.07752 29.5881 8.41002 29.9731C8.69002 30.3056 9.21502 30.2531 9.42502 29.8506C9.56502 29.6056 9.54752 29.3431 9.33752 28.8706C9.19752 28.5031 9.09252 28.2056 9.11002 28.1706C9.14502 28.1531 9.75752 28.3281 10.475 28.5731C12.19 29.1681 15.3575 29.3256 17.2475 28.9231C19.96 28.3456 22.0075 27.2256 24.055 25.2131C26.925 22.3956 28.3775 18.6156 28.0975 14.6956C27.835 11.1081 26.19 7.55563 25.21 8.53563Z" fill="#1779C6"/>
</svg>
