<svg width="20" height="20" viewBox="0 0 20 20" fill="none" xmlns="http://www.w3.org/2000/svg">
<path d="M19.1633 9H18V6.91067C18 6.40867 17.5913 6 17.0893 6H16V5.19533L15.835 5.03033C15.8347 5.03033 15.8347 5.03 15.8347 5.02967L13.4027 2.59767L10.8047 0H2.66667V3.66667H0.910667C0.408667 3.66667 0 4.07533 0 4.57733V19.1397H0.002C0.000333333 19.3273 0.0586667 19.511 0.176 19.6647C0.339333 19.878 0.586667 20 0.855 20H15.7747C16.16 20 16.4993 19.7403 16.5913 19.3957L20 10.0497V9.99067C20 9.41667 19.648 9 19.1633 9ZM17.0893 6.66667C17.2237 6.66667 17.3333 6.776 17.3333 6.91067V9H16V6.66667H17.0893ZM11 1.13833L14.862 5H11V1.13833ZM3.33333 0.666667H10.3333V5.66667H15.3333V6V9H4.24367C4.196 9 4.149 9.004 4.103 9.01167C3.77833 9.06567 3.50767 9.30233 3.427 9.60433L3.33333 9.86167V3.66667V0.666667ZM0.666667 4.57733C0.666667 4.44267 0.776333 4.33333 0.910667 4.33333H2.66667V11.6783L0.666667 17.133V4.57733ZM15.9563 19.1943C15.9343 19.276 15.8597 19.3333 15.7747 19.3333H0.855C0.774 19.3333 0.726667 19.287 0.705667 19.2593C0.684667 19.232 0.652333 19.174 0.664667 19.1233L2.66667 13.6327V13.6343L4.05333 9.833L4.062 9.80567C4.084 9.724 4.159 9.66667 4.24367 9.66667H15.3333H16H18H19.1633C19.29 9.66667 19.3223 9.84867 19.3307 9.93967L15.9563 19.1943Z" fill="#106DB6"/>
<path d="M5.33333 5.66667H8.66667C8.85067 5.66667 9 5.51767 9 5.33333C9 5.149 8.85067 5 8.66667 5H5.33333C5.14933 5 5 5.149 5 5.33333C5 5.51767 5.14933 5.66667 5.33333 5.66667Z" fill="#106DB6"/>
</svg>
