<svg width="41" height="40" viewBox="0 0 41 40" fill="none" xmlns="http://www.w3.org/2000/svg">
<path d="M14.9456 7.36719C14.7659 7.5625 14.7269 7.88281 14.8519 8.11719C14.9222 8.25 15.0394 8.32031 15.5862 8.51562L15.8128 8.60156L15.2894 9.125C14.055 10.375 13.4456 11.8516 13.4456 13.5938C13.4456 15.5312 14.2659 17.2578 15.7347 18.4062C16.7112 19.1719 18.0706 19.6875 19.1097 19.6875C19.7269 19.6875 19.9612 19.5312 19.9612 19.1094C19.9612 18.6719 19.7581 18.5234 19.0316 18.4375C18.2347 18.3438 17.8987 18.25 17.2737 17.9297C16.1097 17.3359 15.2816 16.3672 14.8753 15.1172C14.6175 14.3281 14.5862 13.0703 14.805 12.2656C14.9925 11.5703 15.43 10.7578 15.8753 10.2812L16.2503 9.88281L16.2034 10.3203C16.1644 10.7266 16.1722 10.7656 16.3831 10.9297C16.6253 11.1172 16.9769 11.1094 17.18 10.9062C17.3128 10.7734 17.8987 8.78906 17.8987 8.46094C17.8987 8.03125 17.6487 7.85938 16.555 7.50781C15.4066 7.14062 15.18 7.11719 14.9456 7.36719Z" fill="#106DB6"/>
<path d="M20.2034 7.42188C20.0081 7.64062 20.0081 8.08594 20.2113 8.28125C20.3284 8.39844 20.5472 8.46094 21.055 8.51562C23.0159 8.74219 24.6019 10.0625 25.1722 11.9531C25.3831 12.6406 25.4222 13.8359 25.2503 14.5312C25.0706 15.2734 24.5784 16.2031 24.1019 16.6953C23.7581 17.0547 23.68 17.1094 23.7191 16.9531C23.7503 16.8438 23.7894 16.5938 23.8128 16.3984C23.8519 16.0781 23.8284 16.0234 23.6409 15.875C23.3831 15.6641 23.1331 15.6562 22.9066 15.8359C22.7113 15.9922 22.1175 17.8828 22.1175 18.3281C22.1175 18.7734 22.3597 18.9375 23.4847 19.2891C24.0472 19.4688 24.6019 19.6094 24.7113 19.6094C25.1488 19.6094 25.3988 19.0078 25.1253 18.625C25.0628 18.5312 24.8519 18.4141 24.6566 18.3594L24.2972 18.2578L24.7972 17.7422C25.3909 17.1328 25.7269 16.6562 26.0159 15.9922C26.4456 15.0234 26.5316 14.5859 26.5316 13.3203C26.5238 12.2031 26.5159 12.1172 26.2738 11.4062C25.7113 9.79688 24.6488 8.57031 23.1956 7.85938C22.0628 7.30469 20.5159 7.07812 20.2034 7.42188Z" fill="#106DB6"/>
<path d="M7.54718 21.6403C5.25812 21.8669 3.32062 23.531 2.69562 25.781C2.50031 26.4841 2.50031 27.9685 2.69562 28.6716C3.12531 30.2419 4.22687 31.5622 5.67218 32.2653C6.86749 32.8435 5.88312 32.8122 20.0081 32.8122C34.1331 32.8122 33.1487 32.8435 34.3441 32.2653C36.6331 31.156 37.8909 28.6091 37.3909 26.1091C37.0472 24.4294 35.8909 22.9372 34.3441 22.1872C33.0628 21.5622 34.18 21.6091 20.4378 21.5935C13.6956 21.5856 7.89093 21.6091 7.54718 21.6403ZM33.0081 22.9919C34.5706 23.4528 35.7737 24.7106 36.1409 26.2575C36.6644 28.4919 35.2425 30.8591 33.0159 31.445C32.6097 31.5466 31.0237 31.5622 20.0237 31.5622C8.84406 31.5622 7.43781 31.5466 7.00812 31.4372C5.50031 31.0466 4.24249 29.7497 3.87531 28.195C3.28937 25.7028 5.05499 23.2028 7.61749 22.8981C7.92218 22.8591 13.6566 22.8356 20.3597 22.8435C31.7503 22.8513 32.5784 22.8669 33.0081 22.9919Z" fill="#106DB6"/>
<path d="M7.98468 24.9688C7.86749 25.125 7.82062 25.2891 7.82062 25.5938C7.82062 25.8281 7.80499 26.0156 7.78156 26.0156C7.75812 26.0156 7.59406 25.9219 7.42218 25.8125C6.99249 25.5469 6.67218 25.5391 6.43781 25.8125C6.10187 26.2031 6.22687 26.5312 6.88312 26.9531C7.09406 27.0938 7.27374 27.2109 7.27374 27.2266C7.27374 27.2422 7.09406 27.3594 6.88312 27.5C6.24249 27.9141 6.10968 28.2266 6.42218 28.625C6.63312 28.8906 7.01593 28.8984 7.42999 28.6328C7.60187 28.5234 7.75812 28.4375 7.78156 28.4375C7.80499 28.4375 7.82062 28.625 7.82062 28.8594C7.82062 29.4219 8.02374 29.6875 8.44562 29.6875C8.86749 29.6875 9.07062 29.4219 9.07062 28.8594C9.07062 28.625 9.08624 28.4375 9.10968 28.4375C9.13312 28.4375 9.28937 28.5234 9.46124 28.6328C9.87531 28.8984 10.2581 28.8906 10.4691 28.625C10.7816 28.2266 10.6487 27.9141 10.0081 27.5C9.79718 27.3594 9.61749 27.2422 9.61749 27.2266C9.61749 27.2109 9.79718 27.0938 10.0081 26.9531C10.6644 26.5312 10.7894 26.2031 10.4534 25.8125C10.2191 25.5391 9.89874 25.5469 9.46906 25.8125C9.29718 25.9219 9.13312 26.0156 9.10968 26.0156C9.08624 26.0156 9.07062 25.8281 9.07062 25.5938C9.07062 25.0312 8.86749 24.7656 8.44562 24.7656C8.21124 24.7656 8.10968 24.8125 7.98468 24.9688Z" fill="#106DB6"/>
<path d="M13.6097 24.9688C13.4925 25.125 13.4456 25.2891 13.4456 25.5938C13.4456 25.8281 13.43 26.0156 13.4066 26.0156C13.3831 26.0156 13.2191 25.9219 13.0472 25.8125C12.6175 25.5469 12.2972 25.5391 12.0628 25.8125C11.7269 26.2031 11.8519 26.5312 12.5081 26.9531C12.7191 27.0938 12.8987 27.2109 12.8987 27.2266C12.8987 27.2422 12.7191 27.3594 12.5081 27.5C11.8675 27.9141 11.7347 28.2266 12.0472 28.625C12.2581 28.8906 12.6409 28.8984 13.055 28.6328C13.2269 28.5234 13.3831 28.4375 13.4066 28.4375C13.43 28.4375 13.4456 28.625 13.4456 28.8594C13.4456 29.4219 13.6487 29.6875 14.0706 29.6875C14.4925 29.6875 14.6956 29.4219 14.6956 28.8594C14.6956 28.625 14.7112 28.4375 14.7347 28.4375C14.7581 28.4375 14.9144 28.5234 15.0862 28.6328C15.5003 28.8984 15.8831 28.8906 16.0941 28.625C16.4066 28.2266 16.2737 27.9141 15.6331 27.5C15.4222 27.3594 15.2425 27.2422 15.2425 27.2266C15.2425 27.2109 15.4222 27.0938 15.6331 26.9531C16.2894 26.5312 16.4144 26.2031 16.0784 25.8125C15.8441 25.5391 15.5237 25.5469 15.0941 25.8125C14.9222 25.9219 14.7581 26.0156 14.7347 26.0156C14.7112 26.0156 14.6956 25.8281 14.6956 25.5938C14.6956 25.0312 14.4925 24.7656 14.0706 24.7656C13.8362 24.7656 13.7347 24.8125 13.6097 24.9688Z" fill="#106DB6"/>
<path d="M19.2347 24.9688C19.1175 25.125 19.0706 25.2891 19.0706 25.5938C19.0706 25.8281 19.055 26.0156 19.0316 26.0156C19.0081 26.0156 18.8441 25.9219 18.6722 25.8125C18.2425 25.5469 17.9222 25.5391 17.6878 25.8125C17.3519 26.2031 17.4769 26.5312 18.1331 26.9531C18.3441 27.0938 18.5237 27.2109 18.5237 27.2266C18.5237 27.2422 18.3441 27.3594 18.1331 27.5C17.4925 27.9141 17.3597 28.2266 17.6722 28.625C17.8831 28.8906 18.2659 28.8984 18.68 28.6328C18.8519 28.5234 19.0081 28.4375 19.0316 28.4375C19.055 28.4375 19.0706 28.625 19.0706 28.8594C19.0706 29.4219 19.2737 29.6875 19.6956 29.6875C20.1175 29.6875 20.3206 29.4219 20.3206 28.8594C20.3206 28.625 20.3362 28.4375 20.3597 28.4375C20.3831 28.4375 20.5394 28.5234 20.7112 28.6328C21.1253 28.8984 21.5081 28.8906 21.7191 28.625C22.0316 28.2266 21.8987 27.9141 21.2581 27.5C21.0472 27.3594 20.8675 27.2422 20.8675 27.2266C20.8675 27.2109 21.0472 27.0938 21.2581 26.9531C21.9144 26.5312 22.0394 26.2031 21.7034 25.8125C21.4691 25.5391 21.1487 25.5469 20.7191 25.8125C20.5472 25.9219 20.3831 26.0156 20.3597 26.0156C20.3362 26.0156 20.3206 25.8281 20.3206 25.5938C20.3206 25.0312 20.1175 24.7656 19.6956 24.7656C19.4612 24.7656 19.3597 24.8125 19.2347 24.9688Z" fill="#106DB6"/>
<path d="M24.8597 24.9688C24.7425 25.125 24.6956 25.2891 24.6956 25.5938C24.6956 25.8281 24.68 26.0156 24.6566 26.0156C24.6331 26.0156 24.4691 25.9219 24.2972 25.8125C23.8675 25.5469 23.5472 25.5391 23.3128 25.8125C22.9769 26.2031 23.1019 26.5312 23.7581 26.9531C23.9691 27.0938 24.1487 27.2109 24.1487 27.2266C24.1487 27.2422 23.9691 27.3594 23.7581 27.5C23.1175 27.9141 22.9847 28.2266 23.2972 28.625C23.5081 28.8906 23.8909 28.8984 24.305 28.6328C24.4769 28.5234 24.6331 28.4375 24.6566 28.4375C24.68 28.4375 24.6956 28.625 24.6956 28.8594C24.6956 29.4219 24.8987 29.6875 25.3206 29.6875C25.7425 29.6875 25.9456 29.4219 25.9456 28.8594C25.9456 28.625 25.9612 28.4375 25.9847 28.4375C26.0081 28.4375 26.1644 28.5234 26.3362 28.6328C26.7503 28.8984 27.1331 28.8906 27.3441 28.625C27.6566 28.2266 27.5237 27.9141 26.8831 27.5C26.6722 27.3594 26.4925 27.2422 26.4925 27.2266C26.4925 27.2109 26.6722 27.0938 26.8831 26.9531C27.5394 26.5312 27.6644 26.2031 27.3284 25.8125C27.0941 25.5391 26.7737 25.5469 26.3441 25.8125C26.1722 25.9219 26.0081 26.0156 25.9847 26.0156C25.9612 26.0156 25.9456 25.8281 25.9456 25.5938C25.9456 25.0312 25.7425 24.7656 25.3206 24.7656C25.0862 24.7656 24.9847 24.8125 24.8597 24.9688Z" fill="#106DB6"/>
<path d="M29.2503 28.4922C29.0316 28.5391 28.7581 28.875 28.7581 29.1016C28.7581 29.1953 28.8284 29.3672 28.9222 29.4844L29.0784 29.6875H31.2581H33.4378L33.5941 29.4844C33.8128 29.2109 33.7972 28.9609 33.5706 28.6953L33.3831 28.4766L31.3987 28.4688C30.3128 28.4609 29.3441 28.4688 29.2503 28.4922Z" fill="#106DB6"/>
</svg>
