<svg width="20" height="20" viewBox="0 0 20 20" fill="none" xmlns="http://www.w3.org/2000/svg">
<path d="M12.1875 5.93759V5.62509C12.1875 5.1204 11.9072 4.66665 11.4556 4.44103L10.9828 4.20478C11.1544 3.98603 11.25 3.71603 11.25 3.43759V2.86571C11.25 2.17071 10.7303 1.59915 10.0669 1.56446C9.7175 1.54665 9.39094 1.66759 9.13969 1.90571C8.89187 2.14071 8.75 2.47134 8.75 2.81259V3.43759C8.75 3.71603 8.84563 3.98603 9.01688 4.20478L8.54406 4.44103C8.09281 4.66665 7.8125 5.1204 7.8125 5.62509V5.93759H12.1875ZM8.82375 5.00009L9.6875 4.56821V3.99259L9.58406 3.89946C9.44906 3.7779 9.375 3.61384 9.375 3.43759V2.81259C9.375 2.63946 9.44438 2.47853 9.57 2.35915C9.69531 2.24009 9.86563 2.17884 10.0338 2.18853C10.3597 2.20571 10.625 2.50946 10.625 2.86571V3.43759C10.625 3.61384 10.5509 3.7779 10.4159 3.89946L10.3125 3.99259V4.56821L11.1762 5.00009C11.315 5.06946 11.4234 5.17977 11.4897 5.31259H8.51062C8.57656 5.17977 8.685 5.06946 8.82375 5.00009Z" fill="#106DB6"/>
<path d="M17.7791 4.22625L17.6078 3.99625L13.4125 6.5875L16.0038 2.39219L15.7738 2.22094C14.0941 0.9725 12.0975 0.3125 10 0.3125C7.9025 0.3125 5.90594 0.9725 4.22625 2.22094L3.99625 2.39219L6.5875 6.5875L2.39219 3.99625L2.22094 4.22625C0.9725 5.90594 0.3125 7.9025 0.3125 10C0.3125 12.0975 0.9725 14.0941 2.22094 15.7738L2.39219 16.0038L6.5875 13.4125L3.99625 17.6078L4.22625 17.7791C5.90594 19.0275 7.9025 19.6875 10 19.6875C12.0975 19.6875 14.0941 19.0275 15.7738 17.7791L16.0038 17.6078L13.4125 13.4125L17.6078 16.0038L17.7791 15.7738C19.0275 14.0941 19.6875 12.0975 19.6875 10C19.6875 7.9025 19.0275 5.90594 17.7791 4.22625ZM4.83187 2.55531C6.35313 1.49594 8.13375 0.9375 10 0.9375C11.8663 0.9375 13.6469 1.49594 15.1681 2.55531L12.2087 7.34719L11.8734 7.01188L11.1869 7.135L10.7881 6.5625H9.21156L8.81312 7.135L8.12656 7.01188L7.79125 7.34719L4.83187 2.55531ZM12.3153 11.6622L11.6622 12.3153L10.9022 12.1788L10.4619 12.8125H9.53844L9.09781 12.1791L8.33781 12.3156L7.68469 11.6625L7.82125 10.9025L7.1875 10.4619V9.53844L7.82094 9.0975L7.68437 8.33781L8.3375 7.685L9.0975 7.82125L9.53813 7.1875H10.4616L10.9022 7.82094L11.6622 7.68469L12.3153 8.3375L12.1788 9.09719L12.8125 9.53813V10.4616L12.1791 10.9022L12.3153 11.6622ZM2.55563 15.1681C1.49594 13.6469 0.9375 11.8663 0.9375 10C0.9375 8.13375 1.49594 6.35313 2.55563 4.83156L7.3475 7.79125L7.01219 8.12687L7.13531 8.81344L6.5625 9.21187V10.7884L7.135 11.1869L7.01188 11.8734L7.34719 12.2087L2.55563 15.1681ZM9.0625 19.0091V18.4375H10.9375V19.0091C10.6275 19.0406 10.3156 19.0625 10 19.0625C9.68437 19.0625 9.3725 19.0406 9.0625 19.0091ZM12.1875 16.5625H7.8125V15C7.8125 14.8275 7.9525 14.6875 8.125 14.6875H11.875C12.0475 14.6875 12.1875 14.8275 12.1875 15V16.5625ZM7.8125 17.1875H12.1875V17.5C12.1875 17.6725 12.0475 17.8125 11.875 17.8125H8.125C7.9525 17.8125 7.8125 17.6725 7.8125 17.5V17.1875ZM15.1681 17.4444C14.0784 18.2034 12.8544 18.7003 11.5625 18.9237V18.4375H11.875C12.3919 18.4375 12.8125 18.0169 12.8125 17.5V15C12.8125 14.4831 12.3919 14.0625 11.875 14.0625H8.125C7.60813 14.0625 7.1875 14.4831 7.1875 15V17.5C7.1875 18.0169 7.60813 18.4375 8.125 18.4375H8.4375V18.9241C7.14563 18.7003 5.92156 18.2034 4.83187 17.4447L7.79125 12.6531L8.12656 12.9884L8.81312 12.8653L9.21187 13.4375H10.7884L11.1869 12.865L11.8734 12.9881L12.2087 12.6528L15.1681 17.4444ZM17.4444 15.1681L12.6528 12.2087L12.9881 11.8734L12.865 11.1869L13.4375 10.7881V9.21156L12.865 8.81312L12.9881 8.12656L12.6528 7.79094L17.4447 4.83125C18.5041 6.35313 19.0625 8.13375 19.0625 10C19.0625 11.8663 18.5041 13.6469 17.4444 15.1681Z" fill="#106DB6"/>
</svg>
