<svg width="20" height="20" viewBox="0 0 20 20" fill="none" xmlns="http://www.w3.org/2000/svg">
<g clip-path="url(#clip0_38:217)">
<mask id="path-1-inside-1_38:217" fill="white">
<path d="M16.8037 0H7.53288C7.37112 0 7.23999 0.131094 7.23999 0.292891C7.23999 0.454688 7.37112 0.585781 7.53288 0.585781H16.8037C17.0021 0.585781 17.1635 0.747227 17.1635 0.945586V11.815C17.1635 11.9768 17.2946 12.1079 17.4564 12.1079C17.6181 12.1079 17.7492 11.9768 17.7492 11.815V0.945547C17.7492 0.42418 17.3251 0 16.8037 0V0Z"/>
</mask>
<path d="M16.8037 0H7.53288C7.37112 0 7.23999 0.131094 7.23999 0.292891C7.23999 0.454688 7.37112 0.585781 7.53288 0.585781H16.8037C17.0021 0.585781 17.1635 0.747227 17.1635 0.945586V11.815C17.1635 11.9768 17.2946 12.1079 17.4564 12.1079C17.6181 12.1079 17.7492 11.9768 17.7492 11.815V0.945547C17.7492 0.42418 17.3251 0 16.8037 0V0Z" fill="#106DB6"/>
<path d="M16.8037 0H22.8037V-6H16.8037V0ZM16.8037 0H10.8037V6H16.8037V0ZM16.8037 -6H7.53288V6H16.8037V-6ZM7.53288 -6C4.05794 -6 1.23999 -3.18314 1.23999 0.292891H13.24C13.24 3.44533 10.6843 6 7.53288 6V-6ZM1.23999 0.292891C1.23999 3.76892 4.05794 6.58578 7.53288 6.58578V-5.41422C10.6843 -5.41422 13.24 -2.85954 13.24 0.292891H1.23999ZM7.53288 6.58578H16.8037V-5.41422H7.53288V6.58578ZM16.8037 6.58578C13.6879 6.58578 11.1635 4.06051 11.1635 0.945586H23.1635C23.1635 -2.56606 20.3162 -5.41422 16.8037 -5.41422V6.58578ZM11.1635 0.945586V11.815H23.1635V0.945586H11.1635ZM11.1635 11.815C11.1635 15.2904 13.9809 18.1079 17.4564 18.1079V6.10789C20.6083 6.10789 23.1635 8.66308 23.1635 11.815H11.1635ZM17.4564 18.1079C20.9313 18.1079 23.7493 15.291 23.7493 11.815H11.7492C11.7492 8.66257 14.3049 6.10789 17.4564 6.10789V18.1079ZM23.7493 11.815V0.945547H11.7492V11.815H23.7493ZM23.7493 0.945547C23.7493 -2.88969 20.6386 -6 16.8037 -6V6C14.0115 6 11.7492 3.73805 11.7492 0.945547H23.7493ZM22.8037 0V0H10.8037V0H22.8037Z" fill="#106DB6" mask="url(#path-1-inside-1_38:217)"/>
<mask id="path-3-inside-2_38:217" fill="white">
<path d="M17.4563 12.8866C17.2945 12.8866 17.1634 13.0177 17.1634 13.1795V16.2521C17.1634 16.2521 14.7565 16.2504 14.756 16.2504C14.5496 16.2504 14.3555 16.3307 14.2095 16.4766C14.0634 16.6227 13.9829 16.8168 13.9829 17.0235V19.4143H3.19656C2.99816 19.4143 2.83676 19.2528 2.83676 19.0545V0.945547C2.83676 0.747187 2.99816 0.585742 3.19656 0.585742H6.17797C6.33973 0.585742 6.47086 0.454648 6.47086 0.292852C6.47086 0.131055 6.33973 0 6.17797 0H3.19656C2.67516 0 2.25098 0.42418 2.25098 0.945547V19.0544C2.25098 19.5758 2.67516 20 3.19656 20H14.2758C14.2998 20 14.3231 19.9968 14.3463 19.9911C14.3977 19.9783 14.4448 19.9521 14.4823 19.9148C14.4823 19.9148 17.6625 16.7531 17.6628 16.7528C17.7184 16.6975 17.7492 16.6241 17.7492 16.5452V13.1795C17.7492 13.0178 17.618 12.8866 17.4563 12.8866V12.8866ZM14.5687 19.003V17.0235C14.5687 16.9734 14.5882 16.9263 14.6236 16.891C14.6589 16.8556 14.706 16.8362 14.756 16.8362H14.7561L16.7468 16.8375L14.5687 19.003Z"/>
</mask>
<path d="M17.4563 12.8866C17.2945 12.8866 17.1634 13.0177 17.1634 13.1795V16.2521C17.1634 16.2521 14.7565 16.2504 14.756 16.2504C14.5496 16.2504 14.3555 16.3307 14.2095 16.4766C14.0634 16.6227 13.9829 16.8168 13.9829 17.0235V19.4143H3.19656C2.99816 19.4143 2.83676 19.2528 2.83676 19.0545V0.945547C2.83676 0.747187 2.99816 0.585742 3.19656 0.585742H6.17797C6.33973 0.585742 6.47086 0.454648 6.47086 0.292852C6.47086 0.131055 6.33973 0 6.17797 0H3.19656C2.67516 0 2.25098 0.42418 2.25098 0.945547V19.0544C2.25098 19.5758 2.67516 20 3.19656 20H14.2758C14.2998 20 14.3231 19.9968 14.3463 19.9911C14.3977 19.9783 14.4448 19.9521 14.4823 19.9148C14.4823 19.9148 17.6625 16.7531 17.6628 16.7528C17.7184 16.6975 17.7492 16.6241 17.7492 16.5452V13.1795C17.7492 13.0178 17.618 12.8866 17.4563 12.8866V12.8866ZM14.5687 19.003V17.0235C14.5687 16.9734 14.5882 16.9263 14.6236 16.891C14.6589 16.8556 14.706 16.8362 14.756 16.8362H14.7561L16.7468 16.8375L14.5687 19.003Z" fill="#106DB6"/>
<path d="M17.1634 16.2521L17.1592 22.2521L23.1634 22.2563V16.2521H17.1634ZM14.2095 16.4766L9.96916 12.2317L9.96802 12.2328L14.2095 16.4766ZM13.9829 19.4143V25.4143H19.9829V19.4143H13.9829ZM14.3463 19.9911L15.7899 25.8148L15.7942 25.8137L14.3463 19.9911ZM14.4823 19.9148L10.2521 15.6598L10.2507 15.6611L14.4823 19.9148ZM17.6628 16.7528L13.4321 12.4982L13.4261 12.5042L13.4202 12.5102L17.6628 16.7528ZM17.7492 13.1795H23.7492V13.1781L17.7492 13.1795ZM14.5687 19.003H8.56867V33.4286L18.7989 23.258L14.5687 19.003ZM14.6236 16.891L18.8616 21.1383L18.8662 21.1336L14.6236 16.891ZM14.7561 16.8362L14.7603 10.8362H14.7561V16.8362ZM16.7468 16.8375L20.977 21.0926L31.2821 10.8475L16.7509 10.8375L16.7468 16.8375ZM17.4563 6.88664C13.9813 6.88664 11.1634 9.7035 11.1634 13.1795H23.1634C23.1634 16.332 20.6077 18.8866 17.4563 18.8866V6.88664ZM11.1634 13.1795V16.2521H23.1634V13.1795H11.1634ZM17.1634 16.2521C17.1676 10.2521 17.1676 10.2521 17.1676 10.2521C17.1675 10.2521 17.1675 10.2521 17.1675 10.2521C17.1674 10.2521 17.1673 10.2521 17.1671 10.2521C17.1669 10.2521 17.1664 10.2521 17.1658 10.2521C17.1647 10.2521 17.163 10.2521 17.1607 10.2521C17.1561 10.2521 17.1494 10.2521 17.1406 10.2521C17.1229 10.252 17.0971 10.252 17.0642 10.252C16.9983 10.252 16.9043 10.2519 16.7915 10.2518C16.5658 10.2517 16.265 10.2514 15.9641 10.2512C15.3651 10.2508 14.759 10.2504 14.756 10.2504V22.2504C14.7535 22.2504 15.3511 22.2508 15.9557 22.2512C16.2566 22.2514 16.5575 22.2516 16.7831 22.2518C16.896 22.2519 16.99 22.252 17.0558 22.252C17.0887 22.252 17.1146 22.252 17.1322 22.2521C17.141 22.2521 17.1478 22.2521 17.1523 22.2521C17.1546 22.2521 17.1563 22.2521 17.1575 22.2521C17.158 22.2521 17.1585 22.2521 17.1588 22.2521C17.1589 22.2521 17.159 22.2521 17.1591 22.2521C17.1591 22.2521 17.1592 22.2521 17.1592 22.2521C17.1592 22.2521 17.1592 22.2521 17.1634 16.2521ZM14.756 10.2504C12.9588 10.2504 11.2398 10.9625 9.96916 12.2317L18.4499 20.7215C17.4713 21.699 16.1404 22.2504 14.756 22.2504V10.2504ZM9.96802 12.2328C8.69595 13.5042 7.98293 15.225 7.98293 17.0235H19.9829C19.9829 18.4087 19.4308 19.7411 18.451 20.7204L9.96802 12.2328ZM7.98293 17.0235V19.4143H19.9829V17.0235H7.98293ZM13.9829 13.4143H3.19656V25.4143H13.9829V13.4143ZM3.19656 13.4143C6.3123 13.4143 8.83676 15.9395 8.83676 19.0545H-3.16324C-3.16324 22.5661 -0.315969 25.4143 3.19656 25.4143V13.4143ZM8.83676 19.0545V0.945547H-3.16324V19.0545H8.83676ZM8.83676 0.945547C8.83676 4.06047 6.3123 6.58574 3.19656 6.58574V-5.41426C-0.31597 -5.41426 -3.16324 -2.5661 -3.16324 0.945547H8.83676ZM3.19656 6.58574H6.17797V-5.41426H3.19656V6.58574ZM6.17797 6.58574C9.65293 6.58574 12.4709 3.76886 12.4709 0.292852H0.470859C0.470859 -2.85957 3.02652 -5.41426 6.17797 -5.41426V6.58574ZM12.4709 0.292852C12.4709 -3.1842 9.65189 -6 6.17797 -6V6C3.02757 6 0.470859 3.44631 0.470859 0.292852H12.4709ZM6.17797 -6H3.19656V6H6.17797V-6ZM3.19656 -6C-0.638391 -6 -3.74902 -2.88969 -3.74902 0.945547H8.25098C8.25098 3.73805 5.9887 6 3.19656 6V-6ZM-3.74902 0.945547V19.0544H8.25098V0.945547H-3.74902ZM-3.74902 19.0544C-3.74902 22.8895 -0.638553 26 3.19656 26V14C5.98887 14 8.25098 16.2621 8.25098 19.0544H-3.74902ZM3.19656 26H14.2758V14H3.19656V26ZM14.2758 26C14.8432 26 15.353 25.9231 15.7899 25.8148L12.9026 14.1673C13.2932 14.0705 13.7564 14 14.2758 14V26ZM15.7942 25.8137C16.8701 25.5462 17.8871 24.991 18.7139 24.1685L10.2507 15.6611C11.0025 14.9133 11.9252 14.4104 12.8984 14.1684L15.7942 25.8137ZM14.4823 19.9148C18.7125 24.1698 18.7126 24.1698 18.7126 24.1698C18.7126 24.1698 18.7126 24.1697 18.7127 24.1697C18.7128 24.1696 18.7129 24.1694 18.7131 24.1692C18.7135 24.1689 18.7141 24.1683 18.7148 24.1675C18.7164 24.166 18.7187 24.1637 18.7217 24.1607C18.7277 24.1548 18.7366 24.1459 18.7483 24.1343C18.7715 24.1111 18.8057 24.0772 18.8492 24.034C18.9361 23.9475 19.0604 23.824 19.2095 23.6758C19.5076 23.3794 19.9051 22.9842 20.3027 22.5889C21.0895 21.8067 21.897 21.0039 21.9055 20.9955L13.4202 12.5102C13.4283 12.5021 12.6456 13.2802 11.8422 14.0789C11.4447 14.4741 11.0471 14.8694 10.749 15.1658C10.5999 15.314 10.4757 15.4375 10.3887 15.5239C10.3452 15.5672 10.3111 15.6011 10.2878 15.6243C10.2761 15.6359 10.2672 15.6447 10.2612 15.6507C10.2582 15.6537 10.2559 15.656 10.2544 15.6575C10.2536 15.6583 10.253 15.6588 10.2526 15.6592C10.2525 15.6594 10.2523 15.6596 10.2522 15.6597C10.2522 15.6597 10.2521 15.6597 10.2521 15.6598C10.2521 15.6598 10.2521 15.6598 14.4823 19.9148ZM21.8935 21.0074C23.0751 19.8324 23.7492 18.2304 23.7492 16.5452H11.7492C11.7492 15.0178 12.3617 13.5627 13.4321 12.4982L21.8935 21.0074ZM23.7492 16.5452V13.1795H11.7492V16.5452H23.7492ZM23.7492 13.1781C23.7484 9.70399 20.932 6.88664 17.4563 6.88664V18.8866C14.3041 18.8866 11.75 16.3316 11.7492 13.181L23.7492 13.1781ZM20.5687 19.003V17.0235H8.56867V19.003H20.5687ZM20.5687 17.0235C20.5687 18.5636 19.9566 20.0457 18.8615 21.1383L10.3856 12.6437C9.21974 13.807 8.56867 15.3832 8.56867 17.0235H20.5687ZM18.8662 21.1336C17.7742 22.2257 16.2942 22.8362 14.756 22.8362V10.8362C13.1178 10.8362 11.5437 11.4856 10.381 12.6483L18.8662 21.1336ZM14.756 22.8362H14.7561V10.8362H14.756V22.8362ZM14.752 22.8362L16.7427 22.8375L16.7509 10.8375L14.7603 10.8362L14.752 22.8362ZM12.5166 12.5825L10.3384 14.7479L18.7989 23.258L20.977 21.0926L12.5166 12.5825Z" fill="#106DB6" mask="url(#path-3-inside-2_38:217)"/>
<path d="M13.5117 7.73671L13.5862 7.98948L13.4649 7.99606L13.5117 7.73671ZM12.7536 9.60427L12.9575 9.64107L12.9576 9.64108L13.1613 9.67785L13.2457 9.69307L13.1613 9.67786L13.1552 9.67676L12.9576 9.64111L12.9575 9.6411L12.9078 9.63213L12.9075 9.63208L12.7536 9.60432C12.7536 9.60431 12.7536 9.6043 12.7536 9.60428C12.7536 9.60428 12.7536 9.60428 12.7536 9.60427C12.7536 9.60427 12.7536 9.60427 12.7536 9.60427ZM15.1489 7.73536L15.1982 7.99323L15.077 7.98784L15.1489 7.73536ZM13.3345 7.13624C13.3345 7.1362 13.3345 7.13615 13.3345 7.13611L13.3345 7.13624Z" fill="#106DB6" stroke="#106DB6"/>
<mask id="path-6-inside-3_38:217" fill="white">
<path d="M5.33198 7.34921C5.49374 7.34921 5.62488 7.21812 5.62488 7.05632C5.62488 6.89452 5.49374 6.76343 5.33198 6.76343H4.27605C4.11429 6.76343 3.98315 6.89452 3.98315 7.05632V9.66159C3.98315 9.82335 4.11429 9.95448 4.27605 9.95448C4.4378 9.95448 4.56894 9.82339 4.56894 9.66159V8.62718H5.24812C5.40988 8.62718 5.54101 8.49608 5.54101 8.33429C5.54101 8.17253 5.40988 8.0414 5.24812 8.0414H4.56894V7.34921H5.33198Z"/>
</mask>
<path d="M5.33198 7.34921C5.49374 7.34921 5.62488 7.21812 5.62488 7.05632C5.62488 6.89452 5.49374 6.76343 5.33198 6.76343H4.27605C4.11429 6.76343 3.98315 6.89452 3.98315 7.05632V9.66159C3.98315 9.82335 4.11429 9.95448 4.27605 9.95448C4.4378 9.95448 4.56894 9.82339 4.56894 9.66159V8.62718H5.24812C5.40988 8.62718 5.54101 8.49608 5.54101 8.33429C5.54101 8.17253 5.40988 8.0414 5.24812 8.0414H4.56894V7.34921H5.33198Z" fill="#106DB6"/>
<path d="M4.56894 8.62718V7.62718H3.56894V8.62718H4.56894ZM4.56894 8.0414H3.56894V9.0414H4.56894V8.0414ZM4.56894 7.34921V6.34921H3.56894V7.34921H4.56894ZM5.33198 8.34921C6.04594 8.34921 6.62488 7.77049 6.62488 7.05632H4.62488C4.62488 6.66574 4.94155 6.34921 5.33198 6.34921V8.34921ZM6.62488 7.05632C6.62488 6.34215 6.04594 5.76343 5.33198 5.76343V7.76343C4.94155 7.76343 4.62488 7.4469 4.62488 7.05632H6.62488ZM5.33198 5.76343H4.27605V7.76343H5.33198V5.76343ZM4.27605 5.76343C3.56209 5.76343 2.98315 6.34215 2.98315 7.05632H4.98315C4.98315 7.44689 4.66648 7.76343 4.27605 7.76343V5.76343ZM2.98315 7.05632V9.66159H4.98315V7.05632H2.98315ZM2.98315 9.66159C2.98315 10.3756 3.562 10.9545 4.27605 10.9545V8.95448C4.66657 8.95448 4.98315 9.27106 4.98315 9.66159H2.98315ZM4.27605 10.9545C4.99 10.9545 5.56894 10.3758 5.56894 9.66159H3.56894C3.56894 9.27102 3.88561 8.95448 4.27605 8.95448V10.9545ZM5.56894 9.66159V8.62718H3.56894V9.66159H5.56894ZM4.56894 9.62718H5.24812V7.62718H4.56894V9.62718ZM5.24812 9.62718C5.96207 9.62718 6.54101 9.04846 6.54101 8.33429H4.54101C4.54101 7.94371 4.85768 7.62718 5.24812 7.62718V9.62718ZM6.54101 8.33429C6.54101 7.62024 5.96216 7.0414 5.24812 7.0414V9.0414C4.85759 9.0414 4.54101 8.72482 4.54101 8.33429H6.54101ZM5.24812 7.0414H4.56894V9.0414H5.24812V7.0414ZM5.56894 8.0414V7.34921H3.56894V8.0414H5.56894ZM4.56894 8.34921H5.33198V6.34921H4.56894V8.34921Z" fill="#106DB6" mask="url(#path-6-inside-3_38:217)"/>
<path d="M10.3448 7.24414H10.3448C10.3447 7.24414 10.3445 7.24414 10.3444 7.24414H10.3444H10.3444H10.3444H10.3444H10.3444H10.3444H10.3444H10.3444H10.3444H10.3444H10.3444H10.3444H10.3444H10.3444H10.3444H10.3444H10.3444H10.3444H10.3444H10.3444H10.3444H10.3444H10.3444H10.3444H10.3444H10.3444H10.3444H10.3444H10.3444H10.3444H10.3444H10.3444H10.3444H10.3444H10.3444H10.3444H10.3444H10.3444H10.3444H10.3444H10.3444H10.3444H10.3444H10.3444H10.3444H10.3444H10.3444H10.3444H10.3444H10.3444H10.3444H10.3444H10.3445H10.3445H10.3445H10.3445H10.3445H10.3445H10.3445H10.3445H10.3445H10.3445H10.3445H10.3445H10.3445H10.3445H10.3445H10.3445H10.3445H10.3445H10.3445H10.3445H10.3445H10.3445H10.3445H10.3445H10.3445H10.3445H10.3445H10.3445H10.3445H10.3445H10.3445H10.3445H10.3445H10.3445H10.3445H10.3445H10.3445H10.3445H10.3445H10.3445H10.3445H10.3445H10.3445H10.3445H10.3445H10.3445H10.3445H10.3445H10.3445H10.3445H10.3445H10.3445H10.3445H10.3445H10.3445H10.3445H10.3445H10.3445H10.3445H10.3445H10.3445H10.3445H10.3445H10.3445H10.3445H10.3445H10.3445H10.3445H10.3445H10.3445H10.3445H10.3445H10.3445H10.3445H10.3445H10.3445H10.3445H10.3445H10.3445H10.3445H10.3445H10.3445H10.3445H10.3445H10.3445H10.3445H10.3445H10.3445H10.3445H10.3445H10.3445H10.3445H10.3445H10.3445H10.3445H10.3445H10.3445H10.3445H10.3445H10.3445H10.3445H10.3445H10.3445H10.3445H10.3445H10.3445H10.3445H10.3445H10.3445H10.3445H10.3445H10.3445H10.3445H10.3445H10.3445H10.3445H10.3445H10.3445H10.3445H10.3446H10.3446H10.3446H10.3446H10.3446H10.3446H10.3446H10.3446H10.3446H10.3446H10.3446H10.3446H10.3446H10.3446H10.3446H10.3446H10.3446H10.3446H10.3446H10.3446H10.3446H10.3446H10.3446H10.3446H10.3446H10.3446H10.3446H10.3446H10.3446H10.3446H10.3446H10.3446H10.3446H10.3446H10.3446H10.3446H10.3446H10.3446H10.3446H10.3446H10.3446H10.3446H10.3446H10.3446H10.3446H10.3446H10.3446H10.3446H10.3446H10.3446H10.3446H10.3446H10.3446H10.3446H10.3446H10.3446H10.3446H10.3446H10.3446H10.3446H10.3446H10.3446H10.3446H10.3446H10.3446H10.3446H10.3446H10.3446H10.3446H10.3446H10.3446H10.3446H10.3446H10.3446H10.3446H10.3446H10.3446H10.3446H10.3446H10.3446H10.3446H10.3446H10.3446H10.3446H10.3446H10.3446H10.3446H10.3446H10.3446H10.3446H10.3446H10.3446H10.3446H10.3446H10.3446H10.3446H10.3446H10.3446H10.3446H10.3446H10.3446H10.3446H10.3446H10.3446H10.3446H10.3446H10.3446H10.3446H10.3446H10.3446H10.3446H10.3446H10.3446H10.3446H10.3446H10.3446H10.3446H10.3446H10.3446H10.3446H10.3446H10.3446H10.3446H10.3446H10.3447H10.3447H10.3447H10.3447H10.3447H10.3447H10.3447H10.3447H10.3447H10.3447H10.3447H10.3447H10.3447H10.3447H10.3447H10.3447H10.3447H10.3447H10.3447H10.3447H10.3447H10.3447H10.3447H10.3447H10.3447H10.3447H10.3447H10.3447H10.3447H10.3447H10.3447H10.3447H10.3447H10.3447H10.3447H10.3447H10.3447H10.3447H10.3447H10.3447H10.3447H10.3447H10.3447H10.3447H10.3447H10.3447H10.3447H10.3447H10.3447H10.3447H10.3447H10.3447H10.3447H10.3447H10.3447H10.3447H10.3447H10.3447H10.3447H10.3447H10.3447H10.3447H10.3447H10.3447H10.3447H10.3447H10.3447H10.3447H10.3447H10.3447H10.3447H10.3447H10.3447H10.3447H10.3447H10.3447H10.3447H10.3447H10.3447H10.3447H10.3447H10.3447H10.3447H10.3447H10.3447H10.3447H10.3447H10.3447H10.3447H10.3447H10.3447H10.3447H10.3447H10.3447H10.3447H10.3447H10.3447H10.3447H10.3447H10.3447H10.3447H10.3447H10.3447H10.3447H10.3447H10.3447H10.3447H10.3447H10.3447H10.3447H10.3447H10.3447H10.3447H10.3447H10.3447H10.3447H10.3447H10.3447H10.3447H10.3447H10.3447H10.3448H10.3448H10.3448H10.3448H10.3448H10.3448H10.3448H10.3448H10.3448H10.3448H10.3448H10.3448H10.3448H10.3448H10.3448H10.3448H10.3448H10.3448H10.3448H10.3448H10.3448H10.3448H10.3448H10.3448H10.3448H10.3448H10.3448H10.3448H10.3448H10.3448H10.3448H10.3448H10.3448H10.3448H10.3448H10.3448H10.3448H10.3448H10.3448H10.3448H10.3448H10.3448H10.3448H10.3448H10.3448H10.3448H10.3448H10.3448H10.3448H10.3448H10.3448H10.3448H10.3448H10.3448H10.3448H10.3448H10.3448H10.3448H10.3448H10.3448H10.3448H10.3448H10.3448H10.3448H10.3448H10.3448H10.3448H10.3448H10.3448H10.3448H10.3448H10.3448H10.3448H10.3448H10.3448H10.3448H10.3448H10.3448H10.3448H10.3448H10.3448H10.3448H10.3448H10.3448H10.3448H10.3448H10.3448H10.3448H10.3448H10.3448H10.3448H10.3448H10.3448H10.3448H10.3448Z" fill="#106DB6" stroke="#106DB6"/>
<mask id="path-9-inside-4_38:217" fill="white">
<path d="M7.83831 6.74414C6.95323 6.74414 6.23315 7.46422 6.23315 8.3493C6.23315 9.23434 6.95323 9.95441 7.83831 9.95441C8.72339 9.95441 9.44343 9.23434 9.44343 8.3493C9.44343 7.46422 8.72339 6.74414 7.83831 6.74414V6.74414ZM7.83831 9.36863C7.2762 9.36863 6.81894 8.91137 6.81894 8.3493C6.81894 7.78719 7.27624 7.32992 7.83831 7.32992C8.40038 7.32992 8.85769 7.78719 8.85769 8.3493C8.85769 8.91137 8.40038 9.36863 7.83831 9.36863Z"/>
</mask>
<path d="M7.83831 6.74414C6.95323 6.74414 6.23315 7.46422 6.23315 8.3493C6.23315 9.23434 6.95323 9.95441 7.83831 9.95441C8.72339 9.95441 9.44343 9.23434 9.44343 8.3493C9.44343 7.46422 8.72339 6.74414 7.83831 6.74414V6.74414ZM7.83831 9.36863C7.2762 9.36863 6.81894 8.91137 6.81894 8.3493C6.81894 7.78719 7.27624 7.32992 7.83831 7.32992C8.40038 7.32992 8.85769 7.78719 8.85769 8.3493C8.85769 8.91137 8.40038 9.36863 7.83831 9.36863Z" fill="#106DB6"/>
<path d="M7.83831 5.74414C6.40095 5.74414 5.23315 6.91193 5.23315 8.3493H7.23315C7.23315 8.0165 7.50552 7.74414 7.83831 7.74414V5.74414ZM5.23315 8.3493C5.23315 9.78664 6.40096 10.9544 7.83831 10.9544V8.95441C7.5055 8.95441 7.23315 8.68203 7.23315 8.3493H5.23315ZM7.83831 10.9544C9.27569 10.9544 10.4434 9.7866 10.4434 8.3493H8.44343C8.44343 8.68207 8.17109 8.95441 7.83831 8.95441V10.9544ZM10.4434 8.3493C10.4434 6.91197 9.27571 5.74414 7.83831 5.74414V7.74414C8.17107 7.74414 8.44343 8.01647 8.44343 8.3493H10.4434ZM7.83831 8.36863C7.83448 8.36863 7.83298 8.36805 7.83199 8.36763C7.83032 8.36692 7.82769 8.36538 7.82493 8.36262C7.82217 8.35987 7.82063 8.35723 7.81993 8.35557C7.81952 8.35459 7.81894 8.35311 7.81894 8.3493H5.81894C5.81894 9.46368 6.72394 10.3686 7.83831 10.3686V8.36863ZM7.81894 8.3493C7.81894 8.34548 7.81952 8.34399 7.81994 8.343C7.82064 8.34134 7.82218 8.3387 7.82494 8.33593C7.82771 8.33317 7.83035 8.33163 7.83202 8.33092C7.83301 8.3305 7.8345 8.32992 7.83831 8.32992V6.32992C6.72398 6.32992 5.81894 7.23488 5.81894 8.3493H7.81894ZM7.83831 8.32992C7.84212 8.32992 7.84361 8.3305 7.8446 8.33092C7.84627 8.33163 7.84891 8.33317 7.85168 8.33593C7.85444 8.3387 7.85598 8.34134 7.85669 8.343C7.8571 8.34399 7.85769 8.34548 7.85769 8.3493H9.85769C9.85769 7.23488 8.95264 6.32992 7.83831 6.32992V8.32992ZM7.85769 8.3493C7.85769 8.35309 7.85711 8.35458 7.85669 8.35556C7.85599 8.35721 7.85445 8.35985 7.85169 8.36262C7.84892 8.36538 7.84628 8.36692 7.84461 8.36763C7.84362 8.36805 7.84212 8.36863 7.83831 8.36863V10.3686C8.95262 10.3686 9.85769 9.4637 9.85769 8.3493H7.85769Z" fill="#106DB6" mask="url(#path-9-inside-4_38:217)"/>
<path d="M4.01564 17.4455C4.21165 17.8459 4.63505 18.1178 4.96771 18.2098C5.07993 18.2409 5.19454 18.2559 5.30786 18.2559C5.62357 18.2559 5.92884 18.1391 6.14056 17.9256C6.35407 17.7103 6.45189 17.4292 6.52681 17.1827C6.58091 17.0046 6.63068 16.8249 6.67595 16.6439C6.9354 16.645 7.19861 16.642 7.41189 16.6335C7.41286 16.8714 7.48509 17.1049 7.71224 17.2459C7.94208 17.3886 8.25353 17.3595 8.48962 17.1742C8.61419 17.3094 8.78075 17.4066 8.95841 17.4441C9.26575 17.5089 9.60517 17.4304 9.96712 17.2108C10.1054 17.1269 10.1495 16.9468 10.0656 16.8085C9.98169 16.6702 9.80157 16.6261 9.66329 16.71C9.43275 16.8498 9.23638 16.9039 9.07923 16.8709C9.00482 16.8552 8.92743 16.7998 8.88665 16.7329C8.86997 16.7056 8.85236 16.6649 8.86294 16.6264C8.90329 16.4794 8.82411 16.326 8.68091 16.2737C8.53771 16.2215 8.37829 16.2878 8.3145 16.4263C8.26583 16.5319 8.20743 16.6498 8.12954 16.7121C8.0845 16.7483 8.03294 16.7536 8.02111 16.7482C8.00751 16.7398 7.96673 16.6481 8.03204 16.3821C8.05763 16.2779 8.02419 16.1681 7.94493 16.0958C7.86884 16.0264 7.76208 16.0023 7.664 16.0316C7.56821 16.0498 7.20489 16.0568 6.80611 16.0577C6.8547 15.8076 6.89482 15.556 6.92622 15.3039C6.94622 15.1434 6.83232 14.9971 6.67181 14.9771C6.51122 14.9572 6.36497 15.071 6.34497 15.2316C6.31064 15.507 6.26536 15.782 6.20935 16.0549C5.94079 16.0519 5.71345 16.0471 5.612 16.0421C5.24251 16.024 4.8822 16.0184 4.53657 16.1463C4.28212 16.2405 4.0797 16.4318 3.98118 16.6712C3.87825 16.9216 3.89013 17.1893 4.01564 17.4455V17.4455ZM4.5229 16.8942C4.55935 16.8056 4.63849 16.7333 4.73997 16.6957C4.90321 16.6353 5.09064 16.6184 5.28946 16.6184C5.38528 16.6184 5.48376 16.6223 5.58341 16.6272C5.58939 16.6275 5.79107 16.6332 6.07271 16.6379C6.03954 16.7635 6.00407 16.8884 5.96638 17.0124C5.90939 17.1999 5.84376 17.393 5.72466 17.5132C5.58579 17.6532 5.34443 17.7063 5.12384 17.6453C4.88767 17.58 4.63739 17.3834 4.54173 17.188C4.49064 17.0837 4.4845 16.9875 4.5229 16.8942V16.8942Z" fill="#106DB6"/>
</g>
<defs>
<clipPath id="clip0_38:217">
<rect width="20" height="20" fill="white"/>
</clipPath>
</defs>
</svg>
