<svg width="20" height="20" viewBox="0 0 20 20" fill="none" xmlns="http://www.w3.org/2000/svg">
<path d="M18.4135 12.6958C17.7507 12.1133 16.9469 11.6101 16.0242 11.2001C15.6297 11.0249 15.1682 11.2025 14.993 11.5968C14.8178 11.9911 14.9954 12.4527 15.3897 12.628C16.1678 12.9738 16.8382 13.3914 17.3822 13.8695C18.0528 14.4588 18.4375 15.312 18.4375 16.2109V17.6562C18.4375 18.087 18.087 18.4375 17.6562 18.4375H2.34375C1.91299 18.4375 1.5625 18.087 1.5625 17.6562V16.2109C1.5625 15.312 1.94717 14.4588 2.6178 13.8695C3.40714 13.1758 5.70694 11.5625 10 11.5625C13.1877 11.5625 15.7812 8.96896 15.7812 5.78125C15.7812 2.59354 13.1877 0 10 0C6.81229 0 4.21875 2.59354 4.21875 5.78125C4.21875 7.64481 5.10529 9.30496 6.47858 10.3629C3.96576 10.9152 2.40265 11.9785 1.58646 12.6958C0.578308 13.5815 0 14.8627 0 16.2109V17.6562C0 18.9487 1.05133 20 2.34375 20H17.6562C18.9487 20 20 18.9487 20 17.6562V16.2109C20 14.8627 19.4217 13.5815 18.4135 12.6958ZM5.78125 5.78125C5.78125 3.45505 7.6738 1.5625 10 1.5625C12.3262 1.5625 14.2188 3.45505 14.2188 5.78125C14.2188 8.10745 12.3262 10 10 10C7.6738 10 5.78125 8.10745 5.78125 5.78125Z" fill="#106DB6"/>
</svg>
