<svg width="17" height="17" viewBox="0 0 17 17" fill="none" xmlns="http://www.w3.org/2000/svg">
<g clip-path="url(#clip0_39:239)">
<path d="M8.50007 8.52197C4.0201 8.52197 0.375244 12.1669 0.375244 16.6468C0.375244 16.8418 0.533513 17.0001 0.728509 17.0001C0.923505 17.0001 1.08177 16.8418 1.08177 16.6468C1.08177 12.5561 4.40943 9.22847 8.5001 9.22847C12.5908 9.22847 15.9184 12.5561 15.9184 16.6468C15.9184 16.8418 16.0767 17.0001 16.2717 17.0001C16.4667 17.0001 16.625 16.8418 16.625 16.6468C16.6249 12.1661 12.98 8.52197 8.50007 8.52197Z" fill="#106DB6"/>
<path d="M8.4998 0C6.35765 0 4.61401 1.74294 4.61401 3.88578C4.61401 6.02862 6.35769 7.77156 8.4998 7.77156C10.6419 7.77156 12.3856 6.02862 12.3856 3.88578C12.3856 1.74294 10.6419 0 8.4998 0ZM8.4998 7.06507C6.74695 7.06507 5.32051 5.63863 5.32051 3.88578C5.32051 2.13294 6.74695 0.706497 8.4998 0.706497C10.2526 0.706497 11.6791 2.13294 11.6791 3.88578C11.6791 5.63863 10.2526 7.06507 8.4998 7.06507Z" fill="#106DB6"/>
</g>
<defs>
<clipPath id="clip0_39:239">
<rect width="17" height="17" fill="white"/>
</clipPath>
</defs>
</svg>
