<svg width="20" height="20" viewBox="0 0 20 20" fill="none" xmlns="http://www.w3.org/2000/svg">
<g clip-path="url(#clip0_35:123)">
<path d="M10 3.47827C8.32179 3.47827 6.95654 4.84347 6.95654 6.52176C6.95654 8.20005 8.32175 9.56525 10 9.56525C11.6783 9.56525 13.0435 8.20001 13.0435 6.52176C13.0435 4.84352 11.6783 3.47827 10 3.47827ZM10 8.69566C8.80179 8.69566 7.82613 7.72001 7.82613 6.52176C7.82613 5.32351 8.80179 4.34786 10 4.34786C11.1983 4.34786 12.1739 5.32351 12.1739 6.52176C12.1739 7.72001 11.1983 8.69566 10 8.69566Z" fill="#106DB6"/>
<path d="M16.087 6.95654C14.8887 6.95654 13.9131 7.93219 13.9131 9.13044C13.9131 10.3287 14.8887 11.3043 16.087 11.3043C17.2852 11.3043 18.2609 10.3287 18.2609 9.13044C18.2609 7.93219 17.2852 6.95654 16.087 6.95654ZM16.087 10.4348C15.3678 10.4348 14.7826 9.84958 14.7826 9.13044C14.7826 8.4113 15.3678 7.82609 16.087 7.82609C16.8061 7.82609 17.3913 8.4113 17.3913 9.13044C17.3913 9.84958 16.8061 10.4348 16.087 10.4348Z" fill="#106DB6"/>
<path d="M3.97492 6.95654C2.77578 6.95654 1.80103 7.93219 1.80103 9.13044C1.80103 10.3287 2.77668 11.3043 3.97492 11.3043C5.17317 11.3043 6.14882 10.3287 6.14882 9.13044C6.14882 7.93219 5.17403 6.95654 3.97492 6.95654ZM3.97492 10.4348C3.25578 10.4348 2.67058 9.84958 2.67058 9.13044C2.67058 8.4113 3.25578 7.82609 3.97492 7.82609C4.69407 7.82609 5.27927 8.4113 5.27927 9.13044C5.27927 9.84958 4.69403 10.4348 3.97492 10.4348Z" fill="#106DB6"/>
<path d="M10.0001 10.4348C6.88355 10.4348 4.3479 12.9705 4.3479 16.087C4.3479 16.327 4.5427 16.5218 4.7827 16.5218C5.0227 16.5218 5.21749 16.327 5.21749 16.087C5.21749 13.4496 7.36269 11.3044 10.0001 11.3044C12.6375 11.3044 14.7827 13.4496 14.7827 16.087C14.7827 16.327 14.9775 16.5218 15.2175 16.5218C15.4575 16.5218 15.6523 16.327 15.6523 16.087C15.6523 12.9705 13.1166 10.4348 10.0001 10.4348Z" fill="#106DB6"/>
<path d="M16.087 12.1741C15.3713 12.1741 14.6704 12.3697 14.06 12.7393C13.8557 12.8645 13.7896 13.1315 13.9139 13.3367C14.04 13.5419 14.3061 13.6071 14.5113 13.4828C14.9852 13.1949 15.5296 13.0436 16.087 13.0436C17.7652 13.0436 19.1305 14.4088 19.1305 16.0871C19.1305 16.3271 19.3253 16.5219 19.5653 16.5219C19.8053 16.5219 20 16.3271 20 16.0871C20 13.9297 18.2444 12.1741 16.087 12.1741Z" fill="#106DB6"/>
<path d="M5.93914 12.7384C5.32956 12.3697 4.62872 12.1741 3.91304 12.1741C1.75565 12.1741 0 13.9297 0 16.0871C0 16.3271 0.194796 16.5219 0.434796 16.5219C0.674796 16.5219 0.869592 16.3271 0.869592 16.0871C0.869551 14.4088 2.23479 13.0436 3.91304 13.0436C4.47045 13.0436 5.01477 13.1949 5.48784 13.4819C5.69217 13.6062 5.96001 13.541 6.08523 13.3358C6.21044 13.1306 6.14433 12.8636 5.93914 12.7384Z" fill="#106DB6"/>
</g>
<defs>
<clipPath id="clip0_35:123">
<rect width="20" height="20" fill="white"/>
</clipPath>
</defs>
</svg>
