<svg width="16" height="16" viewBox="0 0 16 16" fill="none" xmlns="http://www.w3.org/2000/svg">
<g id="vuesax/outline/document-text">
<g id="document-text">
<path id="Vector" d="M10.6667 15.1667H5.33333C2.9 15.1667 1.5 13.7667 1.5 11.3334V4.66671C1.5 2.23337 2.9 0.833374 5.33333 0.833374H10.6667C13.1 0.833374 14.5 2.23337 14.5 4.66671V11.3334C14.5 13.7667 13.1 15.1667 10.6667 15.1667ZM5.33333 1.83337C3.42667 1.83337 2.5 2.76004 2.5 4.66671V11.3334C2.5 13.24 3.42667 14.1667 5.33333 14.1667H10.6667C12.5733 14.1667 13.5 13.24 13.5 11.3334V4.66671C13.5 2.76004 12.5733 1.83337 10.6667 1.83337H5.33333Z" fill="#0041C4"/>
<path id="Vector_2" d="M11.0003 5.66667C10.2631 5.66667 9.66699 5.07052 9.66699 4.33333C9.66699 5.06948 10.2642 5.66667 11.0003 5.66667Z" fill="#0041C4" stroke="#0041C4"/>
<path id="Vector_3" d="M7.99967 9.16663H5.33301C5.05967 9.16663 4.83301 8.93996 4.83301 8.66663C4.83301 8.39329 5.05967 8.16663 5.33301 8.16663H7.99967C8.27301 8.16663 8.49967 8.39329 8.49967 8.66663C8.49967 8.93996 8.27301 9.16663 7.99967 9.16663Z" fill="#0041C4"/>
<path id="Vector_4" d="M10.6663 11.8334H5.33301C5.05967 11.8334 4.83301 11.6067 4.83301 11.3334C4.83301 11.06 5.05967 10.8334 5.33301 10.8334H10.6663C10.9397 10.8334 11.1663 11.06 11.1663 11.3334C11.1663 11.6067 10.9397 11.8334 10.6663 11.8334Z" fill="#0041C4"/>
</g>
</g>
</svg>
