<svg width="20" height="20" viewBox="0 0 20 20" fill="none" xmlns="http://www.w3.org/2000/svg">
<g id="vuesax/bold/document-download">
<g id="document-download">
<path id="Vector" d="M17.0834 8.49163H14.675C12.7 8.49163 11.0917 6.88329 11.0917 4.90829V2.49996C11.0917 2.04163 10.7167 1.66663 10.2584 1.66663H6.72504C4.15837 1.66663 2.08337 3.33329 2.08337 6.30829V13.6916C2.08337 16.6666 4.15837 18.3333 6.72504 18.3333H13.275C15.8417 18.3333 17.9167 16.6666 17.9167 13.6916V9.32496C17.9167 8.86663 17.5417 8.49163 17.0834 8.49163ZM10.2334 13.15L8.56671 14.8166C8.50837 14.875 8.43337 14.925 8.35837 14.95C8.28337 14.9833 8.20837 15 8.12504 15C8.04171 15 7.96671 14.9833 7.89171 14.95C7.82504 14.925 7.75837 14.875 7.70837 14.825C7.70004 14.8166 7.69171 14.8166 7.69171 14.8083L6.02504 13.1416C5.78337 12.9 5.78337 12.5 6.02504 12.2583C6.26671 12.0166 6.66671 12.0166 6.90837 12.2583L7.50004 12.8666V9.37496C7.50004 9.03329 7.78337 8.74996 8.12504 8.74996C8.46671 8.74996 8.75004 9.03329 8.75004 9.37496V12.8666L9.35004 12.2666C9.59171 12.025 9.99171 12.025 10.2334 12.2666C10.475 12.5083 10.475 12.9083 10.2334 13.15Z" fill="#0041C4"/>
<path id="Vector_2" d="M14.5249 7.3417C15.3166 7.35003 16.4166 7.35003 17.3583 7.35003C17.8333 7.35003 18.0833 6.7917 17.7499 6.45837C16.5499 5.25003 14.3999 3.07503 13.1666 1.8417C12.8249 1.50003 12.2333 1.73337 12.2333 2.20837V5.1167C12.2333 6.33337 13.2666 7.3417 14.5249 7.3417Z" fill="#0041C4"/>
</g>
</g>
</svg>
