<svg width="16" height="16" viewBox="0 0 16 16" fill="none" xmlns="http://www.w3.org/2000/svg">
<g id="vuesax/bold/document-code-2">
<g id="document-code-2">
<path id="Vector" d="M10.6667 1.33325H5.33333C3 1.33325 2 2.66659 2 4.66659V7.64659C2 7.87992 2.22667 8.03992 2.44 7.95992C3.17333 7.67325 4.00667 7.57992 4.86667 7.75325C6.6 8.09992 7.98 9.52659 8.26667 11.2666C8.44 12.3266 8.22667 13.3333 7.74 14.1666C7.60667 14.3866 7.76667 14.6666 8.02667 14.6666H10.6667C13 14.6666 14 13.3333 14 11.3333V4.66659C14 2.66659 13 1.33325 10.6667 1.33325ZM12.3333 6.16659H11C9.98667 6.16659 9.16667 5.34659 9.16667 4.33325V2.99992C9.16667 2.72659 9.39333 2.49992 9.66667 2.49992C9.94 2.49992 10.1667 2.72659 10.1667 2.99992V4.33325C10.1667 4.79325 10.54 5.16659 11 5.16659H12.3333C12.6067 5.16659 12.8333 5.39325 12.8333 5.66659C12.8333 5.93992 12.6067 6.16659 12.3333 6.16659Z" fill="#286CF5"/>
<path id="Vector_2" d="M3.99996 8.66675C2.15996 8.66675 0.666626 10.1601 0.666626 12.0001C0.666626 13.8401 2.15996 15.3334 3.99996 15.3334C5.83996 15.3334 7.33329 13.8401 7.33329 12.0001C7.33329 10.1601 5.83996 8.66675 3.99996 8.66675ZM3.43996 12.8467C3.60663 13.0134 3.60663 13.2867 3.43996 13.4601C3.35329 13.5467 3.24663 13.5867 3.13329 13.5867C3.01996 13.5867 2.91329 13.5467 2.82663 13.4601L1.67329 12.3067C1.50663 12.1401 1.50663 11.8667 1.67329 11.6934L2.82663 10.5401C2.99329 10.3734 3.26663 10.3734 3.43996 10.5401C3.60663 10.7067 3.60663 10.9801 3.43996 11.1534L2.59329 12.0001L3.43996 12.8467ZM6.31996 12.3067L5.16663 13.4601C5.07996 13.5467 4.97329 13.5867 4.85996 13.5867C4.74663 13.5867 4.63996 13.5467 4.55329 13.4601C4.38663 13.2934 4.38663 13.0201 4.55329 12.8467L5.40663 12.0001L4.55996 11.1534C4.39329 10.9867 4.39329 10.7134 4.55996 10.5401C4.72663 10.3734 4.99996 10.3734 5.17329 10.5401L6.32663 11.6934C6.48663 11.8667 6.48663 12.1334 6.31996 12.3067Z" fill="#286CF5"/>
</g>
</g>
</svg>
