<svg width="16" height="16" viewBox="0 0 16 16" fill="none" xmlns="http://www.w3.org/2000/svg">
<g id="vuesax/bold/document">
<g id="document">
<path id="Vector" d="M10.7934 1.33337H5.20671C2.78004 1.33337 1.33337 2.78004 1.33337 5.20671V10.7867C1.33337 13.22 2.78004 14.6667 5.20671 14.6667H10.7867C13.2134 14.6667 14.66 13.22 14.66 10.7934V5.20671C14.6667 2.78004 13.22 1.33337 10.7934 1.33337ZM10.5 10.5H5.50004C5.22671 10.5 5.00004 10.2734 5.00004 10C5.00004 9.72671 5.22671 9.50004 5.50004 9.50004H10.5C10.7734 9.50004 11 9.72671 11 10C11 10.2734 10.7734 10.5 10.5 10.5ZM10.5 6.50004H5.50004C5.22671 6.50004 5.00004 6.27337 5.00004 6.00004C5.00004 5.72671 5.22671 5.50004 5.50004 5.50004H10.5C10.7734 5.50004 11 5.72671 11 6.00004C11 6.27337 10.7734 6.50004 10.5 6.50004Z" fill="#286CF5"/>
</g>
</g>
</svg>
