<svg width="16" height="16" viewBox="0 0 16 16" fill="none" xmlns="http://www.w3.org/2000/svg">
<g id="vuesax/bold/document-copy">
<g id="document-copy">
<path id="Vector" d="M10.3334 8.76663H8.88671C7.70004 8.76663 6.73337 7.80663 6.73337 6.61329V5.16663C6.73337 4.89329 6.51337 4.66663 6.23337 4.66663H4.12004C2.58004 4.66663 1.33337 5.66663 1.33337 7.45329V11.88C1.33337 13.6666 2.58004 14.6666 4.12004 14.6666H8.04671C9.58671 14.6666 10.8334 13.6666 10.8334 11.88V9.26663C10.8334 8.98663 10.6067 8.76663 10.3334 8.76663Z" fill="#286CF5"/>
<path id="Vector_2" d="M11.88 1.33337H10.5667H9.84001H7.95334C6.44667 1.33337 5.22667 2.29337 5.17334 4.00671C5.21334 4.00671 5.24667 4.00004 5.28667 4.00004H7.17334H7.90001H9.21334C10.7533 4.00004 12 5.00004 12 6.78671V8.10004V9.90671V11.22C12 11.26 11.9933 11.2934 11.9933 11.3267C13.48 11.28 14.6667 10.2934 14.6667 8.55337V7.24004V5.43337V4.12004C14.6667 2.33337 13.42 1.33337 11.88 1.33337Z" fill="#286CF5"/>
<path id="Vector_3" d="M7.98664 4.76662C7.77997 4.55996 7.42664 4.69996 7.42664 4.98662V6.73329C7.42664 7.46662 8.04664 8.06662 8.80664 8.06662C9.27997 8.07329 9.93997 8.07329 10.5066 8.07329C10.7933 8.07329 10.94 7.73996 10.74 7.53996C10.0133 6.81329 8.71997 5.51329 7.98664 4.76662Z" fill="#286CF5"/>
</g>
</g>
</svg>
