<svg width="20" height="20" viewBox="0 0 20 20" fill="none" xmlns="http://www.w3.org/2000/svg">
<g id="vuesax/bold/document-normal">
<g id="document-normal">
<path id="Vector" d="M17.2584 6.76665V14.6083C17.2584 16.6583 15.5834 18.3333 13.5334 18.3333H6.4667C4.4167 18.3333 2.7417 16.6583 2.7417 14.6083V6.76665C2.7417 5.34165 3.5417 4.09998 4.7167 3.47498C5.12503 3.25832 5.63337 3.54998 5.63337 4.01665C5.63337 5.34165 6.7167 6.42498 8.0417 6.42498H11.9584C13.2834 6.42498 14.3667 5.34165 14.3667 4.01665C14.3667 3.54998 14.8667 3.25832 15.2834 3.47498C16.4584 4.09998 17.2584 5.34165 17.2584 6.76665Z" fill="#0041C4"/>
<path id="Vector_2" d="M11.9583 1.66663H8.04167C7.17501 1.66663 6.46667 2.36663 6.46667 3.23329V4.01663C6.46667 4.88329 7.16667 5.58329 8.03334 5.58329H11.9583C12.825 5.58329 13.525 4.88329 13.525 4.01663V3.23329C13.5333 2.36663 12.825 1.66663 11.9583 1.66663Z" fill="#0041C4"/>
</g>
</g>
</svg>
