<svg width="16" height="16" viewBox="0 0 16 16" fill="none" xmlns="http://www.w3.org/2000/svg">
<path d="M10.6667 1.33325H5.33333C3 1.33325 2 2.66659 2 4.66659V11.3333C2 13.3333 3 14.6666 5.33333 14.6666H10.6667C13 14.6666 14 13.3333 14 11.3333V4.66659C14 2.66659 13 1.33325 10.6667 1.33325ZM5.33333 8.16659H8C8.27333 8.16659 8.5 8.39325 8.5 8.66659C8.5 8.93992 8.27333 9.16659 8 9.16659H5.33333C5.06 9.16659 4.83333 8.93992 4.83333 8.66659C4.83333 8.39325 5.06 8.16659 5.33333 8.16659ZM10.6667 11.8333H5.33333C5.06 11.8333 4.83333 11.6066 4.83333 11.3333C4.83333 11.0599 5.06 10.8333 5.33333 10.8333H10.6667C10.94 10.8333 11.1667 11.0599 11.1667 11.3333C11.1667 11.6066 10.94 11.8333 10.6667 11.8333ZM12.3333 6.16659H11C9.98667 6.16659 9.16667 5.34659 9.16667 4.33325V2.99992C9.16667 2.72659 9.39333 2.49992 9.66667 2.49992C9.94 2.49992 10.1667 2.72659 10.1667 2.99992V4.33325C10.1667 4.79325 10.54 5.16659 11 5.16659H12.3333C12.6067 5.16659 12.8333 5.39325 12.8333 5.66659C12.8333 5.93992 12.6067 6.16659 12.3333 6.16659Z" fill="#286CF5"/>
</svg>
