<svg width="16" height="16" viewBox="0 0 16 16" fill="none" xmlns="http://www.w3.org/2000/svg">
<g id="vuesax/bold/document-forward">
<g id="document-forward">
<path id="Vector" d="M13.6667 6.79301H11.74C10.16 6.79301 8.87335 5.50634 8.87335 3.92634V1.99967C8.87335 1.63301 8.57335 1.33301 8.20669 1.33301H5.38002C3.32669 1.33301 1.66669 2.66634 1.66669 5.04634V10.953C1.66669 13.333 3.32669 14.6663 5.38002 14.6663H10.62C12.6734 14.6663 14.3334 13.333 14.3334 10.953V7.45967C14.3334 7.09301 14.0334 6.79301 13.6667 6.79301ZM9.16669 9.95967C9.16669 9.99301 9.16669 10.033 9.16669 10.0663C9.15335 10.1597 9.11335 10.2463 9.04669 10.3263C9.04002 10.333 9.02669 10.3463 9.02002 10.353L7.68669 11.6863C7.58669 11.7863 7.46002 11.833 7.33335 11.833C7.20669 11.833 7.08002 11.7863 6.98002 11.6863C6.78669 11.493 6.78669 11.173 6.98002 10.9797L7.46002 10.4997H4.66669C4.39335 10.4997 4.16669 10.273 4.16669 9.99967C4.16669 9.72634 4.39335 9.49967 4.66669 9.49967H7.46002L6.98002 9.01967C6.88002 8.91967 6.83335 8.79301 6.83335 8.66634C6.83335 8.53967 6.88002 8.41301 6.98002 8.31301C7.17335 8.11967 7.49335 8.11967 7.68669 8.31301L9.02002 9.64634C9.10669 9.73967 9.15335 9.84634 9.16669 9.95967Z" fill="#286CF5"/>
<path id="Vector_2" d="M11.62 5.87365C12.2533 5.88032 13.1333 5.88032 13.8867 5.88032C14.2667 5.88032 14.4667 5.43365 14.2 5.16699C13.24 4.20032 11.52 2.46032 10.5333 1.47365C10.26 1.20032 9.78668 1.38699 9.78668 1.76699V4.09365C9.78668 5.06699 10.6133 5.87365 11.62 5.87365Z" fill="#286CF5"/>
</g>
</g>
</svg>
