<svg width="16" height="16" viewBox="0 0 16 16" fill="none" xmlns="http://www.w3.org/2000/svg">
<path d="M10.6667 15.1667H5.33333C2.9 15.1667 1.5 13.7667 1.5 11.3333V4.66666C1.5 2.23333 2.9 0.833328 5.33333 0.833328H10.6667C13.1 0.833328 14.5 2.23333 14.5 4.66666V11.3333C14.5 13.7667 13.1 15.1667 10.6667 15.1667ZM5.33333 1.83333C3.42667 1.83333 2.5 2.75999 2.5 4.66666V11.3333C2.5 13.24 3.42667 14.1667 5.33333 14.1667H10.6667C12.5733 14.1667 13.5 13.24 13.5 11.3333V4.66666C13.5 2.75999 12.5733 1.83333 10.6667 1.83333H5.33333Z" fill="white"/>
<path d="M10.9998 5.66667C10.2626 5.66667 9.6665 5.07052 9.6665 4.33333C9.6665 5.06948 10.2637 5.66667 10.9998 5.66667Z" fill="white" stroke="white"/>
<path d="M8.00016 9.16667H5.3335C5.06016 9.16667 4.8335 8.94001 4.8335 8.66667C4.8335 8.39334 5.06016 8.16667 5.3335 8.16667H8.00016C8.2735 8.16667 8.50016 8.39334 8.50016 8.66667C8.50016 8.94001 8.2735 9.16667 8.00016 9.16667Z" fill="white"/>
<path d="M10.6668 11.8333H5.3335C5.06016 11.8333 4.8335 11.6067 4.8335 11.3333C4.8335 11.06 5.06016 10.8333 5.3335 10.8333H10.6668C10.9402 10.8333 11.1668 11.06 11.1668 11.3333C11.1668 11.6067 10.9402 11.8333 10.6668 11.8333Z" fill="white"/>
</svg>
