<svg width="12" height="13" viewBox="0 0 12 13" fill="none" xmlns="http://www.w3.org/2000/svg">
<path d="M5.79346 0.138002C5.66666 0.179405 5.4493 0.401943 5.41049 0.533914C5.3872 0.616718 5.37944 1.45512 5.37944 4.079V7.51799L4.68594 6.82709C3.94587 6.08702 3.8993 6.05338 3.65606 6.05338C3.21616 6.05338 2.91599 6.51398 3.09712 6.91507C3.13594 6.99787 3.48786 7.36532 4.42459 8.29687C5.7857 9.65022 5.75982 9.62693 6.00565 9.62693C6.24371 9.62693 6.24889 9.62434 7.58929 8.28652C8.43545 7.44295 8.86759 6.9927 8.90123 6.92283C8.96592 6.78568 8.96592 6.54244 8.90123 6.4053C8.80031 6.19052 8.58295 6.05338 8.3423 6.05338C8.10165 6.05338 8.05248 6.08702 7.315 6.82709L6.62151 7.51799V4.079C6.62151 1.49652 6.61375 0.614131 6.59046 0.539089C6.54647 0.386417 6.36274 0.194931 6.21525 0.145766C6.0781 0.0991879 5.92543 0.0966005 5.79346 0.138002Z" fill="white"/>
<path d="M0.410653 5.52082C0.276095 5.56481 0.0664948 5.78476 0.02768 5.92708C0.00180344 6.01765 -0.00337187 6.64903 0.00180344 8.68293L0.0095664 11.3223L0.0923713 11.4957C0.206228 11.7364 0.351137 11.8864 0.586613 12.0029L0.783275 12.0986H5.99998H11.2167L11.4134 12.0029C11.6488 11.8864 11.7937 11.7364 11.9076 11.4957L11.9904 11.3223L11.9982 8.68293C12.0033 6.70855 11.9982 6.01506 11.9749 5.93225C11.9309 5.77441 11.7498 5.58033 11.5971 5.52858C11.3461 5.44319 11.1442 5.48977 10.9553 5.68125C10.8725 5.76147 10.813 5.84945 10.7923 5.91673C10.769 5.99695 10.7613 6.62057 10.7613 8.44745V10.8695H5.99998H1.2387V8.44745C1.2387 6.64903 1.23094 5.99695 1.20765 5.9219C1.16366 5.76923 0.979937 5.57775 0.83244 5.52858C0.695295 5.482 0.542623 5.47942 0.410653 5.52082Z" fill="white"/>
</svg>
