<svg width="16" height="16" viewBox="0 0 16 16" fill="none" xmlns="http://www.w3.org/2000/svg">
<g id="vuesax/bold/arrow-down">
<g id="arrow-down">
<path id="Vector" d="M7.99967 1.33325C4.31967 1.33325 1.33301 4.31992 1.33301 7.99992C1.33301 11.6799 4.31967 14.6666 7.99967 14.6666C11.6797 14.6666 14.6663 11.6799 14.6663 7.99992C14.6663 4.31992 11.6797 1.33325 7.99967 1.33325ZM10.353 8.68659L8.35301 10.6866C8.25301 10.7866 8.12634 10.8333 7.99967 10.8333C7.87301 10.8333 7.74634 10.7866 7.64634 10.6866L5.64634 8.68659C5.45301 8.49325 5.45301 8.17325 5.64634 7.97992C5.83967 7.78659 6.15967 7.78659 6.35301 7.97992L7.49967 9.12659V5.66659C7.49967 5.39325 7.72634 5.16659 7.99967 5.16659C8.27301 5.16659 8.49967 5.39325 8.49967 5.66659V9.12659L9.64634 7.97992C9.83967 7.78659 10.1597 7.78659 10.353 7.97992C10.5463 8.17325 10.5463 8.49325 10.353 8.68659Z" fill="#286CF5"/>
</g>
</g>
</svg>
