<svg width="16" height="16" viewBox="0 0 16 16" fill="none" xmlns="http://www.w3.org/2000/svg">
<g id="vuesax/bold/edit">
<g id="edit">
<path id="Vector" d="M10.7933 1.33325H5.20665C2.77998 1.33325 1.33331 2.77992 1.33331 5.20659V10.7866C1.33331 13.2199 2.77998 14.6666 5.20665 14.6666H10.7866C13.2133 14.6666 14.66 13.2199 14.66 10.7933V5.20659C14.6666 2.77992 13.22 1.33325 10.7933 1.33325ZM7.29998 11.6733C7.10665 11.8666 6.73998 12.0533 6.47331 12.0933L4.83331 12.3266C4.77331 12.3333 4.71331 12.3399 4.65331 12.3399C4.37998 12.3399 4.12665 12.2466 3.94665 12.0666C3.72665 11.8466 3.63331 11.5266 3.68665 11.1733L3.91998 9.53325C3.95998 9.25992 4.13998 8.89992 4.33998 8.70659L7.31331 5.73325C7.36665 5.87325 7.41998 6.01325 7.49331 6.17325C7.55998 6.31325 7.63331 6.45992 7.71331 6.59325C7.77998 6.70659 7.85331 6.81325 7.91331 6.89325C7.98665 7.00659 8.07331 7.11325 8.12665 7.17325C8.15998 7.21992 8.18665 7.25325 8.19998 7.26659C8.36665 7.46659 8.55998 7.65325 8.72665 7.79325C8.77331 7.83992 8.79998 7.86659 8.81331 7.87325C8.91331 7.95325 9.01331 8.03325 9.09998 8.09325C9.20665 8.17325 9.31331 8.24659 9.42665 8.30659C9.55998 8.38659 9.70665 8.45992 9.85331 8.53325C10.0066 8.59992 10.1466 8.65992 10.2866 8.70659L7.29998 11.6733ZM11.58 7.39325L10.9666 8.01325C10.9266 8.05325 10.8733 8.07325 10.82 8.07325C10.8 8.07325 10.7733 8.07325 10.76 8.06659C9.40665 7.67992 8.32665 6.59992 7.93998 5.24659C7.91998 5.17325 7.93998 5.09325 7.99331 5.04659L8.61331 4.42659C9.62665 3.41325 10.5933 3.43325 11.5866 4.42659C12.0933 4.93325 12.34 5.41992 12.34 5.92659C12.3333 6.40659 12.0866 6.88659 11.58 7.39325Z" fill="#286CF5"/>
</g>
</g>
</svg>
