<svg width="30" height="30" viewBox="0 0 30 30" fill="none" xmlns="http://www.w3.org/2000/svg">
<path d="M16.6817 0.725462C16.0547 0.953978 15.791 1.36413 15.6504 2.34265C15.586 2.76452 15.5098 3.08093 15.4629 3.12781C15.416 3.16882 15.0703 3.30359 14.6895 3.42663L13.9922 3.65515L13.459 3.10437C12.8379 2.47156 12.5684 2.32507 12.041 2.32507C11.6543 2.32507 11.3848 2.4364 10.8692 2.79968C9.91995 3.47937 9.6973 3.81335 9.73831 4.4989C9.75589 4.87976 9.90237 5.23132 10.3477 6.01062C10.4532 6.19226 10.4532 6.19812 10.3125 6.4032C10.2305 6.51452 10.0254 6.80749 9.8555 7.05359C9.50394 7.55749 9.53323 7.55163 8.80667 7.41101C7.89261 7.23523 7.3887 7.32312 6.98441 7.73327C6.73831 7.97937 6.67386 8.10242 6.42191 8.86999C6.19339 9.5614 6.15823 9.91882 6.29886 10.3055C6.4512 10.7509 6.64456 10.9266 7.37112 11.3075C7.75198 11.5009 8.16214 11.7176 8.28519 11.788C8.49612 11.9051 8.53128 11.9051 8.75394 11.829C8.93558 11.7645 9.01761 11.6942 9.09964 11.5301C9.32816 11.0673 9.0762 10.7391 8.16214 10.2997C7.83401 10.1415 7.53519 9.97156 7.49417 9.92468C7.43558 9.84851 7.45316 9.73132 7.6055 9.25671C7.71097 8.94031 7.83401 8.64734 7.88675 8.60632C7.95706 8.54773 8.11526 8.55945 8.68948 8.65906C9.93753 8.86999 10.1895 8.75281 11.0157 7.59265C11.5371 6.86023 11.6602 6.5907 11.6602 6.19812C11.6602 5.89343 11.6192 5.7821 11.3086 5.17273C11.1153 4.79773 10.9571 4.44617 10.9571 4.39343C10.9571 4.27038 11.877 3.57898 12.041 3.57312C12.1172 3.57312 12.3516 3.76648 12.6563 4.07702C13.2246 4.65124 13.5879 4.86218 14.0274 4.86218C14.4082 4.86218 15.9141 4.37585 16.2129 4.15906C16.5762 3.88952 16.7461 3.51452 16.8575 2.72351C16.9102 2.33679 16.9922 2.00281 17.0332 1.95593C17.0977 1.89734 17.2852 1.8739 17.7188 1.8739C18.2227 1.8739 18.334 1.89148 18.4102 1.97351C18.4629 2.03796 18.5391 2.35437 18.5918 2.74109C18.6973 3.52038 18.8496 3.86609 19.2012 4.13562C19.5059 4.36999 21.0176 4.86218 21.4278 4.86218C21.8614 4.86218 22.2305 4.64538 22.7871 4.07117C23.086 3.76062 23.3145 3.57312 23.3907 3.57312C23.5371 3.57312 24.416 4.20593 24.4629 4.35242C24.4864 4.41687 24.375 4.6864 24.1641 5.07898C23.8946 5.5946 23.8242 5.77038 23.8008 6.06921C23.7657 6.55554 23.8477 6.78406 24.3399 7.46374C24.9082 8.26062 25.1016 8.4657 25.3946 8.61218C25.711 8.76452 26.0567 8.77038 26.8535 8.64148C27.3985 8.54773 27.4981 8.54773 27.5684 8.61804C27.6856 8.73523 28.0137 9.76648 27.9668 9.87781C27.9492 9.92468 27.668 10.1005 27.3399 10.2645C26.584 10.6454 26.4258 10.7684 26.2149 11.1434C26.0508 11.4423 26.045 11.4833 26.0332 12.3622C26.0098 13.8622 26.1621 14.1434 27.2989 14.7001C27.6563 14.8759 27.961 15.0575 27.9785 15.1044C28.0254 15.2333 27.6446 16.3466 27.5332 16.411C27.4688 16.4403 27.1875 16.4169 26.7715 16.3407C25.6172 16.1298 25.2481 16.2704 24.586 17.1844C23.836 18.2216 23.8242 18.2509 23.8008 18.7196C23.7774 19.1298 23.7832 19.1415 24.1407 19.8446C24.3516 20.2489 24.4922 20.6005 24.4746 20.6473C24.4278 20.7645 23.502 21.4442 23.3848 21.4442C23.3379 21.4442 23.045 21.1923 22.7344 20.8876C21.8496 20.0204 21.627 19.9794 20.2617 20.4188C18.9727 20.829 18.7617 21.0575 18.6035 22.1884C18.4805 23.0262 18.4571 23.0731 18.1524 23.12C17.5489 23.2196 17.3789 23.911 17.8711 24.245C18.3457 24.5673 19.2364 24.1981 19.5762 23.536C19.6407 23.413 19.7344 23.0321 19.7813 22.6864C19.8282 22.3407 19.8867 22.0067 19.9102 21.9481C19.9453 21.8719 20.1621 21.7723 20.6309 21.6141C20.9942 21.4911 21.334 21.3915 21.3809 21.3856C21.4278 21.3856 21.7325 21.6434 22.0547 21.9598C22.6875 22.5692 22.8809 22.6747 23.3907 22.6747C23.7657 22.6747 23.9883 22.5868 24.5684 22.1884C25.4414 21.5966 25.7227 21.1864 25.7227 20.5184C25.7227 20.2665 25.6641 20.1024 25.3594 19.5048C24.9492 18.6903 24.9317 18.8544 25.5059 18.0516C25.6934 17.7938 25.8867 17.5536 25.9395 17.5301C25.9922 17.5009 26.2559 17.5184 26.5957 17.5829C27.3692 17.7294 27.6797 17.7235 28.0371 17.5536C28.5528 17.3075 28.7871 16.9501 29.0918 15.9012C29.2617 15.3094 29.2735 15.0575 29.1504 14.7059C28.9864 14.243 28.7578 14.0321 28.0196 13.663L27.334 13.3231L27.3164 12.5028L27.2989 11.6825L27.9024 11.3954C28.834 10.9442 29.1563 10.5868 29.2207 9.93054C29.25 9.67273 29.2149 9.48523 29.0098 8.84656C28.7989 8.19031 28.7285 8.0321 28.5176 7.80945C28.0547 7.30554 27.6739 7.22937 26.5782 7.41687L25.9395 7.5282L25.8164 7.35827C25.7461 7.26452 25.541 6.98327 25.3594 6.73132C25.1719 6.48523 25.0196 6.25085 25.0196 6.2157C25.0196 6.18054 25.1778 5.84656 25.3711 5.47742C25.6934 4.86218 25.7227 4.77429 25.7227 4.42859C25.7227 3.84851 25.5293 3.52624 24.8731 3.0282C24.1114 2.44812 23.8418 2.31921 23.3789 2.31921C22.8633 2.31921 22.4942 2.51843 21.9844 3.09265C21.7735 3.32702 21.5508 3.54382 21.4981 3.57898C21.4219 3.61999 21.1934 3.56726 20.6543 3.39148C20.0567 3.19226 19.916 3.12781 19.8926 3.02234C19.8809 2.95788 19.8282 2.62976 19.7813 2.30163C19.7344 1.97937 19.6524 1.61023 19.5938 1.48718C19.4414 1.17077 19.084 0.842649 18.7676 0.737181C18.416 0.614134 17.0098 0.608274 16.6817 0.725462Z" fill="#106DB6"/>
<path d="M17.0508 6.91602C15.7559 7.07422 14.584 7.67188 13.6465 8.66211C12.7383 9.62305 12.2578 10.666 12.1289 11.9785C12.0176 13.1504 12.1934 13.625 12.7442 13.625C12.9492 13.625 13.0371 13.5898 13.166 13.4609C13.3242 13.3027 13.3301 13.2793 13.3653 12.4648C13.3946 11.7441 13.4239 11.5625 13.5762 11.1172C13.8281 10.3965 14.0742 10.0098 14.6485 9.43555C15.211 8.87305 15.6914 8.56836 16.377 8.33984C16.8047 8.19336 16.9278 8.18164 17.7246 8.17578C18.5391 8.17578 18.6387 8.1875 19.0723 8.33984C19.7637 8.58594 20.2969 8.91992 20.8301 9.45898C21.3516 9.98633 21.6856 10.5488 21.9258 11.3105C22.1192 11.9434 22.1192 13.0742 21.9199 13.7129C21.5391 14.9434 20.7129 15.916 19.5996 16.4434C19.002 16.7305 18.5742 16.8242 17.7832 16.8535C16.8809 16.8887 16.834 16.9004 16.6992 17.1289C16.5293 17.4043 16.5469 17.6562 16.752 17.8848L16.9219 18.0781H17.7949C18.7324 18.0723 19.0078 18.0254 19.8457 17.7031C21.0996 17.2168 22.2774 16.0801 22.8574 14.7852C23.2031 14.0117 23.291 13.5488 23.291 12.4824C23.291 11.6504 23.2735 11.4512 23.1563 11.0527C22.8867 10.1152 22.4473 9.3418 21.8028 8.65625C21.2871 8.10547 20.8125 7.76562 20.127 7.44336C19.459 7.12695 19.043 7.00391 18.3399 6.91602C17.7949 6.85156 17.6133 6.85156 17.0508 6.91602Z" fill="#106DB6"/>
<path d="M8.12695 13.207C7.59375 13.4004 7.28906 13.7871 7.20117 14.3965C7.16602 14.6191 7.13086 14.877 7.11328 14.9707C7.08984 15.1348 7.04297 15.1699 6.57422 15.3691C6.28711 15.4863 6.0293 15.5859 5.99414 15.5859C5.95898 15.5859 5.77148 15.457 5.57227 15.2988C5.09766 14.918 4.78125 14.8008 4.37109 14.8418C3.92578 14.8887 3.73242 15.0059 3.18164 15.5566C2.77734 15.9668 2.68945 16.0957 2.60742 16.3711C2.44922 16.9219 2.54883 17.2676 3.05273 17.9063L3.33398 18.2637L3.14062 18.7266C3.0293 18.9785 2.92969 19.2305 2.91211 19.2832C2.88867 19.3535 2.77734 19.3945 2.50781 19.4238C1.66992 19.5117 1.23633 19.7461 0.990234 20.25C0.878906 20.4844 0.861328 20.6191 0.861328 21.2344C0.861328 22.0606 0.949219 22.3418 1.3125 22.6641C1.59961 22.916 1.74023 22.9688 2.34375 23.0508C2.89453 23.127 2.83008 23.0625 3.16406 23.8125C3.36328 24.2695 3.38672 24.1816 2.90625 24.7969C2.56055 25.2481 2.47266 25.6406 2.60742 26.1094C2.68359 26.3789 2.7832 26.5195 3.16992 26.9238C3.72656 27.5039 4.00195 27.6563 4.4707 27.6563C4.89844 27.6563 5.13281 27.5566 5.60156 27.1816L5.97656 26.8828L6.46875 27.0938C6.73828 27.2109 6.98437 27.3047 7.01953 27.3047C7.08398 27.3047 7.11914 27.4512 7.17773 27.9785C7.20117 28.1719 7.25977 28.4297 7.30664 28.5469C7.41797 28.8281 7.83398 29.1973 8.13281 29.2852C8.47852 29.3906 9.62109 29.3731 9.89062 29.2617C10.3477 29.0742 10.6758 28.6231 10.7461 28.0957C10.8457 27.334 10.8398 27.3574 11.0684 27.2695C11.1855 27.2227 11.4316 27.1172 11.6133 27.0293L11.9473 26.877L12.375 27.2051C12.6094 27.3867 12.8789 27.5625 12.9668 27.5918C13.207 27.6856 13.7402 27.668 13.9805 27.5684C14.25 27.457 15.0937 26.6426 15.2402 26.3555C15.5215 25.8106 15.4395 25.3418 14.9707 24.7149C14.7949 24.4805 14.6484 24.2578 14.6484 24.2285C14.6484 24.1641 15 23.2793 15.0703 23.168C15.0937 23.1328 15.293 23.0859 15.5098 23.0625C16.1191 23.0039 16.3359 22.9219 16.6113 22.6699C16.9805 22.3301 17.0801 22.0254 17.0801 21.2402C17.0801 20.5137 17.0098 20.25 16.7402 19.9453C16.4824 19.6465 16.1719 19.5117 15.5918 19.4414L15.082 19.377L14.8652 18.8672C14.748 18.5859 14.6484 18.3223 14.6484 18.2813C14.6484 18.2344 14.7656 18.0527 14.9062 17.877C15.3867 17.2559 15.4805 16.9219 15.3281 16.3828C15.2461 16.1074 15.1523 15.9668 14.7891 15.5859C13.9102 14.666 13.2656 14.584 12.3926 15.2754C12.2344 15.3984 12.0645 15.5274 12.0234 15.5508C11.9824 15.5742 11.7129 15.4981 11.3965 15.375L10.8457 15.1524L10.8105 14.8887C10.7285 14.2441 10.6523 13.9629 10.5 13.7402C10.3125 13.4707 10.0312 13.2656 9.73242 13.1836C9.42773 13.1016 8.39062 13.1133 8.12695 13.207ZM9.45703 14.4199C9.48047 14.4375 9.52148 14.6719 9.55664 14.9414C9.62109 15.4922 9.70312 15.7149 9.91992 15.9668C10.0898 16.1719 10.2187 16.2422 11.0449 16.5879C11.9707 16.9746 12.3105 16.9277 13.0898 16.3242C13.2773 16.1777 13.4414 16.0547 13.459 16.0547C13.5352 16.0547 14.1211 16.6699 14.1211 16.752C14.1211 16.8047 14.0039 16.9922 13.8633 17.1738C13.7227 17.3555 13.5645 17.584 13.5117 17.6836C13.3828 17.9356 13.3359 18.334 13.4062 18.5742C13.5352 18.9961 13.957 19.957 14.0918 20.1328C14.2852 20.3848 14.7715 20.6074 15.2051 20.6543C15.873 20.7246 15.8262 20.6719 15.8086 21.2578L15.791 21.7676L15.293 21.832C15.0176 21.8672 14.7012 21.9375 14.584 21.9902C14.2617 22.125 13.9746 22.459 13.8047 22.8984C13.7227 23.1152 13.5879 23.4609 13.5 23.666C13.2539 24.2637 13.3359 24.6328 13.8633 25.3242C14.0039 25.5059 14.1211 25.6875 14.1211 25.7285C14.1211 25.8106 13.541 26.4258 13.4648 26.4258C13.4355 26.4258 13.2246 26.2852 12.9902 26.1094C12.2402 25.541 12 25.5293 10.9336 25.9629C9.89062 26.3906 9.68555 26.6309 9.55664 27.5625C9.52148 27.8145 9.47461 28.043 9.45703 28.0723C9.41601 28.1367 8.51367 28.1426 8.47266 28.0781C8.45508 28.0488 8.41406 27.8086 8.38477 27.5391C8.30859 26.9649 8.15039 26.5957 7.875 26.3906C7.76953 26.3086 7.36523 26.1094 6.97852 25.9512C5.95312 25.5352 5.63672 25.5645 4.88672 26.1563C4.69336 26.3027 4.51758 26.4258 4.48242 26.4258C4.40039 26.4258 3.80859 25.8281 3.80859 25.7402C3.80859 25.6992 3.95508 25.4766 4.13086 25.2481C4.63477 24.5977 4.6875 24.2227 4.37109 23.5078C4.26562 23.2559 4.14844 22.957 4.10742 22.8399C3.99609 22.5 3.72656 22.1777 3.43359 22.0313C3.28125 21.9609 2.92969 21.8731 2.64844 21.832L2.13867 21.7676L2.12109 21.2578L2.10352 20.7481L2.29687 20.7188C3.07031 20.6016 3.24609 20.5606 3.41602 20.4785C3.74414 20.3262 3.9082 20.0977 4.23047 19.3652C4.5 18.75 4.54102 18.6152 4.53516 18.2813C4.53516 17.8477 4.45898 17.666 4.06641 17.1621C3.92578 16.9863 3.80859 16.8106 3.80859 16.7754C3.80859 16.6816 4.01953 16.4356 4.27148 16.2363L4.49414 16.0547L4.86914 16.3418C5.71289 16.9805 5.91797 16.9922 7.13672 16.4824C8.05078 16.1074 8.27344 15.832 8.38477 14.9356C8.41406 14.666 8.47852 14.4258 8.51367 14.3965C8.58984 14.3438 9.4043 14.3672 9.45703 14.4199Z" fill="#106DB6"/>
<path d="M8.49609 18.1648C7.00195 18.3933 5.85938 19.7175 5.85938 21.2234C5.85938 22.0788 6.12891 22.7527 6.71484 23.3796C7.95117 24.6863 9.97852 24.6921 11.2324 23.3913C12.334 22.237 12.3633 20.3562 11.291 19.1785C10.5703 18.3933 9.51562 18.0124 8.49609 18.1648ZM9.77344 19.5652C10.1543 19.7585 10.4648 20.0749 10.6465 20.4382C10.7871 20.7253 10.8105 20.8425 10.8105 21.2703C10.8105 21.6921 10.7871 21.8093 10.6523 22.0613C10.4883 22.3718 10.0898 22.782 9.80859 22.9285C9.71484 22.9753 9.47461 23.0456 9.28125 23.0867C8.66602 23.2097 8.0332 22.987 7.58789 22.4949C7.23633 22.1081 7.11914 21.7859 7.125 21.241C7.125 20.3913 7.56445 19.7761 8.37305 19.4714C8.69531 19.3542 9.45703 19.4011 9.77344 19.5652Z" fill="#106DB6"/>
</svg>
