<?xml version="1.0"?>
<svg xmlns="http://www.w3.org/2000/svg" xmlns:xlink="http://www.w3.org/1999/xlink" xmlns:svgjs="http://svgjs.com/svgjs" version="1.1" width="512" height="512" x="0" y="0" viewBox="0 0 512 512" style="enable-background:new 0 0 512 512" xml:space="preserve" class=""><g><g xmlns="http://www.w3.org/2000/svg"><path d="m511.924 199.122c-.344-3.42-1.893-6.677-4.318-9.109l-95.63-95.621c-2.788-2.778-6.662-4.404-10.606-4.393h-67.777l-85.616-85.606c-2.814-2.813-6.629-4.393-10.607-4.393h-222.37c-8.284 0-15 6.716-15 15v392c0 8.284 6.716 15 15 15h149v75c0 8.284 6.716 15 15 15h318c8.284 0 15-6.716 15-15v-296.38c0-.502-.026-1.002-.076-1.498zm-95.554-57.911 44.414 44.409h-44.414zm-386.37 250.789v-362h201.157l60.006 60h-112.163c-8.284 0-15 6.716-15 15v287zm164 90v-362h192.37v80.62c0 8.284 6.716 15 15 15h80.63v266.38z" fill="#8b8b8b" data-original="#000000" style=""/><path d="m437 334h-197.823c-8.284 0-15 6.716-15 15s6.716 15 15 15h197.823c8.284 0 15-6.716 15-15s-6.716-15-15-15z" fill="#8b8b8b" data-original="#000000" style=""/><path d="m239.18 304h68.91c8.284 0 15-6.716 15-15s-6.716-15-15-15h-68.91c-8.284 0-15 6.716-15 15s6.716 15 15 15z" fill="#8b8b8b" data-original="#000000" style=""/><path d="m437 274h-68.91c-8.284 0-15 6.716-15 15s6.716 15 15 15h68.91c8.284 0 15-6.716 15-15s-6.716-15-15-15z" fill="#8b8b8b" data-original="#000000" style=""/><path d="m308.09 394h-68.91c-8.284 0-15 6.716-15 15s6.716 15 15 15h68.91c8.284 0 15-6.716 15-15s-6.716-15-15-15z" fill="#8b8b8b" data-original="#000000" style=""/><path d="m437 394h-68.91c-8.284 0-15 6.716-15 15s6.716 15 15 15h68.91c8.284 0 15-6.716 15-15s-6.716-15-15-15z" fill="#8b8b8b" data-original="#000000" style=""/></g></g></svg>
