<svg width="24" height="24" viewBox="0 0 24 24" fill="none" xmlns="http://www.w3.org/2000/svg">
<rect width="24" height="24" rx="12" fill="url(#paint0_linear)"/>
<g clip-path="url(#clip0)">
<path d="M17.5541 7H6.49219C6.23328 7 6.02344 7.20984 6.02344 7.46875C6.02344 8.77411 6.58301 10.0203 7.55868 10.8876L9.61157 12.7123C9.96752 13.0287 10.1717 13.4833 10.1717 13.9597V18.5307C10.1717 18.9042 10.5892 19.1282 10.9004 18.9206L13.6659 17.077C13.7963 16.9901 13.8746 16.8438 13.8746 16.687V13.9597C13.8746 13.4833 14.0788 13.0287 14.4347 12.7123L16.4875 10.8876C17.4632 10.0203 18.0228 8.77411 18.0228 7.46875C18.0228 7.20984 17.8129 7 17.5541 7ZM15.8647 10.1869L13.8119 12.0116C13.256 12.5058 12.9371 13.2158 12.9371 13.9596V16.4362L11.1091 17.6548V13.9597C11.1091 13.2158 10.7902 12.5058 10.2343 12.0116L8.18152 10.187C7.52362 9.60202 7.10367 8.80057 6.99124 7.93741H17.055C16.9426 8.80057 16.5227 9.60202 15.8647 10.1869Z" fill="white"/>
</g>
<defs>
<linearGradient id="paint0_linear" x1="14.819" y1="24" x2="14.819" y2="0" gradientUnits="userSpaceOnUse">
<stop stop-color="#106DB6"/>
<stop offset="1" stop-color="#1487E1"/>
</linearGradient>
<clipPath id="clip0">
<rect x="6" y="7" width="12" height="12" fill="white"/>
</clipPath>
</defs>
</svg>
