<svg width="15" height="17" viewBox="0 0 15 17" fill="none" xmlns="http://www.w3.org/2000/svg">
<path d="M12.8996 16.9861C13.1574 16.9462 13.315 16.8697 13.5191 16.6901C13.7268 16.5072 13.87 16.2743 13.9667 15.9484C14.024 15.7521 14.0276 15.2765 14.0276 8.52107C14.0276 1.76564 14.024 1.29 13.9667 1.09376C13.7877 0.495047 13.4654 0.155779 12.9641 0.0360375C12.5916 -0.0537688 12.1333 0.026059 11.6964 0.255564C11.4708 0.37198 1.31182 6.86464 1.0898 7.03095C0.549087 7.44007 0.262615 7.92236 0.251872 8.43459C0.248291 8.76388 0.287682 8.92353 0.445241 9.23619C0.713808 9.75507 0.566991 9.65529 6.32866 13.3307C9.18263 15.1534 11.6105 16.6901 11.7179 16.7467C12.1046 16.9462 12.5666 17.0394 12.8996 16.9861Z" fill="#106DB6"/>
</svg>
