<svg width="22" height="17" viewBox="0 0 22 17" fill="none" xmlns="http://www.w3.org/2000/svg">
<path d="M12.6479 16.9861C12.9057 16.9462 13.0633 16.8697 13.2674 16.6901C13.4751 16.5072 13.6183 16.2743 13.715 15.9484C13.7723 15.7521 13.7759 15.2765 13.7759 8.52107C13.7759 1.76564 13.7723 1.29 13.715 1.09376C13.536 0.495047 13.2137 0.155779 12.7124 0.0360375C12.3399 -0.0537688 11.8816 0.026059 11.4447 0.255564C11.2191 0.37198 1.06011 6.86464 0.838094 7.03095C0.297378 7.44007 0.0109062 7.92236 0.000163078 8.43459C-0.00341797 8.76388 0.0359726 8.92353 0.193532 9.23619C0.462099 9.75507 0.315282 9.65529 6.07695 13.3307C8.93092 15.1534 11.3588 16.6901 11.4662 16.7467C11.8529 16.9462 12.3149 17.0394 12.6479 16.9861Z" fill="#9F9F9F"/>
<path d="M19.9855 16.9861C20.2434 16.9462 20.4009 16.8697 20.605 16.6901C20.8127 16.5072 20.956 16.2743 21.0527 15.9484C21.1099 15.7521 21.1135 15.2765 21.1135 8.52107C21.1135 1.76564 21.1099 1.29 21.0527 1.09376C20.8736 0.495047 20.5513 0.155779 20.05 0.0360375C19.6776 -0.0537688 19.2192 0.026059 18.7824 0.255564C18.5568 0.37198 8.39776 6.86464 8.17574 7.03095C7.63502 7.44007 7.34855 7.92236 7.33781 8.43459C7.33423 8.76388 7.37362 8.92353 7.53118 9.23619C7.79975 9.75507 7.65293 9.65529 13.4146 13.3307C16.2686 15.1534 18.6964 16.6901 18.8038 16.7467C19.1906 16.9462 19.6525 17.0394 19.9855 16.9861Z" fill="#9F9F9F"/>
</svg>
