<svg width="20" height="20" viewBox="0 0 20 20" fill="none" xmlns="http://www.w3.org/2000/svg">
<g id="vuesax/bold/folder-2">
<g id="folder-2">
<path id="Vector" d="M16.1955 3.36215C16.3057 3.53542 16.1169 3.73726 15.9167 3.69175C15.525 3.57508 15.0917 3.51675 14.65 3.51675H11.9414C11.7842 3.51675 11.6361 3.4428 11.5416 3.31712L10.6083 2.07508C10.4909 1.90878 10.6019 1.66675 10.8054 1.66675H13.1C14.4008 1.66675 15.5467 2.34236 16.1955 3.36215Z" fill="#0041C4"/>
<path id="Vector_2" d="M16.7833 5.45008C16.425 5.19175 16.0166 5.00008 15.575 4.89175C15.275 4.80841 14.9666 4.76675 14.65 4.76675H11.55C11.0666 4.76675 11.0333 4.72508 10.775 4.38341L9.60829 2.83341C9.06663 2.10841 8.64163 1.66675 7.28329 1.66675H5.34996C3.31663 1.66675 1.66663 3.31675 1.66663 5.35008V14.6501C1.66663 16.6834 3.31663 18.3334 5.34996 18.3334H14.65C16.6833 18.3334 18.3333 16.6834 18.3333 14.6501V8.45008C18.3333 7.20842 17.725 6.11675 16.7833 5.45008ZM11.9916 13.6167H7.99996C7.67496 13.6167 7.42496 13.3584 7.42496 13.0334C7.42496 12.7167 7.67496 12.4501 7.99996 12.4501H11.9916C12.3166 12.4501 12.575 12.7167 12.575 13.0334C12.575 13.3584 12.3166 13.6167 11.9916 13.6167Z" fill="#0041C4"/>
</g>
</g>
</svg>
