<svg width="20" height="20" viewBox="0 0 20 20" fill="none" xmlns="http://www.w3.org/2000/svg">
<g id="vuesax/bold/folder-2">
<g id="folder-2">
<path id="Vector" d="M16.1955 3.36142C16.3057 3.53468 16.1169 3.73653 15.9167 3.69102C15.525 3.57435 15.0917 3.51602 14.65 3.51602H11.9414C11.7842 3.51602 11.6361 3.44207 11.5416 3.31639L10.6083 2.07435C10.4909 1.90805 10.6019 1.66602 10.8054 1.66602H13.1C14.4008 1.66602 15.5467 2.34163 16.1955 3.36142Z" fill="#286CF5"/>
<path id="Vector_2" d="M16.7833 5.44935C16.425 5.19102 16.0167 4.99935 15.575 4.89102C15.275 4.80768 14.9667 4.76602 14.65 4.76602H11.55C11.0667 4.76602 11.0333 4.72435 10.775 4.38268L9.60832 2.83268C9.06666 2.10768 8.64166 1.66602 7.28332 1.66602H5.34999C3.31666 1.66602 1.66666 3.31602 1.66666 5.34935V14.6493C1.66666 16.6827 3.31666 18.3327 5.34999 18.3327H14.65C16.6833 18.3327 18.3333 16.6827 18.3333 14.6493V8.44935C18.3333 7.20768 17.725 6.11602 16.7833 5.44935ZM11.9917 13.616H7.99999C7.67499 13.616 7.42499 13.3577 7.42499 13.0327C7.42499 12.716 7.67499 12.4493 7.99999 12.4493H11.9917C12.3167 12.4493 12.575 12.716 12.575 13.0327C12.575 13.3577 12.3167 13.616 11.9917 13.616Z" fill="#286CF5"/>
</g>
</g>
</svg>
