<svg width="609" height="164" viewBox="0 0 609 164" fill="none" xmlns="http://www.w3.org/2000/svg">
<path fill-rule="evenodd" clip-rule="evenodd" d="M0 0L33.5426 21C57.5695 39.5 101.341 65.4335 152.25 80.185C203.159 95.2717 253.591 116.728 304.5 121.087C355.409 125.445 405.841 112.37 456.75 108.347C507.659 103.988 561.422 98.3468 583.784 90L609 80.185V164H583.784C558.091 164 507.659 164 456.75 164C405.841 164 355.409 164 304.5 164C253.591 164 203.159 164 152.25 164C101.341 164 50.9086 164 25.2164 164H0V0Z" fill="#ED1C24"/>
<path fill-rule="evenodd" clip-rule="evenodd" d="M0 94.4L20.3 103.68C40.6 112.96 81.2 131.52 121.8 126.88C162.4 122.24 203 94.4 243.6 75.84C284.2 57.28 324.8 48 365.4 48C406 48 446.6 57.28 487.2 73.52C527.8 89.76 568.4 112.96 588.7 124.56L609 136.16V164H588.7C568.4 164 527.8 164 487.2 164C446.6 164 406 164 365.4 164C324.8 164 284.2 164 243.6 164C203 164 162.4 164 121.8 164C81.2 164 40.6 164 20.3 164H0V94.4Z" fill="#0161AF"/>
</svg>
