<svg width="460" height="166" viewBox="0 0 460 166" fill="none" xmlns="http://www.w3.org/2000/svg">
<g clip-path="url(#clip0_4746_40645)">
<rect width="460" height="166" fill="url(#paint0_linear_4746_40645)"/>
<path opacity="0.3" d="M325.462 -245.099L106.187 -25.7939L564.295 392.68L749.059 180.253L325.462 -245.099Z" fill="url(#paint1_linear_4746_40645)"/>
<path opacity="0.3" d="M346.701 -253.968L159.714 -67.1929L550.354 289.195L707.912 108.278L346.701 -253.968Z" fill="url(#paint2_linear_4746_40645)"/>
<g filter="url(#filter0_d_4746_40645)">
<path d="M245.966 144.159C260.456 105.045 270.007 65.4801 288.375 60.5838C305.073 56.1325 306.369 88.9264 321.827 87.0441C343.541 84.4001 320.519 8.19645 343.096 44.0274C365.672 79.8583 359.194 122.113 365.025 94.7829C370.857 67.4523 365.48 83.5452 374.713 78.9969C382.099 75.3584 427.607 52.9133 449.438 42.1456" stroke="url(#paint3_linear_4746_40645)" stroke-width="2"/>
</g>
</g>
<defs>
<filter id="filter0_d_4746_40645" x="241.028" y="33.464" width="212.852" height="119.043" filterUnits="userSpaceOnUse" color-interpolation-filters="sRGB">
<feFlood flood-opacity="0" result="BackgroundImageFix"/>
<feColorMatrix in="SourceAlpha" type="matrix" values="0 0 0 0 0 0 0 0 0 0 0 0 0 0 0 0 0 0 127 0" result="hardAlpha"/>
<feOffset dy="4"/>
<feGaussianBlur stdDeviation="2"/>
<feComposite in2="hardAlpha" operator="out"/>
<feColorMatrix type="matrix" values="0 0 0 0 0.0183207 0 0 0 0 0.0936699 0 0 0 0 0.240403 0 0 0 0.3 0"/>
<feBlend mode="normal" in2="BackgroundImageFix" result="effect1_dropShadow_4746_40645"/>
<feBlend mode="normal" in="SourceGraphic" in2="effect1_dropShadow_4746_40645" result="shape"/>
</filter>
<linearGradient id="paint0_linear_4746_40645" x1="0" y1="83" x2="460" y2="83" gradientUnits="userSpaceOnUse">
<stop stop-color="#1962F7"/>
<stop offset="1" stop-color="#81A3E9"/>
</linearGradient>
<linearGradient id="paint1_linear_4746_40645" x1="422.85" y1="-246.476" x2="431.916" y2="394.552" gradientUnits="userSpaceOnUse">
<stop stop-color="#0041C4"/>
<stop offset="1" stop-color="#0041C4" stop-opacity="0"/>
</linearGradient>
<linearGradient id="paint2_linear_4746_40645" x1="312.325" y1="-273.337" x2="605.592" y2="182.967" gradientUnits="userSpaceOnUse">
<stop stop-color="#0041C4"/>
<stop offset="1" stop-color="#0041C4" stop-opacity="0"/>
</linearGradient>
<linearGradient id="paint3_linear_4746_40645" x1="220.466" y1="109" x2="477.466" y2="17.5" gradientUnits="userSpaceOnUse">
<stop offset="0.0902546" stop-color="#5B8FF9"/>
<stop offset="0.381346" stop-color="white"/>
<stop offset="0.768099" stop-color="#1F5EDE"/>
</linearGradient>
<clipPath id="clip0_4746_40645">
<rect width="460" height="166" fill="white"/>
</clipPath>
</defs>
</svg>
