<svg width="590" height="166" viewBox="0 0 590 166" fill="none" xmlns="http://www.w3.org/2000/svg">
<g clip-path="url(#clip0_2875_27381)">
<rect width="590" height="166" rx="12" fill="url(#paint0_linear_2875_27381)"/>
<path opacity="0.3" d="M455.462 -245.099L236.187 -25.7939L694.295 392.68L879.059 180.253L455.462 -245.099Z" fill="url(#paint1_linear_2875_27381)"/>
<path opacity="0.3" d="M476.701 -253.968L289.714 -67.1929L680.354 289.195L837.912 108.278L476.701 -253.968Z" fill="url(#paint2_linear_2875_27381)"/>
<g filter="url(#filter0_d_2875_27381)">
<path d="M375.966 144.159C390.456 105.045 400.007 65.4801 418.375 60.5838C435.073 56.1325 436.369 88.9264 451.827 87.0441C473.541 84.4001 450.519 8.19645 473.096 44.0274C495.672 79.8583 489.194 122.113 495.025 94.7829C500.857 67.4523 495.48 83.5452 504.713 78.9969C512.099 75.3584 557.607 52.9133 579.438 42.1456" stroke="url(#paint3_linear_2875_27381)" stroke-width="2"/>
</g>
</g>
<defs>
<filter id="filter0_d_2875_27381" x="371.028" y="33.4641" width="212.852" height="119.043" filterUnits="userSpaceOnUse" color-interpolation-filters="sRGB">
<feFlood flood-opacity="0" result="BackgroundImageFix"/>
<feColorMatrix in="SourceAlpha" type="matrix" values="0 0 0 0 0 0 0 0 0 0 0 0 0 0 0 0 0 0 127 0" result="hardAlpha"/>
<feOffset dy="4"/>
<feGaussianBlur stdDeviation="2"/>
<feComposite in2="hardAlpha" operator="out"/>
<feColorMatrix type="matrix" values="0 0 0 0 0.0183207 0 0 0 0 0.0936699 0 0 0 0 0.240403 0 0 0 0.3 0"/>
<feBlend mode="normal" in2="BackgroundImageFix" result="effect1_dropShadow_2875_27381"/>
<feBlend mode="normal" in="SourceGraphic" in2="effect1_dropShadow_2875_27381" result="shape"/>
</filter>
<linearGradient id="paint0_linear_2875_27381" x1="0" y1="83" x2="590" y2="83" gradientUnits="userSpaceOnUse">
<stop stop-color="#1962F7"/>
<stop offset="1" stop-color="#81A3E9"/>
</linearGradient>
<linearGradient id="paint1_linear_2875_27381" x1="552.85" y1="-246.476" x2="561.916" y2="394.552" gradientUnits="userSpaceOnUse">
<stop stop-color="#0041C4"/>
<stop offset="1" stop-color="#0041C4" stop-opacity="0"/>
</linearGradient>
<linearGradient id="paint2_linear_2875_27381" x1="442.325" y1="-273.337" x2="735.592" y2="182.967" gradientUnits="userSpaceOnUse">
<stop stop-color="#0041C4"/>
<stop offset="1" stop-color="#0041C4" stop-opacity="0"/>
</linearGradient>
<linearGradient id="paint3_linear_2875_27381" x1="350.466" y1="109" x2="607.466" y2="17.5" gradientUnits="userSpaceOnUse">
<stop offset="0.0902546" stop-color="#5B8FF9"/>
<stop offset="0.381346" stop-color="white"/>
<stop offset="0.768099" stop-color="#1F5EDE"/>
</linearGradient>
<clipPath id="clip0_2875_27381">
<rect width="590" height="166" rx="12" fill="white"/>
</clipPath>
</defs>
</svg>
