<svg width="12" height="17" viewBox="0 0 12 17" fill="none" xmlns="http://www.w3.org/2000/svg">
<path d="M0.775558 0.286941C0.517275 0.368676 0.258993 0.577917 0.141295 0.810044C0.11187 0.862354 0.075907 1.00621 0.0562907 1.13044C0.0137885 1.4345 0.0137885 15.8198 0.0562907 16.1239C0.075907 16.2481 0.11187 16.392 0.141295 16.4443C0.226299 16.6078 0.419193 16.8007 0.592471 16.8922L0.759211 16.9805H5.02577H9.29233L9.45907 16.8922C9.63235 16.8007 9.82524 16.6078 9.91352 16.4443C9.93967 16.3887 9.9789 16.2285 9.99852 16.0912C10.0181 15.9245 10.0279 13.6424 10.0214 9.4249C10.0116 3.17055 10.0116 3.01035 9.94948 2.94169C9.86448 2.84688 9.66831 2.84688 9.58331 2.94169C9.52119 3.01035 9.52119 3.16401 9.51138 9.18623L9.50484 15.3621H6.28122H3.06086L2.9824 15.4439C2.87778 15.5452 2.87778 15.6694 2.9824 15.7708L3.06086 15.8525H6.28449H9.50484V16.0127C9.50484 16.2056 9.40676 16.3658 9.24329 16.4476C9.1354 16.5031 8.86731 16.5064 5.02577 16.5064C1.18423 16.5064 0.916142 16.5031 0.808251 16.4476C0.644782 16.3658 0.5467 16.2056 0.5467 16.0127V15.8525H1.32482C2.0637 15.8525 2.1062 15.8493 2.17486 15.7871C2.27294 15.6956 2.27294 15.519 2.17486 15.4275C2.1062 15.3654 2.0637 15.3621 1.32482 15.3621H0.5467V8.22176V1.08467L0.621896 0.973514C0.759211 0.767542 0.837676 0.747926 1.61252 0.747926H2.30236L2.32198 1.0814C2.3416 1.36911 2.35468 1.4345 2.43314 1.562C2.49199 1.65355 2.57699 1.73528 2.66854 1.78432L2.81239 1.85952H5.02577H7.23915L7.383 1.78432C7.47455 1.73528 7.55955 1.65355 7.6184 1.562C7.69687 1.4345 7.70994 1.36911 7.72956 1.0814L7.74918 0.747926H8.43902C9.19752 0.747926 9.28252 0.764273 9.41984 0.953897C9.47869 1.03563 9.49176 1.10756 9.50484 1.54893C9.52119 2.01318 9.52773 2.05895 9.59312 2.12434C9.68466 2.21915 9.84486 2.21915 9.93967 2.12761C9.99852 2.06876 10.0116 2.00991 10.0214 1.74836C10.0378 1.392 9.98544 0.953897 9.91352 0.810044C9.82524 0.646574 9.63235 0.45368 9.45907 0.362137L9.29233 0.273863L5.07481 0.267325C2.75354 0.264055 0.821329 0.273863 0.775558 0.286941ZM7.21627 1.01929C7.21627 1.18602 7.19992 1.30699 7.17703 1.32988C7.12145 1.38546 2.93009 1.38546 2.87451 1.32988C2.85162 1.30699 2.83528 1.18602 2.83528 1.01929V0.747926H5.02577H7.21627V1.01929Z" fill="white"/>
<path d="M7.47266 8.14062V9.2832L7.41016 9.29297C7.37501 9.29688 7.24415 9.31055 7.1211 9.32422C5.51172 9.48047 3.95703 10.4121 3.01563 11.7852C2.50391 12.5312 2.18945 13.3457 2.05078 14.2852C2.02344 14.4727 2.01563 14.7188 2.00977 15.7559L2 17H2.29297H2.58399L2.5957 16.7637C2.67774 15.2441 3.45117 13.8809 4.70899 13.0312C5.44727 12.5332 6.28126 12.2598 7.17579 12.2207L7.47266 12.209V13.3438C7.47266 13.9688 7.47657 14.4805 7.48243 14.4805C7.48829 14.4805 8.08009 13.9961 8.79688 13.4023C10.0801 12.3398 10.8399 11.7129 11.5996 11.084C11.8125 10.9082 11.9824 10.7539 11.9785 10.7422C11.9746 10.7305 11.6152 10.4277 11.1797 10.0664C10.7442 9.70703 9.88478 8.99414 9.26759 8.48438C8.6504 7.97461 7.99415 7.43164 7.81055 7.2793L7.47266 7V8.14062Z" fill="white"/>
</svg>
