<svg width="16" height="19" viewBox="0 0 16 19" fill="none" xmlns="http://www.w3.org/2000/svg">
<path d="M7.996 13.212C8.218 13.212 8.40467 13.136 8.556 12.984C8.70867 12.832 8.785 12.6453 8.785 12.424C8.785 12.2013 8.709 12.014 8.557 11.862C8.405 11.7107 8.21833 11.635 7.997 11.635C7.77433 11.635 7.58733 11.711 7.436 11.863C7.284 12.0143 7.208 12.201 7.208 12.423C7.208 12.645 7.284 12.8317 7.436 12.983C7.58733 13.1357 7.774 13.212 7.996 13.212ZM7.481 9.9H8.446C8.45933 9.68067 8.48167 9.49033 8.513 9.329C8.54433 9.16767 8.60167 9.008 8.685 8.85C8.76833 8.692 8.87567 8.534 9.007 8.376C9.13833 8.21733 9.30167 8.04067 9.497 7.846C9.977 7.36533 10.325 6.94867 10.541 6.596C10.757 6.24267 10.865 5.84133 10.865 5.392C10.865 4.612 10.5973 3.983 10.062 3.505C9.526 3.027 8.87133 2.788 8.098 2.788C7.38667 2.788 6.77433 2.978 6.261 3.358C5.74767 3.73733 5.37233 4.19233 5.135 4.723L6.054 5.103C6.222 4.705 6.462 4.375 6.774 4.113C7.08467 3.85033 7.50567 3.719 8.037 3.719C8.66633 3.719 9.134 3.89133 9.44 4.236C9.74667 4.58 9.9 4.97133 9.9 5.41C9.9 5.74467 9.80833 6.051 9.625 6.329C9.44167 6.607 9.18467 6.89933 8.854 7.206C8.60933 7.43933 8.39933 7.662 8.224 7.874C8.04933 8.086 7.90367 8.298 7.787 8.51C7.67033 8.72133 7.59033 8.939 7.547 9.163C7.503 9.38633 7.481 9.632 7.481 9.9ZM8 18.577L5.423 16H1.615C1.155 16 0.771 15.846 0.463 15.538C0.154333 15.2293 0 14.845 0 14.385V1.615C0 1.155 0.154333 0.771 0.463 0.463C0.771 0.154333 1.155 0 1.615 0H14.385C14.845 0 15.229 0.154333 15.537 0.463C15.8457 0.771 16 1.155 16 1.615V14.385C16 14.845 15.846 15.229 15.538 15.537C15.2293 15.8457 14.845 16 14.385 16H10.577L8 18.577ZM1.615 15H5.838L8 17.162L10.162 15H14.385C14.5643 15 14.7117 14.9423 14.827 14.827C14.9423 14.7117 15 14.5643 15 14.385V1.615C15 1.43567 14.9423 1.28833 14.827 1.173C14.7117 1.05767 14.5643 1 14.385 1H1.615C1.43567 1 1.28833 1.05767 1.173 1.173C1.05767 1.28833 1 1.43567 1 1.615V14.385C1 14.5643 1.05767 14.7117 1.173 14.827C1.28833 14.9423 1.43567 15 1.615 15Z" fill="#286CF5"/>
</svg>