<svg width="16" height="18" viewBox="0 0 16 18" fill="none" xmlns="http://www.w3.org/2000/svg">
<g id="Home">
<path id="Home_2" d="M5.61236 16.3111V13.763C5.61236 13.1125 6.14352 12.5852 6.79874 12.5852H9.19388C9.50853 12.5852 9.81029 12.7093 10.0328 12.9302C10.2553 13.151 10.3803 13.4506 10.3803 13.763V16.3111C10.3783 16.5815 10.4851 16.8415 10.677 17.0334C10.8689 17.2254 11.1301 17.3333 11.4025 17.3333H13.0366C13.7997 17.3353 14.5323 17.0357 15.0727 16.5006C15.613 15.9656 15.9167 15.2391 15.9167 14.4815V7.22234C15.9167 6.61034 15.6434 6.02983 15.1706 5.63718L9.61173 1.22985C8.64476 0.457094 7.2593 0.482044 6.3212 1.28911L0.889218 5.63718C0.393991 6.01825 0.0980009 6.60049 0.083374 7.22234V14.4741C0.083374 16.0532 1.37286 17.3333 2.96352 17.3333H4.56028C5.12606 17.3333 5.58587 16.8801 5.58997 16.3185L5.61236 16.3111Z" fill="#0041C4"/>
</g>
</svg>
