<svg width="14" height="14" viewBox="0 0 14 14" fill="none" xmlns="http://www.w3.org/2000/svg">
<g clip-path="url(#clip0_353_289)">
<path d="M8.68094 4.05517C8.19094 4.05768 7.79028 3.66809 7.78781 3.1867L7.77312 0.318193L3.22825 0.341478C2.45824 0.345423 1.83494 0.964065 1.83882 1.72053L1.89019 11.7478C1.89407 12.5043 2.52367 13.1165 3.29369 13.1126L10.403 13.0761C11.173 13.0722 11.7963 12.4536 11.7924 11.6971L11.7532 4.03943L8.68094 4.05517ZM3.9598 9.31764L5.80618 9.30818C6.01651 9.3071 6.18789 9.47375 6.18895 9.68038C6.19001 9.88701 6.02035 10.0554 5.81001 10.0565L3.96363 10.0659C3.7533 10.067 3.58192 9.90038 3.58086 9.69375C3.5798 9.48711 3.74946 9.31872 3.9598 9.31764ZM3.57064 7.69826C3.56958 7.49163 3.73924 7.32323 3.94957 7.32216L9.53544 7.29354C9.74577 7.29246 9.91715 7.45911 9.91821 7.66574C9.91927 7.87237 9.74961 8.04077 9.53927 8.04184L3.95341 8.07046C3.74308 8.07154 3.5717 7.90489 3.57064 7.69826ZM9.52521 5.29805C9.73555 5.29698 9.90693 5.46362 9.90799 5.67026C9.90904 5.87689 9.73938 6.04528 9.52905 6.04636L3.94318 6.07498C3.73285 6.07606 3.56147 5.90941 3.56041 5.70278C3.55935 5.49615 3.72902 5.32775 3.93935 5.32667L9.52521 5.29805Z" fill="#106DB6"/>
<path d="M8.54955 3.18306C8.5499 3.25183 8.60714 3.30749 8.67714 3.30713L11.5796 3.29226C11.5093 3.16625 11.4191 3.05065 11.3109 2.9511L8.851 0.688243C8.75554 0.60043 8.64934 0.527314 8.53567 0.469726L8.54957 3.18306L8.54955 3.18306Z" fill="#106DB6"/>
</g>
<defs>
<clipPath id="clip0_353_289">
<rect width="13" height="12.7713" fill="white" transform="translate(0.282959 0.356445) rotate(-0.293551)"/>
</clipPath>
</defs>
</svg>
