<svg width="14" height="14" viewBox="0 0 14 14" fill="none" xmlns="http://www.w3.org/2000/svg">
<path d="M6.05203 0.997741C4.49493 1.11223 3.03961 1.78392 1.92521 2.89577C-0.624159 5.44514 -0.624159 9.52617 1.92521 12.0755C2.8844 13.0347 4.11075 13.6733 5.42105 13.8947C6.34463 14.0524 7.21986 14.0194 8.10781 13.7955C8.59631 13.6708 8.90163 13.5589 9.37995 13.3222C10.0364 13.0017 10.5707 12.6175 11.1075 12.0781C11.6469 11.5412 12.0311 11.0069 12.3517 10.3505C12.5883 9.87219 12.7002 9.56688 12.8249 9.07838C12.9801 8.46775 13.0132 8.17516 13.0132 7.48566C13.0132 7.03786 13.003 6.81142 12.9674 6.58244C12.9089 6.19825 12.7562 5.58762 12.6341 5.25687C12.4127 4.65387 11.9853 3.90331 11.5782 3.39954C11.3696 3.14257 10.8582 2.63117 10.6012 2.42254C10.0974 2.01545 9.34688 1.58801 8.74388 1.36666C8.41058 1.24454 7.79741 1.08934 7.43103 1.0359C7.07483 0.98502 6.45657 0.96721 6.05203 0.997741ZM7.25802 2.58537C7.75416 2.66424 8.15106 2.78637 8.61921 3.00772C8.92198 3.15275 9.36469 3.4199 9.36469 3.45806C9.36469 3.47078 7.81522 5.02788 5.91973 6.92337L2.47477 10.3658L2.34502 10.1673C2.17455 9.90527 1.9303 9.41168 1.83616 9.13435C1.65297 8.60768 1.57664 8.19042 1.56138 7.61287C1.5283 6.47558 1.86924 5.41207 2.55619 4.49613C2.7521 4.23407 3.2635 3.72267 3.52556 3.52676C4.19725 3.02299 4.94018 2.71004 5.80269 2.57265C6.15126 2.51668 6.85603 2.52176 7.25802 2.58537ZM10.703 4.85233C10.9752 5.27213 11.2144 5.83442 11.3365 6.35345C11.5146 7.09893 11.5095 7.93599 11.3212 8.69419C11.0236 9.90018 10.2018 11.0247 9.13825 11.6837C8.55052 12.0476 7.9577 12.2689 7.25293 12.3885C6.87638 12.4495 6.05967 12.4521 5.72637 12.3885C5.01142 12.2562 4.38044 12.0119 3.83342 11.6557L3.63497 11.526L7.07738 8.08102C8.97287 6.18553 10.53 4.63606 10.5427 4.63606C10.5529 4.63606 10.6241 4.73274 10.703 4.85233Z" fill="#ED1C24"/>
</svg>
