<svg width="17" height="17" viewBox="0 0 17 17" fill="none" xmlns="http://www.w3.org/2000/svg">
<path fill-rule="evenodd" clip-rule="evenodd" d="M11.1562 13.2812V11.6875H11.6875V13.2812H13.2812V13.8125H11.6875V15.4062H11.1562V13.8125H9.5625V13.2812H11.1562ZM8.51159 15.4062H3.71738C3.12955 15.4062 2.65625 14.9288 2.65625 14.3399V2.12889C2.65625 1.53974 3.13398 1.0625 3.72328 1.0625H9.03125V4.25101C9.03125 4.84144 9.50836 5.3125 10.0969 5.3125H12.75V10.3584C12.3412 10.1879 11.8925 10.0938 11.4219 10.0938C9.51477 10.0938 7.96875 11.6398 7.96875 13.5469C7.96875 14.2315 8.16797 14.8695 8.51159 15.4062ZM9.5625 1.0625V4.24844C9.5625 4.5427 9.80208 4.78125 10.0889 4.78125H12.75L9.5625 1.0625ZM11.4219 16.4688C13.0356 16.4688 14.3438 15.1606 14.3438 13.5469C14.3438 11.9332 13.0356 10.625 11.4219 10.625C9.80817 10.625 8.5 11.9332 8.5 13.5469C8.5 15.1606 9.80817 16.4688 11.4219 16.4688Z" fill="#106DB6"/>
</svg>
