<svg width="20" height="20" viewBox="0 0 20 20" fill="none" xmlns="http://www.w3.org/2000/svg">
<path d="M1.71875 0.0387325C1.4375 0.0856075 1.26562 0.175451 1.04297 0.386389C0.816406 0.601233 0.660156 0.87467 0.554688 1.25748C0.492188 1.48795 0.488281 2.04655 0.488281 9.98014C0.488281 17.9137 0.492188 18.4723 0.554688 18.7028C0.75 19.4059 1.10156 19.8044 1.64844 19.945C2.05469 20.0505 2.55469 19.9567 3.03125 19.6872C3.27734 19.5505 14.3594 11.9255 14.6016 11.7301C15.1914 11.2497 15.5039 10.6833 15.5156 10.0817C15.5195 9.69498 15.4766 9.50748 15.3047 9.1403C15.0117 8.53092 15.1719 8.64811 8.88672 4.3317C5.77344 2.19108 3.125 0.386389 3.00781 0.319983C2.58594 0.0856075 2.08203 -0.0237675 1.71875 0.0387325Z" fill="#106DB6"/>
<path d="M17.6641 0.0585957C17.3242 0.164064 17.0547 0.429689 16.9297 0.769533C16.8867 0.894533 16.8789 2.45703 16.875 9.98828C16.875 18.9531 16.875 19.0625 16.9531 19.2656C17.0469 19.5195 17.2852 19.7656 17.5586 19.8906C17.7305 19.9688 17.8164 19.9805 18.2422 19.9805C18.6758 19.9805 18.75 19.9688 18.9141 19.8906C19.1289 19.7852 19.3164 19.5859 19.4297 19.3398L19.5117 19.1602V10V0.839846L19.418 0.632814C19.3008 0.371096 19.0352 0.136721 18.7773 0.0585957C18.5312 -0.0156231 17.8945 -0.0156231 17.6641 0.0585957Z" fill="#106DB6"/>
</svg>
