<svg width="20" height="20" viewBox="0 0 20 20" fill="none" xmlns="http://www.w3.org/2000/svg">
<path d="M5.11518 0.409014C2.95166 0.641081 1.30806 1.9702 0.649775 4.01661C0.343695 4.96598 0.356274 4.70015 0.356274 10.0841V14.9153L0.45271 15.3921C0.897154 17.5947 2.285 19.101 4.32692 19.5989C5.06487 19.7803 5.68961 19.7972 10.4611 19.7761C15.2577 19.7592 15.1026 19.7634 15.9328 19.5103C17.7819 18.9407 19.0439 17.4723 19.48 15.3795C19.5554 15.0208 19.5596 14.7381 19.5596 10.0841C19.5596 5.4934 19.5554 5.14319 19.4842 4.78876C18.981 2.30775 17.3164 0.721251 14.9055 0.425892C14.5533 0.383698 5.50512 0.366819 5.11518 0.409014ZM15.3206 1.9069C16.7253 2.29509 17.6561 3.26134 18.0628 4.74657L18.176 5.16851V10.0841V14.9997L18.0586 15.4217C17.8489 16.1769 17.5554 16.717 17.09 17.2107C16.4485 17.8858 15.6686 18.2445 14.5953 18.3542C14.2934 18.3879 12.7043 18.3964 9.64349 18.3837C4.74621 18.3668 4.94747 18.3753 4.23468 18.1263C3.72734 17.9491 3.32902 17.6959 2.91393 17.2782C2.27242 16.6326 1.91183 15.8647 1.76089 14.831C1.73573 14.6495 1.71896 12.8267 1.71896 10.063C1.71896 5.11788 1.71476 5.17695 1.9873 4.37948C2.19694 3.75501 2.43175 3.37526 2.89296 2.90691C3.31225 2.48075 3.58059 2.29931 4.1089 2.0799C4.39401 1.96176 4.84684 1.84361 5.17808 1.80142C5.24936 1.78876 7.46319 1.78454 10.1047 1.78876L14.9055 1.79298L15.3206 1.9069Z" fill="#106DB6"/>
<path d="M10.7245 5.02008C10.2675 5.11774 9.88861 5.43805 9.76556 5.83649C9.71673 5.99274 9.70696 6.26422 9.74603 6.42633C9.83196 6.79157 10.1503 7.12555 10.537 7.25836C10.7421 7.32867 11.0429 7.3443 11.2538 7.29742C11.8046 7.17438 12.207 6.70367 12.207 6.18219C12.207 5.85992 12.1035 5.61578 11.8671 5.37946C11.6933 5.20563 11.5859 5.13922 11.3671 5.065C11.2031 5.01032 10.8808 4.98688 10.7245 5.02008Z" fill="#106DB6"/>
<path d="M9.5409 8.4003C9.2284 8.4335 8.83777 8.54483 8.24012 8.77334L7.93348 8.89053L7.86512 9.16592C7.82605 9.31827 7.79871 9.44522 7.80262 9.44913C7.80652 9.45303 7.90613 9.42374 8.02527 9.38663C8.41785 9.25967 8.80066 9.24795 9.03504 9.35733C9.20105 9.43545 9.27723 9.61514 9.27723 9.92764C9.27723 10.2245 9.20691 10.5312 8.84559 11.8026C8.5741 12.7655 8.5116 13.0273 8.47449 13.369C8.4159 13.912 8.52137 14.2694 8.82801 14.5722C9.13074 14.873 9.49402 14.9921 10.0975 14.9882C10.4823 14.9882 10.6464 14.9628 10.9686 14.8534C11.2772 14.7519 11.9022 14.5097 11.9257 14.4843C11.9471 14.4648 12.0761 13.9452 12.0643 13.9335C12.0624 13.9296 11.9999 13.9491 11.9276 13.9745C11.5604 14.1093 11.119 14.1366 10.871 14.0429C10.7382 13.9921 10.6757 13.9355 10.6171 13.8085C10.5819 13.7323 10.5761 13.6855 10.578 13.4569C10.58 13.0956 10.6229 12.9003 10.9667 11.6796C11.2792 10.5761 11.3143 10.4355 11.3475 10.1464C11.4276 9.4667 11.3456 9.13272 11.0175 8.8085C10.8905 8.6835 10.8124 8.62295 10.703 8.57022C10.3788 8.41006 9.98816 8.35342 9.5409 8.4003Z" fill="#106DB6"/>
</svg>
