<svg width="18" height="18" viewBox="0 0 18 18" fill="none" xmlns="http://www.w3.org/2000/svg">
<path d="M5.98056 2.60809V4.23669L5.80773 4.17686C5.41221 4.04059 5.05325 3.99074 4.48491 3.99074C3.88 3.99406 3.59416 4.03727 3.06902 4.2101C2.39432 4.42946 1.86918 4.76183 1.32742 5.30359C0.652717 5.97497 0.270495 6.68956 0.0743986 7.63015C0.00127791 7.98246 -0.00536943 8.85991 0.0611039 9.22551C0.223964 10.1296 0.659364 10.9605 1.3241 11.6219C1.98883 12.2899 2.76325 12.6987 3.69387 12.8749L3.98636 12.9281V15.464V18H4.48491H4.98346V15.4607V12.9248L5.23273 12.8849C5.369 12.8616 5.59169 12.8084 5.73128 12.7652L5.98056 12.6888V14.3141V15.9393H11.4978H17.0151V10.0963V4.25663L15.3766 2.61806L13.7413 0.982817H9.85928H5.98056V2.60809ZM13.0267 3.47557V4.97122H14.5224H16.018V9.95672V14.9422H11.4978H6.97766V13.5629V12.1869L7.13719 12.0805C7.41638 11.8878 7.98141 11.2895 8.21739 10.9372C8.73588 10.1528 8.95524 9.41829 8.95524 8.46107C8.95524 7.72322 8.84556 7.22134 8.54975 6.56658C8.29051 5.99823 7.70222 5.27035 7.20367 4.8981L6.97766 4.72859V3.35592V1.97992H10.0022H13.0267V3.47557ZM14.672 3.34262L15.3034 3.97412H14.662H14.0238V3.34262C14.0238 2.99364 14.0272 2.71112 14.0338 2.71112C14.0371 2.71112 14.3263 2.99364 14.672 3.34262ZM5.28259 5.06428C5.94067 5.23711 6.49573 5.54954 6.94775 5.99823C7.39644 6.44693 7.69889 6.98536 7.88502 7.66339C7.98141 8.02567 7.98141 8.89647 7.88502 9.25875C7.69889 9.93678 7.39644 10.4752 6.94775 10.9239C6.49905 11.3726 5.96062 11.6751 5.28259 11.8612C4.91698 11.9609 4.04951 11.9576 3.67726 11.8579C2.13507 11.4358 1.09476 10.1894 1.00503 8.66049C0.915287 7.09504 1.89577 5.65257 3.37813 5.16067C3.57422 5.09419 3.83347 5.02772 3.95312 5.00778C4.27884 4.95792 4.98678 4.98784 5.28259 5.06428Z" fill="#106DB6"/>
<path d="M10.5339 7.46397V7.96252H12.5281H14.5223V7.46397V6.96542H12.5281H10.5339V7.46397Z" fill="#106DB6"/>
<path d="M10.0354 9.45817V9.95672H12.2789H14.5224V9.45817V8.95962H12.2789H10.0354V9.45817Z" fill="#106DB6"/>
<path d="M9.53687 11.4524V11.9509H12.0296H14.5224V11.4524V10.9538H12.0296H9.53687V11.4524Z" fill="#106DB6"/>
<path d="M3.98633 7.96252V9.95672H4.48488H4.98343V7.96252V5.96832H4.48488H3.98633V7.96252Z" fill="#106DB6"/>
<path d="M5.98059 8.46107V9.95672H6.47914H6.97769V8.46107V6.96542H6.47914H5.98059V8.46107Z" fill="#106DB6"/>
<path d="M1.99219 8.95962V9.95672H2.49074H2.98929V8.95962V7.96252H2.49074H1.99219V8.95962Z" fill="#106DB6"/>
</svg>
