<svg width="20" height="16" viewBox="0 0 20 16" fill="none" xmlns="http://www.w3.org/2000/svg">
<path d="M5.4352 5.71143C4.66947 5.71139 3.92093 5.93843 3.28423 6.36383C2.64753 6.78922 2.15128 7.39386 1.85823 8.1013C1.56517 8.80873 1.48848 9.58718 1.63785 10.3382C1.78722 11.0892 2.15594 11.7791 2.69738 12.3205C3.23882 12.862 3.92867 13.2308 4.67968 13.3801C5.43069 13.5295 6.20914 13.4529 6.91659 13.1599C7.62403 12.8668 8.2287 12.3706 8.65412 11.7339C9.07954 11.0973 9.3066 10.3487 9.3066 9.58299C9.30545 8.55657 8.8972 7.57252 8.17142 6.84671C7.44565 6.12091 6.46162 5.71263 5.4352 5.71143ZM3.27957 12.1092C3.28952 11.7784 3.42778 11.4645 3.66511 11.2339C3.90243 11.0032 4.22019 10.874 4.55113 10.8735H6.31926C6.65021 10.8739 6.96799 11.0032 7.20533 11.2338C7.44266 11.4645 7.58092 11.7784 7.59082 12.1092C6.99078 12.6244 6.22607 12.9077 5.4352 12.9077C4.64433 12.9077 3.87961 12.6244 3.27957 12.1092ZM8.06082 11.6158C7.94659 11.2429 7.7158 10.9164 7.40234 10.6844C7.08889 10.4523 6.70928 10.3268 6.31926 10.3264H4.55113C4.16125 10.327 3.78181 10.4525 3.46848 10.6845C3.15516 10.9165 2.92445 11.2429 2.8102 11.6156C2.42836 11.1243 2.19207 10.5357 2.12822 9.91673C2.06436 9.29776 2.1755 8.6733 2.449 8.11437C2.72249 7.55544 3.14736 7.08449 3.67527 6.75509C4.20318 6.42568 4.81294 6.25104 5.4352 6.25104C6.05745 6.25104 6.66721 6.42568 7.19512 6.75509C7.72304 7.08449 8.1479 7.55544 8.4214 8.11437C8.69489 8.6733 8.80603 9.29776 8.74218 9.91673C8.67832 10.5357 8.44204 11.1243 8.0602 11.6156L8.06082 11.6158Z" fill="#0160AE"/>
<path d="M5.43513 7.00342C5.12092 7.00371 4.81966 7.12864 4.59747 7.35081C4.37528 7.57297 4.2503 7.87421 4.24997 8.18842V8.54779C4.25355 8.85974 4.37998 9.15769 4.60184 9.37701C4.8237 9.59634 5.12308 9.71934 5.43505 9.71934C5.74701 9.71934 6.0464 9.59634 6.26825 9.37701C6.49011 9.15769 6.61654 8.85974 6.62013 8.54779V8.18842C6.61975 7.87425 6.49479 7.57306 6.27264 7.35091C6.05049 7.12876 5.74929 7.00379 5.43513 7.00342ZM6.07341 8.54764C6.07079 8.71517 6.00239 8.87495 5.88299 8.9925C5.76359 9.11005 5.60276 9.17593 5.4352 9.17593C5.26765 9.17593 5.10682 9.11005 4.98742 8.9925C4.86801 8.87495 4.79962 8.71517 4.797 8.54764V8.18826C4.79962 8.02073 4.86801 7.86094 4.98742 7.7434C5.10682 7.62585 5.26765 7.55997 5.4352 7.55997C5.60276 7.55997 5.76359 7.62585 5.88299 7.7434C6.00239 7.86094 6.07079 8.02073 6.07341 8.18826V8.54764Z" fill="#0160AE"/>
<path d="M19.7266 2.31689H13.7206V2.08252C13.7202 1.72005 13.576 1.37254 13.3197 1.11623C13.0634 0.859921 12.7159 0.715746 12.3534 0.715332H7.64641C7.28393 0.715746 6.93642 0.859921 6.68012 1.11623C6.42381 1.37254 6.27963 1.72005 6.27922 2.08252V2.31689H0.273438C0.200917 2.31689 0.131367 2.3457 0.080088 2.39698C0.0288085 2.44826 0 2.51781 0 2.59033L0 15.0113C0 15.0838 0.0288085 15.1533 0.080088 15.2046C0.131367 15.2559 0.200917 15.2847 0.273438 15.2847H19.7266C19.7991 15.2847 19.8686 15.2559 19.9199 15.2046C19.9712 15.1533 20 15.0838 20 15.0113V2.59033C20 2.51781 19.9712 2.44826 19.9199 2.39698C19.8686 2.3457 19.7991 2.31689 19.7266 2.31689ZM6.82609 2.08252C6.82634 1.86504 6.91285 1.65653 7.06663 1.50275C7.22042 1.34896 7.42892 1.26246 7.64641 1.26221H12.3534C12.5709 1.26246 12.7794 1.34896 12.9332 1.50275C13.087 1.65653 13.1735 1.86504 13.1737 2.08252V3.61377H6.82609V2.08252ZM19.4531 14.7378H0.546875V2.86377H6.27922V3.88783C6.27926 3.96034 6.30808 4.02987 6.35935 4.08114C6.41062 4.13241 6.48015 4.16123 6.55266 4.16127H13.4472C13.5197 4.16127 13.5893 4.13246 13.6405 4.08118C13.6918 4.0299 13.7206 3.96035 13.7206 3.88783V2.86377H19.4531V14.7378Z" fill="#0160AE"/>
<path d="M10.4883 6.39502C10.4883 6.46753 10.5171 6.53705 10.5684 6.58832C10.6197 6.63959 10.6892 6.66842 10.7617 6.66846H18.1628C18.2353 6.66846 18.3049 6.63965 18.3562 6.58837C18.4074 6.53709 18.4362 6.46754 18.4362 6.39502C18.4362 6.3225 18.4074 6.25295 18.3562 6.20167C18.3049 6.15039 18.2353 6.12158 18.1628 6.12158H10.7617C10.6892 6.12158 10.6196 6.15039 10.5684 6.20167C10.5171 6.25295 10.4883 6.3225 10.4883 6.39502Z" fill="#0160AE"/>
<path d="M10.7617 8.26221H16.8945C16.9671 8.26221 17.0366 8.2334 17.0879 8.18212C17.1392 8.13084 17.168 8.06129 17.168 7.98877C17.168 7.91625 17.1392 7.8467 17.0879 7.79542C17.0366 7.74414 16.9671 7.71533 16.8945 7.71533H10.7617C10.6892 7.71533 10.6196 7.74414 10.5684 7.79542C10.5171 7.8467 10.4883 7.91625 10.4883 7.98877C10.4883 8.06129 10.5171 8.13084 10.5684 8.18212C10.6196 8.2334 10.6892 8.26221 10.7617 8.26221Z" fill="#0160AE"/>
<path d="M18.1628 9.30957H10.7617C10.6892 9.30957 10.6196 9.33838 10.5684 9.38966C10.5171 9.44094 10.4883 9.51049 10.4883 9.58301C10.4883 9.65553 10.5171 9.72508 10.5684 9.77636C10.6196 9.82764 10.6892 9.85645 10.7617 9.85645H18.1628C18.2353 9.85645 18.3049 9.82764 18.3562 9.77636C18.4074 9.72508 18.4362 9.65553 18.4362 9.58301C18.4362 9.51049 18.4074 9.44094 18.3562 9.38966C18.3049 9.33838 18.2353 9.30957 18.1628 9.30957Z" fill="#0160AE"/>
<path d="M10.7617 11.4507H16.8945C16.9671 11.4507 17.0366 11.4219 17.0879 11.3706C17.1392 11.3193 17.168 11.2498 17.168 11.1772C17.168 11.1047 17.1392 11.0352 17.0879 10.9839C17.0366 10.9326 16.9671 10.9038 16.8945 10.9038H10.7617C10.6892 10.9038 10.6196 10.9326 10.5684 10.9839C10.5171 11.0352 10.4883 11.1047 10.4883 11.1772C10.4883 11.2498 10.5171 11.3193 10.5684 11.3706C10.6196 11.4219 10.6892 11.4507 10.7617 11.4507Z" fill="#0160AE"/>
<path d="M18.1628 12.498H10.7617C10.6892 12.498 10.6196 12.5269 10.5684 12.5781C10.5171 12.6294 10.4883 12.699 10.4883 12.7715C10.4883 12.844 10.5171 12.9136 10.5684 12.9648C10.6196 13.0161 10.6892 13.0449 10.7617 13.0449H18.1628C18.2353 13.0449 18.3049 13.0161 18.3562 12.9648C18.4074 12.9136 18.4362 12.844 18.4362 12.7715C18.4362 12.699 18.4074 12.6294 18.3562 12.5781C18.3049 12.5269 18.2353 12.498 18.1628 12.498Z" fill="#0160AE"/>
</svg>
