<svg width="15" height="16" viewBox="0 0 15 16" fill="none" xmlns="http://www.w3.org/2000/svg">
<path d="M6.89425 0.012495C6.83048 0.019208 6.65595 0.0427027 6.50827 0.0628405C3.53448 0.458898 1.05409 2.61372 0.261976 5.48681C0.0572344 6.242 0.000175329 6.6582 0.000175329 7.49395C-0.00318109 8.32634 0.0404523 8.67205 0.235124 9.41717C0.55734 10.6624 1.18499 11.7801 2.0778 12.7065C3.25254 13.9282 4.68238 14.67 6.40757 14.9519C6.91775 15.0358 8.069 15.0325 8.58924 14.9485C9.717 14.7673 10.7508 14.3746 11.6369 13.7839C13.4292 12.5923 14.6073 10.7396 14.9396 8.58478C15.0201 8.05111 15.0201 6.97035 14.9396 6.43668C14.6778 4.74168 13.9226 3.27493 12.7009 2.09347C11.5865 1.01942 10.2708 0.361562 8.68994 0.0896921C8.30395 0.0259199 7.19969 -0.0244255 6.89425 0.012495ZM10.0459 4.75847C10.2238 4.84909 10.3245 5.01691 10.3245 5.22836C10.3212 5.31899 10.3044 5.42639 10.2842 5.47003C10.2641 5.51366 9.79755 5.99027 9.25046 6.5273L8.2536 7.51073L9.28402 8.52437C10.1869 9.41382 10.3178 9.55814 10.3379 9.66555C10.3715 9.86022 10.3245 10.018 10.1936 10.1657C10.0459 10.3268 9.87475 10.3838 9.67337 10.3301C9.54918 10.2966 9.39478 10.1556 8.51205 9.27956L7.49505 8.26592L6.4982 9.27956C5.61882 10.1724 5.48456 10.2966 5.36037 10.3301C4.97774 10.4275 4.62196 10.0918 4.6958 9.70582C4.7193 9.56486 4.80321 9.47423 6.08871 8.1753L6.74322 7.51073L5.74636 6.51387C4.67231 5.43311 4.67231 5.43646 4.72937 5.13774C4.75957 4.97328 4.96096 4.77189 5.12542 4.74168C5.42414 4.68463 5.42079 4.68463 6.50155 5.75868L7.49841 6.75553L8.49862 5.75868C9.04572 5.20823 9.5324 4.74504 9.57939 4.72826C9.717 4.67456 9.90832 4.68798 10.0459 4.75847Z" fill="#ED1C24"/>
</svg>
