<svg width="10" height="13" viewBox="0 0 10 13" fill="none" xmlns="http://www.w3.org/2000/svg">
<path d="M6.70131 4.46088C6.54205 4.46088 6.41296 4.58997 6.41296 4.74923V10.199C6.41296 10.3582 6.54205 10.4874 6.70131 10.4874C6.86058 10.4874 6.98966 10.3582 6.98966 10.199V4.74923C6.98966 4.58997 6.86058 4.46088 6.70131 4.46088Z" fill="#ED1C24"/>
<path d="M3.29885 4.46088C3.13958 4.46088 3.0105 4.58997 3.0105 4.74923V10.199C3.0105 10.3582 3.13958 10.4874 3.29885 10.4874C3.45811 10.4874 3.5872 10.3582 3.5872 10.199V4.74923C3.5872 4.58997 3.45811 4.46088 3.29885 4.46088Z" fill="#ED1C24"/>
<path d="M0.818955 3.66555V10.7698C0.818955 11.1897 0.972928 11.5841 1.2419 11.867C1.50964 12.1507 1.88224 12.3118 2.27218 12.3125H7.72782C8.11788 12.3118 8.49047 12.1507 8.7581 11.867C9.02707 11.5841 9.18105 11.1897 9.18105 10.7698V3.66555C9.71573 3.52363 10.0622 3.00708 9.99067 2.45843C9.91904 1.90989 9.45171 1.49956 8.89844 1.49945H7.42212V1.13901C7.42381 0.835909 7.30397 0.544858 7.0894 0.330737C6.87483 0.116729 6.58332 -0.0024401 6.28022 3.78866e-05H3.71978C3.41668 -0.0024401 3.12518 0.116729 2.9106 0.330737C2.69603 0.544858 2.57619 0.835909 2.57788 1.13901V1.49945H1.10156C0.548291 1.49956 0.0809647 1.90989 0.00932821 2.45843C-0.0621956 3.00708 0.284272 3.52363 0.818955 3.66555ZM7.72782 11.7358H2.27218C1.77918 11.7358 1.39565 11.3123 1.39565 10.7698V3.69089H8.60435V10.7698C8.60435 11.3123 8.22082 11.7358 7.72782 11.7358ZM3.15457 1.13901C3.15266 0.988868 3.21168 0.844357 3.31823 0.738366C3.42467 0.632376 3.56952 0.574143 3.71978 0.576734H6.28022C6.43048 0.574143 6.57533 0.632376 6.68177 0.738366C6.78832 0.844244 6.84734 0.988868 6.84543 1.13901V1.49945H3.15457V1.13901ZM1.10156 2.07614H8.89844C9.1851 2.07614 9.41747 2.30851 9.41747 2.59517C9.41747 2.88183 9.1851 3.1142 8.89844 3.1142H1.10156C0.8149 3.1142 0.582532 2.88183 0.582532 2.59517C0.582532 2.30851 0.8149 2.07614 1.10156 2.07614Z" fill="#ED1C24"/>
<path d="M5.00002 4.46088C4.84075 4.46088 4.71167 4.58997 4.71167 4.74923V10.199C4.71167 10.3582 4.84075 10.4874 5.00002 10.4874C5.15929 10.4874 5.28837 10.3582 5.28837 10.199V4.74923C5.28837 4.58997 5.15929 4.46088 5.00002 4.46088Z" fill="#ED1C24"/>
</svg>
