<svg width="20" height="20" viewBox="0 0 20 20" fill="none" xmlns="http://www.w3.org/2000/svg">
<path d="M1.89197 16H2.00009L7.21628 14.8648C7.31788 14.8479 7.41203 14.8008 7.48652 14.7297L16.3242 5.89193C16.9698 5.24773 17.33 4.37151 17.3243 3.45954C17.3254 2.54049 16.9664 1.65759 16.3242 1.00009C15.6801 0.354488 14.8039 -0.00571524 13.8919 0.000130364C12.974 -0.00799141 12.0937 0.363696 11.4595 1.02715L2.64869 9.86488C2.57099 9.92742 2.51435 10.0123 2.48652 10.1081L1.35143 15.3243C1.32045 15.5116 1.38066 15.7024 1.51361 15.8378C1.6134 15.9397 1.7494 15.998 1.89197 16ZM13.8919 1.08121C15.1905 1.0811 16.2432 2.13378 16.2433 3.43238C16.2433 3.44143 16.2433 3.45049 16.2432 3.45954C16.252 4.07819 16.008 4.67367 15.5675 5.10816L12.2432 1.75681C12.6812 1.3216 13.2744 1.07846 13.8919 1.08121ZM11.4865 2.54064L14.8108 5.86493L7.10811 13.5405L3.78382 10.2432L11.4865 2.54064ZM3.35141 11.3244L6.02704 14L2.59463 14.7568L3.35141 11.3244Z" fill="#106DB6"/>
<path d="M19.054 18.9189H0.946009C0.64747 18.9189 0.405472 19.1609 0.405472 19.4595C0.405472 19.758 0.64747 20 0.946009 20H19.054C19.3525 20 19.5945 19.758 19.5945 19.4595C19.5945 19.1609 19.3525 18.9189 19.054 18.9189Z" fill="#106DB6"/>
</svg>
