<svg width="15" height="15" viewBox="0 0 15 15" fill="none" xmlns="http://www.w3.org/2000/svg">
<path d="M2.69283 0.0180683C2.42031 0.0649538 2.20639 0.270077 2.13899 0.545528C2.11848 0.639299 2.10969 2.18065 2.11555 5.82306C2.12434 10.8925 2.12434 10.9717 2.18295 11.0361L2.23863 11.0977L2.46719 10.6493L2.69283 10.201V5.43332C2.69576 1.14039 2.70162 0.662742 2.74264 0.621716C2.78367 0.580692 3.06205 0.574832 5.37115 0.574832C7.6656 0.574832 7.9645 0.580692 8.0231 0.621716C8.08757 0.665672 8.08757 0.671533 8.08757 1.51254V2.36233L8.17255 2.45611L8.25753 2.55281L9.02821 2.5616C9.68753 2.57039 9.80767 2.57625 9.85163 2.61727C9.90145 2.66123 9.90438 2.80188 9.90438 5.00549V7.34683L10.1915 7.33804L10.4758 7.32925V4.75056C10.4758 2.50592 10.4699 2.16307 10.4318 2.11033C10.3439 1.99018 8.58573 0.0913267 8.52126 0.0473719C8.46265 0.00927734 8.08757 0.00341702 5.64074 0.000486374C4.09353 -0.00244427 2.76609 0.0063467 2.69283 0.0180683ZM9.32417 1.75283L9.52929 1.98139H9.10146H8.67364V1.5184L8.67657 1.05834L8.89634 1.29276C9.01942 1.4217 9.21282 1.62975 9.32417 1.75283Z" fill="#106DB6"/>
<path d="M3.4666 3.19907C3.35818 3.25474 3.25269 3.40419 3.25269 3.50675C3.25269 3.61811 3.35232 3.77341 3.46074 3.83202C3.55451 3.88184 3.70103 3.88477 6.30023 3.88477C8.89944 3.88477 9.04595 3.88184 9.13972 3.83202C9.24815 3.77341 9.34778 3.61811 9.34778 3.50675C9.34778 3.40126 9.24229 3.25181 9.13093 3.19907C9.04009 3.15804 8.74706 3.15218 6.29437 3.15218C3.84754 3.15218 3.55158 3.15804 3.4666 3.19907Z" fill="#106DB6"/>
<path d="M0.594858 4.1902C0.331128 4.27518 0.0908403 4.53012 0.0322337 4.79385C0.0117213 4.87883 0 6.39674 0 9.15126V13.3768L0.061537 13.5468C0.143586 13.7607 0.345779 13.9687 0.542112 14.0332C0.673977 14.0801 1.12525 14.083 6.1537 14.083H11.6246L11.8034 13.9922C12.1345 13.8281 12.1345 13.8251 13.6143 11.0237C14.5432 9.25968 14.9769 8.40695 14.9916 8.31904C15.015 8.15787 14.9916 8.0729 14.8949 7.95568C14.7484 7.77986 14.763 7.78279 13.1718 7.78279H11.7213V7.09416C11.7213 6.47879 11.7155 6.39088 11.6627 6.25023C11.5719 6.00408 11.3375 5.80189 11.0854 5.74621L10.9887 5.7257V6.75425V7.78279H7.86208H4.73249L4.58597 7.85312C4.50685 7.88828 4.38964 7.97619 4.32517 8.04652C4.24605 8.13443 3.91199 8.77618 3.1589 10.2999C2.57869 11.4692 1.99849 12.6413 1.87248 12.9021L1.64392 13.3797H1.34795C1.0051 13.3797 0.876169 13.3358 0.78826 13.1922C0.735514 13.1043 0.732583 12.9636 0.732583 9.12195C0.732583 5.48834 0.735514 5.13377 0.779468 5.05758C0.867378 4.914 0.958219 4.88176 1.30107 4.88176H1.61168V4.51547V4.14918L1.16627 4.15211C0.88496 4.15211 0.671046 4.16676 0.594858 4.1902Z" fill="#106DB6"/>
<path d="M3.56035 5.25998C3.42849 5.29221 3.34644 5.35374 3.29662 5.45631C3.23801 5.58231 3.24094 5.67022 3.31127 5.78157C3.42849 5.9779 3.2556 5.96618 6.30021 5.96618C9.34483 5.96618 9.17194 5.9779 9.28915 5.78157C9.32138 5.72882 9.34776 5.65556 9.34776 5.6204C9.34776 5.50612 9.26571 5.3684 9.16315 5.30686C9.07231 5.25118 8.99319 5.24825 6.35882 5.24239C4.86728 5.24239 3.61017 5.24825 3.56035 5.25998Z" fill="#106DB6"/>
<path d="M3.46074 7.39585C3.35525 7.45152 3.25269 7.60683 3.25269 7.70939C3.25269 7.88228 3.46074 8.07568 3.64828 8.07568C3.7274 8.07568 3.74791 8.0581 3.80359 7.94089C3.90029 7.74749 4.1142 7.53357 4.31639 7.43101L4.49221 7.3431H4.02629C3.6307 7.3431 3.54572 7.35189 3.46074 7.39585Z" fill="#106DB6"/>
</svg>
