<svg width="17" height="19" viewBox="0 0 17 19" fill="none" xmlns="http://www.w3.org/2000/svg">
<path d="M3.80859 0.0594905C3.19531 0.223553 2.71875 0.74699 2.60156 1.38762C2.57812 1.51262 2.55859 1.89152 2.55859 2.23137C2.55859 2.59855 2.54297 2.84855 2.51953 2.84855C2.5 2.84855 2.30469 2.82121 2.08594 2.78605C1.87109 2.7509 1.56641 2.73137 1.41406 2.73918C0.863281 2.76652 0.367188 3.10637 0.125 3.62199L0 3.88371V9.37199V14.8603L0.125 15.122C0.277344 15.4423 0.523438 15.6962 0.835938 15.8525C1.16406 16.0204 1.47656 16.0595 1.98047 15.9892C2.62891 15.9032 2.55859 15.8368 2.55859 16.5321C2.55859 16.8603 2.57812 17.2314 2.60156 17.3564C2.6875 17.8329 2.98047 18.2587 3.38281 18.5009C3.81641 18.7587 3.50391 18.747 9.42188 18.747C13.1953 18.747 14.8438 18.7353 14.9883 18.704C15.4141 18.6142 15.8672 18.29 16.0898 17.9111C16.3203 17.5165 16.3125 17.829 16.3008 11.8095L16.2891 6.30558L16.168 6.05168C16.0977 5.91105 15.9922 5.73137 15.9336 5.65324C15.7617 5.43449 10.1133 0.375897 9.88672 0.239178C9.48828 -0.00300947 9.48438 -0.00300947 6.62109 0.000896781C4.46484 0.000896781 3.98828 0.0126155 3.80859 0.0594905ZM8.80859 3.40715C8.80859 5.82512 8.8125 5.86418 9.07422 6.24308C9.15234 6.36027 9.30469 6.51262 9.40625 6.58683C9.77344 6.83683 9.73047 6.83293 12.5273 6.83293H15.0586V12.0282V17.2236L14.9453 17.3486L14.832 17.4775L9.49609 17.4892C3.57031 17.497 3.98047 17.5165 3.86328 17.2431C3.81641 17.1298 3.80859 15.9696 3.80859 9.3798C3.80859 3.73137 3.82031 1.61418 3.85156 1.52433C3.87891 1.45402 3.95312 1.36418 4.01953 1.32121C4.13672 1.2509 4.25 1.24699 6.47656 1.24699H8.80859V3.40715ZM12.0859 3.80558L14.043 5.5634L12.1055 5.57512C10.7031 5.57902 10.1484 5.57121 10.1133 5.53996C10.0664 5.5048 10.0586 5.17668 10.0586 3.75871C10.0586 2.70793 10.0742 2.02824 10.0938 2.03605C10.1133 2.03996 11.0117 2.83683 12.0859 3.80558ZM2.19922 4.07902L2.55859 4.14933V9.39543C2.55859 12.2821 2.54688 14.6454 2.53125 14.6454C2.51172 14.6454 2.32422 14.6728 2.10938 14.704C1.5625 14.7821 1.42969 14.7782 1.32031 14.6767L1.23047 14.5946V9.3759V4.16105L1.32031 4.0673C1.39453 3.98527 1.42969 3.97355 1.62109 3.99308C1.73828 4.0048 2 4.04387 2.19922 4.07902Z" fill="#106DB6"/>
<path d="M6.9336 11.7197C6.58594 11.8603 6.42969 12.3173 6.63281 12.6142C6.82422 12.8993 6.85156 12.9072 7.7461 12.9189C8.52344 12.9267 8.56251 12.9228 8.71095 12.8407C8.91798 12.7197 9.06251 12.4462 9.02345 12.2314C8.98829 12.0126 8.8711 11.8486 8.69532 11.7548C8.55079 11.6845 8.46876 11.6767 7.78516 11.6806C7.3711 11.6806 6.98828 11.7001 6.9336 11.7197Z" fill="#106DB6"/>
<path d="M6.93362 14.4149C6.87893 14.4383 6.793 14.493 6.74612 14.5399C6.44143 14.8212 6.4805 15.2626 6.82815 15.5204C6.93753 15.6024 6.96878 15.6024 9.61331 15.6141C12.2461 15.6219 12.2891 15.6219 12.4414 15.5438C12.875 15.3212 12.8867 14.7001 12.461 14.4618L12.3047 14.3719L9.668 14.3758C8.01175 14.3758 6.99612 14.3915 6.93362 14.4149Z" fill="#106DB6"/>
</svg>
