<svg width="13" height="13" viewBox="0 0 13 13" fill="none" xmlns="http://www.w3.org/2000/svg">
<path d="M10.4 7.8C9.61789 7.8 8.918 8.14726 8.44122 8.69391L5.14199 7.04437C5.17936 6.86871 5.2 6.68671 5.2 6.5C5.2 6.31329 5.17936 6.13129 5.14199 5.95579L8.44122 4.30609C8.91784 4.8529 9.61789 5.2 10.4 5.2C11.8358 5.2 13 4.03585 13 2.6C13 1.16415 11.8358 0 10.4 0C8.96415 0 7.8 1.16415 7.8 2.6C7.8 2.78671 7.82064 2.96871 7.85801 3.14421L4.55877 4.79391C4.08216 4.2471 3.38227 3.9 2.6 3.9C1.16415 3.9 0 5.06415 0 6.5C0 7.93585 1.16415 9.1 2.6 9.1C3.38227 9.1 4.082 8.75274 4.55877 8.20609L7.85817 9.85579C7.82064 10.0313 7.8 10.2133 7.8 10.4C7.8 11.8358 8.96415 13 10.4 13C11.8358 13 13 11.8358 13 10.4C13 8.96415 11.8358 7.8 10.4 7.8ZM10.4 1.3C11.1179 1.3 11.7 1.88207 11.7 2.6C11.7 3.31792 11.1179 3.9 10.4 3.9C9.68207 3.9 9.1 3.31792 9.1 2.6C9.1 1.88207 9.68207 1.3 10.4 1.3ZM2.6 7.8C1.88207 7.8 1.3 7.21792 1.3 6.5C1.3 5.78207 1.88207 5.2 2.6 5.2C3.31792 5.2 3.9 5.78207 3.9 6.5C3.9 7.21792 3.31792 7.8 2.6 7.8ZM10.4 11.7C9.68207 11.7 9.1 11.1179 9.1 10.4C9.1 9.68207 9.68207 9.1 10.4 9.1C11.1179 9.1 11.7 9.68207 11.7 10.4C11.7 11.1179 11.1179 11.7 10.4 11.7Z" fill="#106DB6"/>
</svg>
