<svg width="20" height="20" viewBox="0 0 20 20" fill="none" xmlns="http://www.w3.org/2000/svg">
<path d="M18.2812 19.9613C18.5625 19.9144 18.7344 19.8245 18.957 19.6136C19.1836 19.3988 19.3398 19.1253 19.4453 18.7425C19.5078 18.512 19.5117 17.9535 19.5117 10.0199C19.5117 2.08627 19.5078 1.52767 19.4453 1.29721C19.25 0.59408 18.8984 0.195643 18.3516 0.0550178C17.9453 -0.050451 17.4453 0.043299 16.9688 0.31283C16.7227 0.449549 5.64062 8.07455 5.39844 8.26986C4.80859 8.75033 4.49609 9.31674 4.48437 9.9183C4.48047 10.305 4.52344 10.4925 4.69531 10.8597C4.98828 11.4691 4.82812 11.3519 11.1133 15.6683C14.2266 17.8089 16.875 19.6136 16.9922 19.68C17.4141 19.9144 17.918 20.0238 18.2812 19.9613Z" fill="#C4C4C4"/>
<path d="M2.33594 19.9414C2.67578 19.8359 2.94531 19.5703 3.07031 19.2305C3.11328 19.1055 3.12109 17.543 3.125 10.0117C3.125 1.04687 3.125 0.9375 3.04688 0.734375C2.95312 0.480469 2.71484 0.234375 2.44141 0.109375C2.26953 0.03125 2.18359 0.0195312 1.75781 0.0195312C1.32422 0.0195312 1.25 0.03125 1.08594 0.109375C0.871094 0.214844 0.683594 0.414062 0.570312 0.660156L0.488281 0.839844L0.488281 10L0.488281 19.1602L0.582031 19.3672C0.699219 19.6289 0.964844 19.8633 1.22266 19.9414C1.46875 20.0156 2.10547 20.0156 2.33594 19.9414Z" fill="#C4C4C4"/>
</svg>
