<svg width="15" height="16" viewBox="0 0 15 16" fill="none" xmlns="http://www.w3.org/2000/svg">
<path d="M7.24109 0.14863C7.0826 0.200383 6.81089 0.478556 6.76238 0.643518C6.73327 0.747025 6.72356 1.79502 6.72356 5.07488V9.37361L5.8567 8.50999C4.93161 7.5849 4.87339 7.54285 4.56934 7.54285C4.01946 7.54285 3.64425 8.1186 3.87067 8.61996C3.91919 8.72347 4.35909 9.18278 5.53001 10.3472C7.23139 12.0389 7.19904 12.0098 7.50633 12.0098C7.80391 12.0098 7.81038 12.0066 9.48588 10.3343C10.5436 9.27981 11.0838 8.717 11.1258 8.62966C11.2067 8.45823 11.2067 8.15418 11.1258 7.98275C10.9997 7.71428 10.728 7.54285 10.4271 7.54285C10.1263 7.54285 10.0649 7.5849 9.14302 8.50999L8.27615 9.37361V5.07488C8.27615 1.84678 8.26645 0.743791 8.23734 0.649988C8.18235 0.459148 7.9527 0.21979 7.76833 0.158334C7.59689 0.100111 7.40606 0.0968771 7.24109 0.14863Z" fill="#106DB6"/>
<path d="M0.513316 6.87653C0.345118 6.93152 0.0831185 7.20646 0.0346 7.38436C0.00225429 7.49757 -0.00421484 8.2868 0.00225429 10.8292L0.011958 14.1284L0.115464 14.3451C0.257785 14.646 0.438921 14.8336 0.733266 14.9791L0.979094 15.0988H7.49998H14.0209L14.2667 14.9791C14.561 14.8336 14.7422 14.646 14.8845 14.3451L14.988 14.1284L14.9977 10.8292C15.0042 8.3612 14.9977 7.49433 14.9686 7.39083C14.9136 7.19352 14.6872 6.95093 14.4963 6.88624C14.1826 6.77949 13.9303 6.83772 13.6942 7.07708C13.5907 7.17735 13.5163 7.28732 13.4904 7.37142C13.4613 7.47169 13.4516 8.25122 13.4516 10.5348V13.5624H7.49998H1.54838V10.5348C1.54838 8.2868 1.53867 7.47169 1.50956 7.37789C1.45457 7.18705 1.22492 6.94769 1.04055 6.88624C0.869118 6.82801 0.678279 6.82478 0.513316 6.87653Z" fill="#106DB6"/>
</svg>
