<svg width="12" height="13" viewBox="0 0 12 13" fill="none" xmlns="http://www.w3.org/2000/svg">
<path d="M8.53126 0.0126017C8.48089 0.0126017 3.65625 0 3.65625 0C2.79662 0 2.03126 0.788537 2.03126 1.62501L1.56163 1.63598C0.702407 1.63598 0 2.41353 0 3.25V11.375C0 12.2115 0.765378 13 1.62501 13H7.71876C8.57837 13 9.34375 12.2115 9.34375 11.375H9.75C10.6096 11.375 11.375 10.5865 11.375 9.75002V3.25976L8.53126 0.0126017ZM7.71876 12.1875H1.62501C1.19845 12.1875 0.812514 11.789 0.812514 11.375V3.25C0.812514 2.64551 1.30976 2.4375 2.03126 2.4375V9.75002C2.03126 10.5865 2.79662 11.375 3.65625 11.375C3.65625 11.375 8.06081 11.3705 8.5349 11.3705C8.5349 11.8637 8.21155 12.1875 7.71876 12.1875ZM8.53126 8.53572H4.87501C4.65076 8.53572 4.46876 8.35413 4.46876 8.12986C4.46876 7.90563 4.65076 7.72404 4.87501 7.72404H8.53126C8.75551 7.72404 8.93751 7.90563 8.93751 8.12986C8.93751 8.35415 8.75551 8.53572 8.53126 8.53572ZM8.53126 6.50651H4.87501C4.65076 6.50651 4.46876 6.3249 4.46876 6.10067C4.46876 5.87642 4.65076 5.69483 4.87501 5.69483H8.53126C8.75551 5.69483 8.93751 5.87642 8.93751 6.10067C8.93751 6.32451 8.75551 6.50651 8.53126 6.50651ZM9.34375 3.25C8.91111 3.25 8.53126 2.85961 8.53126 2.4375C8.53126 2.4375 8.53126 1.61443 8.53126 0.825097V0.824279L10.5625 3.25H9.34375Z" fill="#106DB6"/>
</svg>
