<svg width="20" height="20" viewBox="0 0 20 20" fill="none" xmlns="http://www.w3.org/2000/svg">
<path d="M19.2569 0H0.820311C0.388793 0 0.0390625 0.349732 0.0390625 0.78125C0.0390625 2.95685 0.971678 5.03388 2.59781 6.47934L6.01928 9.52042C6.61254 10.0478 6.95281 10.8055 6.95281 11.5994V19.2178C6.95281 19.8404 7.64861 20.2136 8.16726 19.8677L12.7765 16.795C12.9938 16.6501 13.1244 16.4063 13.1244 16.145V11.5994C13.1244 10.8055 13.4646 10.0478 14.0579 9.52042L17.4792 6.47934C19.1054 5.03388 20.038 2.95685 20.038 0.78125C20.038 0.349732 19.6882 0 19.2569 0ZM16.4412 5.31143L13.0198 8.35266C12.0933 9.17633 11.5619 10.3597 11.5619 11.5993V15.7269L8.51515 17.758V11.5994C8.51515 10.3597 7.98369 9.17633 7.05718 8.35266L3.63586 5.31159C2.53936 4.3367 1.83944 3.00095 1.65207 1.56235H18.425C18.2376 3.00095 17.5378 4.3367 16.4412 5.31143Z" fill="#106DB6"/>
</svg>
