<svg width="18" height="16" viewBox="0 0 18 16" fill="none" xmlns="http://www.w3.org/2000/svg">
<path d="M5.13814 0.0180683C4.86562 0.0649538 4.6517 0.270077 4.58431 0.545528C4.56379 0.639299 4.555 2.18065 4.56086 5.82306C4.56966 10.8925 4.56966 10.9717 4.62826 11.0361L4.68394 11.0977L4.9125 10.6493L5.13814 10.201V5.43332C5.14107 1.14039 5.14693 0.662742 5.18796 0.621716C5.22898 0.580692 5.50736 0.574832 7.81646 0.574832C10.1109 0.574832 10.4098 0.580692 10.4684 0.621716C10.5329 0.665672 10.5329 0.671533 10.5329 1.51254V2.36233L10.6179 2.45611L10.7028 2.55281L11.4735 2.5616C12.1328 2.57039 12.253 2.57625 12.2969 2.61727C12.3468 2.66123 12.3497 2.80188 12.3497 5.00549V7.34683L12.6369 7.33804L12.9211 7.32925V4.75056C12.9211 2.50592 12.9152 2.16307 12.8771 2.11033C12.7892 1.99018 11.031 0.0913267 10.9666 0.0473719C10.908 0.00927734 10.5329 0.00341702 8.08605 0.000486374C6.53884 -0.00244427 5.2114 0.0063467 5.13814 0.0180683ZM11.7695 1.75283L11.9746 1.98139H11.5468H11.1189V1.5184L11.1219 1.05834L11.3417 1.29276C11.4647 1.4217 11.6581 1.62975 11.7695 1.75283Z" fill="#106DB6"/>
<path d="M5.91191 3.19907C5.80349 3.25474 5.698 3.40419 5.698 3.50675C5.698 3.61811 5.79763 3.77341 5.90605 3.83202C5.99982 3.88184 6.14634 3.88477 8.74554 3.88477C11.3447 3.88477 11.4913 3.88184 11.585 3.83202C11.6935 3.77341 11.7931 3.61811 11.7931 3.50675C11.7931 3.40126 11.6876 3.25181 11.5762 3.19907C11.4854 3.15804 11.1924 3.15218 8.73968 3.15218C6.29286 3.15218 5.99689 3.15804 5.91191 3.19907Z" fill="#106DB6"/>
<path d="M3.04017 4.1902C2.77644 4.27518 2.53615 4.53012 2.47755 4.79385C2.45703 4.87883 2.44531 6.39674 2.44531 9.15126V13.3768L2.50685 13.5468C2.5889 13.7607 2.79109 13.9687 2.98742 14.0332C3.11929 14.0801 3.57056 14.083 8.59901 14.083H14.0699L14.2487 13.9922C14.5798 13.8281 14.5798 13.8251 16.0596 11.0237C16.9886 9.25968 17.4222 8.40695 17.4369 8.31904C17.4603 8.15787 17.4369 8.0729 17.3402 7.95568C17.1937 7.77986 17.2083 7.78279 15.6172 7.78279H14.1666V7.09416C14.1666 6.47879 14.1608 6.39088 14.108 6.25023C14.0172 6.00408 13.7828 5.80189 13.5308 5.74621L13.4341 5.7257V6.75425V7.78279H10.3074H7.1778L7.03128 7.85312C6.95216 7.88828 6.83495 7.97619 6.77048 8.04652C6.69136 8.13443 6.35731 8.77618 5.60421 10.2999C5.02401 11.4692 4.4438 12.6413 4.3178 12.9021L4.08923 13.3797H3.79327C3.45042 13.3797 3.32148 13.3358 3.23357 13.1922C3.18083 13.1043 3.1779 12.9636 3.1779 9.12195C3.1779 5.48834 3.18083 5.13377 3.22478 5.05758C3.31269 4.914 3.40353 4.88176 3.74638 4.88176H4.057V4.51547V4.14918L3.61158 4.15211C3.33027 4.15211 3.11636 4.16676 3.04017 4.1902Z" fill="#106DB6"/>
<path d="M6.00566 5.25998C5.8738 5.29221 5.79175 5.35374 5.74193 5.45631C5.68333 5.58231 5.68626 5.67022 5.75658 5.78157C5.8738 5.9779 5.70091 5.96618 8.74552 5.96618C11.7901 5.96618 11.6173 5.9779 11.7345 5.78157C11.7667 5.72882 11.7931 5.65556 11.7931 5.6204C11.7931 5.50612 11.711 5.3684 11.6085 5.30686C11.5176 5.25118 11.4385 5.24825 8.80413 5.24239C7.31259 5.24239 6.05548 5.24825 6.00566 5.25998Z" fill="#106DB6"/>
<path d="M5.90605 7.39585C5.80056 7.45152 5.698 7.60683 5.698 7.70939C5.698 7.88228 5.90605 8.07568 6.09359 8.07568C6.17271 8.07568 6.19322 8.0581 6.2489 7.94089C6.3456 7.74749 6.55951 7.53357 6.7617 7.43101L6.93752 7.3431H6.4716C6.07601 7.3431 5.99103 7.35189 5.90605 7.39585Z" fill="#106DB6"/>
<line x1="17.1902" y1="1.977" x2="0.299603" y2="14.6146" stroke="black"/>
</svg>
