<svg xmlns="http://www.w3.org/2000/svg" xmlns:xlink="http://www.w3.org/1999/xlink" viewBox="0,0,256,256" width="30px" height="30px"><g fill="none" fill-rule="nonzero" stroke="none" stroke-width="1" stroke-linecap="butt" stroke-linejoin="miter" stroke-miterlimit="10" stroke-dasharray="" stroke-dashoffset="0" font-family="none" font-weight="none" font-size="none" text-anchor="none" style="mix-blend-mode: normal"><g transform="scale(8.53333,8.53333)"><path d="M5.5,27.5v-25h13.293l5.707,5.707v19.293z" fill="#ffffff"></path><path d="M18.586,3l5.414,5.414v18.586h-18v-24h12.586M19,2h-14v26h20v-20l-6,-6z" fill="#106db6"></path><path d="M18.5,8.5v-6h0.293l5.707,5.707v0.293z" fill="#ffffff"></path><path d="M19,3.414l4.586,4.586h-4.586v-4.586M19,2h-1v7h7v-1l-6,-6zM9,12h12v1h-12zM9,15h10v1h-10zM9,18h12v1h-12zM9,21h10v1h-10z" fill="#106db6"></path></g></g></svg>