<svg width="51" height="47" viewBox="0 0 51 47" fill="none" xmlns="http://www.w3.org/2000/svg">
<path d="M44.4999 0.53125H5.80745C2.68858 0.53125 0.152344 3.01104 0.152344 6.06511V40.8459C0.152344 43.8963 2.68858 46.3735 5.80745 46.3735H44.4997C47.6186 46.3735 50.1522 43.8963 50.1522 40.8459V6.06511C50.1523 3.01104 47.6188 0.53125 44.4999 0.53125ZM32.4849 8.76115C35.501 8.76115 37.947 11.1537 37.947 14.1035C37.947 17.0533 35.5008 19.4458 32.4849 19.4458C29.4679 19.4458 27.0228 17.0533 27.0228 14.1035C27.0228 11.1537 29.4679 8.76115 32.4849 8.76115ZM42.7264 41.2607H25.1518H8.36026C6.8517 41.2607 6.17986 40.1932 6.85991 38.8762L16.2339 20.7165C16.9131 19.3996 18.2076 19.2821 19.1243 20.4537L28.5502 32.5017C29.4669 33.6735 31.0692 33.7732 32.1297 32.7234L34.4356 30.4395C35.4953 29.3897 37.0566 29.5197 37.9214 30.728L43.8925 39.0702C44.7557 40.2803 44.235 41.2607 42.7264 41.2607Z" fill="#106DB6"/>
</svg>
