<svg width="20" height="25" viewBox="0 0 20 25" fill="none" xmlns="http://www.w3.org/2000/svg">
<path d="M13.3758 15.1141C13.516 14.6885 13.7606 14.2923 14.0796 13.9711L19.0387 9.03203V5.85938H13.8922C13.4874 5.85938 13.1836 5.53179 13.1836 5.12695V0H2.19727C0.985645 0 0 0.985645 0 2.19727V22.8027C0 24.0144 0.985645 25 2.19727 25H16.8219C18.0335 25 19.0387 24.0144 19.0387 22.8027V17.3364L18.2338 18.1217C17.9077 18.445 17.5258 18.6803 17.0952 18.8241L14.7663 19.6016L14.4115 19.6209C13.825 19.6209 13.27 19.3355 12.9252 18.8578C12.5834 18.3821 12.4904 17.7656 12.6763 17.2084L13.3758 15.1141ZM3.66211 13.1836H10.9625C11.3674 13.1836 11.695 13.5112 11.695 13.916C11.695 14.3208 11.3674 14.6484 10.9625 14.6484H3.66211C3.25728 14.6484 2.92969 14.3208 2.92969 13.916C2.92969 13.5112 3.25728 13.1836 3.66211 13.1836ZM2.92969 10.9863C2.92969 10.5815 3.25728 10.2539 3.66211 10.2539H10.9625C11.3674 10.2539 11.695 10.5815 11.695 10.9863C11.695 11.3912 11.3674 11.7188 10.9625 11.7188H3.66211C3.25728 11.7188 2.92969 11.3912 2.92969 10.9863ZM2.92969 16.8457C2.92969 16.4409 3.25728 16.1133 3.66211 16.1133H10.9625C11.3674 16.1133 11.695 16.4409 11.695 16.8457C11.695 17.2505 11.3674 17.5781 10.9625 17.5781H3.66211C3.25728 17.5781 2.92969 17.2505 2.92969 16.8457ZM13.8922 20.5078C14.2971 20.5078 14.6247 20.8354 14.6247 21.2402C14.6247 21.6451 14.2971 21.9727 13.8922 21.9727H9.49771C9.09287 21.9727 8.76528 21.6451 8.76528 21.2402C8.76528 20.8354 9.09287 20.5078 9.49771 20.5078H13.8922ZM3.66211 8.78906C3.25728 8.78906 2.92969 8.46147 2.92969 8.05664C2.92969 7.65181 3.25728 7.32422 3.66211 7.32422H13.8922C14.2971 7.32422 14.6247 7.65181 14.6247 8.05664C14.6247 8.46147 14.2971 8.78906 13.8922 8.78906H3.66211Z" fill="#106DB6"/>
</svg>
