<svg width="20" height="22" viewBox="0 0 20 22" fill="none" xmlns="http://www.w3.org/2000/svg">
<path d="M17.739 0.689453H2.26204C1.01449 0.689453 0 1.80785 0 3.18524V18.8715C0 20.2472 1.01449 21.3645 2.26204 21.3645H17.739C18.9865 21.3645 19.9999 20.2472 19.9999 18.8715V3.18524C20 1.80785 18.9866 0.689453 17.739 0.689453ZM12.933 4.40117C14.1395 4.40117 15.1179 5.48021 15.1179 6.81057C15.1179 8.14093 14.1394 9.21998 12.933 9.21998C11.7262 9.21998 10.7482 8.14093 10.7482 6.81057C10.7482 5.48021 11.7262 4.40117 12.933 4.40117ZM17.0296 19.0586H9.9998H3.28317C2.67974 19.0586 2.41101 18.5771 2.68302 17.9831L6.43263 9.79305C6.70431 9.19916 7.22211 9.14615 7.58879 9.67455L11.3592 15.1082C11.7258 15.6367 12.3668 15.6817 12.7909 15.2082L13.7133 14.1782C14.1372 13.7047 14.7617 13.7633 15.1076 14.3083L17.4961 18.0706C17.8413 18.6164 17.633 19.0586 17.0296 19.0586Z" fill="#106DB6"/>
</svg>
