<svg width="24" height="17" viewBox="0 0 24 17" fill="none" xmlns="http://www.w3.org/2000/svg">
<path d="M9.80496 0.0150261C9.53542 0.054882 9.37071 0.131273 9.15732 0.310625C8.94019 0.493299 8.79045 0.725794 8.68937 1.05128C8.62948 1.24724 8.62573 1.7222 8.62573 8.46784C8.62573 15.2135 8.62948 15.6884 8.68937 15.8844C8.87655 16.4822 9.21347 16.821 9.73758 16.9406C10.1269 17.0303 10.6061 16.9505 11.0628 16.7214C11.2987 16.6051 21.9192 10.1219 22.1513 9.9558C22.7166 9.54727 23.0161 9.06568 23.0273 8.55419C23.031 8.22538 22.9899 8.06596 22.8251 7.75375C22.5444 7.23562 22.6979 7.33526 16.6744 3.66518C13.6908 1.84509 11.1527 0.310625 11.0403 0.254162C10.636 0.054882 10.1531 -0.0381145 9.80496 0.0150261Z" fill="#106DB6"/>
<path d="M2.13406 0.0150261C1.86452 0.054882 1.69981 0.131273 1.48642 0.310625C1.26929 0.493299 1.11955 0.725794 1.01847 1.05128C0.958578 1.24724 0.954834 1.7222 0.954834 8.46784C0.954834 15.2135 0.958578 15.6884 1.01847 15.8844C1.20565 16.4822 1.54258 16.821 2.06668 16.9406C2.45601 17.0303 2.93519 16.9505 3.39191 16.7214C3.62775 16.6051 14.2483 10.1219 14.4804 9.9558C15.0457 9.54727 15.3452 9.06568 15.3564 8.55419C15.3601 8.22538 15.319 8.06596 15.1542 7.75375C14.8735 7.23562 15.027 7.33526 9.00354 3.66518C6.0199 1.84509 3.48175 0.310625 3.36945 0.254162C2.96514 0.054882 2.48222 -0.0381145 2.13406 0.0150261Z" fill="#106DB6"/>
</svg>
