<svg width="24" height="17" viewBox="0 0 24 17" fill="none" xmlns="http://www.w3.org/2000/svg">
<path d="M9.80521 0.0150261C9.53567 0.054882 9.37095 0.131273 9.15757 0.310625C8.94044 0.493299 8.79069 0.725794 8.68962 1.05128C8.62972 1.24724 8.62598 1.7222 8.62598 8.46784C8.62598 15.2135 8.62972 15.6884 8.68962 15.8844C8.8768 16.4822 9.21372 16.821 9.73782 16.9406C10.1272 17.0303 10.6063 16.9505 11.063 16.7214C11.2989 16.6051 21.9194 10.1219 22.1515 9.9558C22.7168 9.54727 23.0163 9.06568 23.0275 8.55419C23.0313 8.22538 22.9901 8.06596 22.8254 7.75375C22.5446 7.23562 22.6981 7.33526 16.6747 3.66518C13.691 1.84509 11.1529 0.310625 11.0406 0.254162C10.6363 0.054882 10.1534 -0.0381145 9.80521 0.0150261Z" fill="#9F9F9F"/>
<path d="M2.13431 0.0150261C1.86477 0.054882 1.70005 0.131273 1.48667 0.310625C1.26954 0.493299 1.1198 0.725794 1.01872 1.05128C0.958822 1.24724 0.955078 1.7222 0.955078 8.46784C0.955078 15.2135 0.958822 15.6884 1.01872 15.8844C1.2059 16.4822 1.54282 16.821 2.06692 16.9406C2.45625 17.0303 2.93543 16.9505 3.39215 16.7214C3.628 16.6051 14.2485 10.1219 14.4806 9.9558C15.0459 9.54727 15.3454 9.06568 15.3566 8.55419C15.3604 8.22538 15.3192 8.06596 15.1545 7.75375C14.8737 7.23562 15.0272 7.33526 9.00378 3.66518C6.02015 1.84509 3.482 0.310625 3.36969 0.254162C2.96538 0.054882 2.48246 -0.0381145 2.13431 0.0150261Z" fill="#9F9F9F"/>
</svg>
