<svg width="12" height="9" viewBox="0 0 12 9" fill="none" xmlns="http://www.w3.org/2000/svg">
<path d="M11.1937 8.57222C11.1601 8.62654 11.1132 8.67138 11.0574 8.70249C11.0017 8.7336 10.9389 8.74994 10.875 8.74997H7.12499C7.02553 8.74997 6.93015 8.71047 6.85982 8.64014C6.7895 8.56981 6.74999 8.47443 6.74999 8.37497V0.874975C6.74999 0.790532 6.7785 0.708562 6.83089 0.642337C6.88328 0.576112 6.95649 0.529508 7.03867 0.51007C7.12084 0.490633 7.20718 0.499499 7.28368 0.535235C7.36019 0.570971 7.4224 0.631483 7.46024 0.706975L11.2102 8.20697C11.2389 8.2642 11.2524 8.32781 11.2495 8.39175C11.2466 8.45568 11.2274 8.51781 11.1937 8.57222ZM7.49999 2.46348V7.99997H10.2682L7.49999 2.46348ZM1.12499 8.74997C1.06104 8.74997 0.998154 8.73362 0.942308 8.70246C0.886462 8.67131 0.839511 8.62639 0.805916 8.57198C0.772321 8.51756 0.7532 8.45546 0.750368 8.39158C0.747536 8.32769 0.761089 8.26415 0.789737 8.20697L4.53974 0.706975C4.57757 0.631483 4.63978 0.570971 4.71629 0.535235C4.7928 0.499499 4.87913 0.490633 4.96131 0.51007C5.04348 0.529508 5.11669 0.576112 5.16909 0.642337C5.22148 0.708562 5.24998 0.790532 5.24999 0.874975V8.37497C5.24999 8.47443 5.21048 8.56981 5.14015 8.64014C5.06983 8.71047 4.97444 8.74997 4.87499 8.74997H1.12499Z" fill="#106DB6"/>
</svg>