<svg width="17" height="16" viewBox="0 0 17 16" fill="none" xmlns="http://www.w3.org/2000/svg">
<path d="M16.4599 13.7101C16.3896 13.3722 16.0587 13.1552 15.7206 13.2256C15.3827 13.2959 15.1658 13.6269 15.2362 13.9648C15.2767 14.1595 15.2284 14.359 15.1038 14.5123C15.0316 14.6011 14.8706 14.75 14.6038 14.75H2.39713C2.13032 14.75 1.96935 14.6011 1.89716 14.5123C1.77251 14.359 1.72426 14.1595 1.76479 13.9648C2.41341 10.8494 5.16138 8.57356 8.33479 8.49681C8.38976 8.49894 8.44498 8.5 8.50048 8.5C8.55616 8.5 8.6116 8.49891 8.66679 8.49678C10.9022 8.55041 12.9683 9.68262 14.2195 11.5487C14.4117 11.8354 14.7999 11.9119 15.0867 11.7197C15.3734 11.5275 15.45 11.1393 15.2577 10.8526C14.2322 9.32306 12.743 8.21088 11.0451 7.65203C12.0798 6.87613 12.7505 5.63991 12.7505 4.25C12.7505 1.90656 10.8439 0 8.50048 0C6.15701 0 4.25048 1.90656 4.25048 4.25C4.25048 5.64075 4.92198 6.87762 5.95776 7.65347C5.00876 7.96591 4.11829 8.45206 3.33891 9.09313C1.90979 10.2687 0.916133 11.9083 0.541039 13.7101C0.423476 14.2747 0.56432 14.8545 0.927383 15.301C1.28866 15.7452 1.82438 16 2.39713 16H14.6038C15.1766 16 15.7123 15.7452 16.0735 15.301C16.4367 14.8545 16.5775 14.2747 16.4599 13.7101ZM5.50048 4.25C5.50048 2.59578 6.84626 1.25 8.50048 1.25C10.1547 1.25 11.5005 2.59578 11.5005 4.25C11.5005 5.85328 10.2363 7.16684 8.65232 7.24619C8.60179 7.24525 8.55116 7.24478 8.50048 7.24478C8.45004 7.24478 8.3996 7.24528 8.34923 7.24622C6.76501 7.16719 5.50048 5.8535 5.50048 4.25Z" fill="#106DB6"/>
</svg>
