<svg width="20" height="20" viewBox="0 0 20 20" fill="none" xmlns="http://www.w3.org/2000/svg">
<path d="M2.74459 16.9084H17.2373C18.4123 16.9071 19.3647 15.9549 19.366 14.7798V4.94552C19.3647 3.77053 18.4123 2.81817 17.2373 2.81689H2.74459C1.5696 2.81817 0.617241 3.77053 0.615967 4.94552V14.7798C0.617241 15.9549 1.5696 16.9071 2.74459 16.9084ZM2.74459 16.2743C2.41751 16.2748 2.09935 16.1672 1.83964 15.9682L6.17388 11.535C6.25427 11.4542 6.28498 11.3365 6.25455 11.2268C6.22412 11.117 6.13722 11.032 6.02683 11.0042C5.9163 10.9761 5.79939 11.0095 5.72042 11.0919L1.42666 15.4838C1.3106 15.2674 1.24988 15.0255 1.25002 14.7798V5.6444L8.61798 11.8832C9.41126 12.5585 10.5775 12.5582 11.3702 11.8819L18.7319 5.63831V14.7798C18.7322 15.0265 18.671 15.2691 18.5541 15.486L14.2346 11.0911C14.1116 10.9674 13.9119 10.9661 13.7874 11.0882C13.663 11.2108 13.6607 11.4105 13.7824 11.5355L18.1405 15.9696C17.881 16.1676 17.5637 16.2748 17.2373 16.2743H2.74459ZM2.74459 3.45095H17.2373C18.0107 3.45208 18.6558 4.04198 18.7257 4.81234L10.9602 11.3985C10.4035 11.8732 9.58463 11.8734 9.02771 11.3992L1.25597 4.81842C1.32249 4.04566 1.96886 3.45208 2.74459 3.45095Z" fill="#106DB6"/>
</svg>
