<svg width="14" height="16" viewBox="0 0 12 14" fill="none" xmlns="http://www.w3.org/2000/svg">
<path d="M10.36 1.78009L6.69337 0.406758C6.31337 0.266758 5.69337 0.266758 5.31337 0.406758L1.6467 1.78009C0.940032 2.04676 0.366699 2.87342 0.366699 3.62676V9.02676C0.366699 9.56676 0.720033 10.2801 1.15337 10.6001L4.82003 13.3401C5.4667 13.8268 6.5267 13.8268 7.17337 13.3401L10.84 10.6001C11.2734 10.2734 11.6267 9.56676 11.6267 9.02676V3.62676C11.6334 2.87342 11.06 2.04676 10.36 1.78009ZM6.50003 7.58009V9.33342C6.50003 9.60676 6.27337 9.83342 6.00003 9.83342C5.7267 9.83342 5.50003 9.60676 5.50003 9.33342V7.58009C4.8267 7.36676 4.33337 6.74009 4.33337 6.00009C4.33337 5.08009 5.08003 4.33342 6.00003 4.33342C6.92003 4.33342 7.6667 5.08009 7.6667 6.00009C7.6667 6.74676 7.17337 7.36676 6.50003 7.58009Z" fill="#2072B2"/>
</svg>