<svg width="16" height="16" viewBox="0 0 16 16" fill="none" xmlns="http://www.w3.org/2000/svg">
<g id="vuesax/bold/logout">
<g id="logout">
<path id="Vector" d="M5.25349 8.04671C5.25349 7.77337 5.48016 7.54671 5.75349 7.54671H9.40682V1.90671C9.40016 1.58671 9.14682 1.33337 8.82682 1.33337C4.90016 1.33337 2.16016 4.07337 2.16016 8.00004C2.16016 11.9267 4.90016 14.6667 8.82682 14.6667C9.14016 14.6667 9.40016 14.4134 9.40016 14.0934V8.54004H5.75349C5.47349 8.54671 5.25349 8.32004 5.25349 8.04671Z" fill="#E05050"/>
<path id="Vector_2" d="M13.6932 7.69332L11.7999 5.79332C11.6066 5.59998 11.2866 5.59998 11.0932 5.79332C10.8999 5.98665 10.8999 6.30665 11.0932 6.49998L12.1332 7.53998H9.3999V8.53998H12.1266L11.0866 9.57998C10.8932 9.77332 10.8932 10.0933 11.0866 10.2866C11.1866 10.3866 11.3132 10.4333 11.4399 10.4333C11.5666 10.4333 11.6932 10.3866 11.7932 10.2866L13.6866 8.38665C13.8866 8.19998 13.8866 7.88665 13.6932 7.69332Z" fill="#E05050"/>
</g>
</g>
</svg>
