<svg width="16" height="16" viewBox="0 0 16 16" fill="none" xmlns="http://www.w3.org/2000/svg">
<g id="vuesax/bold/more-2">
<g id="more-2">
<path id="Vector" opacity="0.97" d="M10.7935 1.33337H5.20683C2.78016 1.33337 1.3335 2.78004 1.3335 5.20671V10.7867C1.3335 13.22 2.78016 14.6667 5.20683 14.6667H10.7868C13.2135 14.6667 14.6602 13.22 14.6602 10.7934V5.20671C14.6668 2.78004 13.2202 1.33337 10.7935 1.33337ZM5.54016 10.8734C5.06016 10.8734 4.66683 10.48 4.66683 10C4.66683 9.52004 5.06016 9.12671 5.54016 9.12671C6.02016 9.12671 6.4135 9.52004 6.4135 10C6.4135 10.48 6.02016 10.8734 5.54016 10.8734ZM8.00016 6.87337C7.52016 6.87337 7.12683 6.48004 7.12683 6.00004C7.12683 5.52004 7.52016 5.12671 8.00016 5.12671C8.48016 5.12671 8.8735 5.52004 8.8735 6.00004C8.8735 6.48004 8.48016 6.87337 8.00016 6.87337ZM10.4602 10.8734C9.98016 10.8734 9.58683 10.48 9.58683 10C9.58683 9.52004 9.98016 9.12671 10.4602 9.12671C10.9402 9.12671 11.3335 9.52004 11.3335 10C11.3335 10.48 10.9402 10.8734 10.4602 10.8734Z" fill="#286CF5"/>
</g>
</g>
</svg>
