<svg width="16" height="16" viewBox="0 0 16 16" fill="none" xmlns="http://www.w3.org/2000/svg">
<g clip-path="url(#clip0_552_666)">
<path d="M13.9382 1.35938H2.56263C1.64568 1.35938 0.900024 2.10478 0.900024 3.02281V13.4777C0.900024 14.3946 1.64568 15.1392 2.56263 15.1392H13.9382C14.8551 15.1392 15.6 14.3946 15.6 13.4777V3.02281C15.6 2.10478 14.8552 1.35938 13.9382 1.35938ZM10.4058 3.83322C11.2925 3.83322 12.0117 4.5524 12.0117 5.43909C12.0117 6.32577 11.2925 7.04495 10.4058 7.04495C9.51881 7.04495 8.79993 6.32577 8.79993 5.43909C8.79993 4.5524 9.51881 3.83322 10.4058 3.83322ZM13.4168 13.6024H8.24988H3.31315C2.86964 13.6024 2.67211 13.2815 2.87205 12.8856L5.62801 7.42691C5.8277 7.03108 6.20827 6.99575 6.47779 7.34793L9.249 10.9695C9.51852 11.3217 9.98959 11.3517 10.3014 11.0361L10.9793 10.3496C11.2909 10.034 11.7499 10.0731 12.0041 10.4363L13.7596 12.9439C14.0134 13.3076 13.8603 13.6024 13.4168 13.6024Z" fill="white"/>
</g>
<defs>
<clipPath id="clip0_552_666">
<rect width="14.7" height="14.7" fill="white" transform="translate(0.900024 0.899902)"/>
</clipPath>
</defs>
</svg>
