<svg width="15" height="18" viewBox="0 0 15 18" fill="none" xmlns="http://www.w3.org/2000/svg">
<path d="M1.17898 0.0736198C0.909447 0.113476 0.744729 0.189867 0.531345 0.369219C0.314217 0.551893 0.164474 0.784388 0.0633968 1.10988C0.00349944 1.30584 -0.000244141 1.78079 -0.000244141 8.52643C-0.000244141 15.2721 0.00349944 15.747 0.0633968 15.943C0.250576 16.5408 0.587498 16.8796 1.1116 16.9992C1.50093 17.0888 1.98011 17.0091 2.43683 16.78C2.67267 16.6637 13.2932 10.1805 13.5253 10.0144C14.0906 9.60587 14.3901 9.12427 14.4013 8.61279C14.4051 8.28397 14.3639 8.12455 14.1992 7.81234C13.9184 7.29421 14.0719 7.39385 8.04846 3.72377C5.06482 1.90368 2.52667 0.369219 2.41437 0.312756C2.01006 0.113476 1.52714 0.0204792 1.17898 0.0736198Z" fill="#106DB6"/>
</svg>
