<svg width="15" height="18" viewBox="0 0 15 18" fill="none" xmlns="http://www.w3.org/2000/svg">
<path d="M1.17923 0.0736198C0.909691 0.113476 0.744973 0.189867 0.531589 0.369219C0.314461 0.551893 0.164718 0.784388 0.0636409 1.10988C0.00374358 1.30584 0 1.78079 0 8.52643C0 15.2721 0.00374358 15.747 0.0636409 15.943C0.25082 16.5408 0.587743 16.8796 1.11184 16.9992C1.50118 17.0888 1.98036 17.0091 2.43707 16.78C2.67292 16.6637 13.2935 10.1805 13.5256 10.0144C14.0908 9.60587 14.3903 9.12427 14.4016 8.61279C14.4053 8.28397 14.3641 8.12455 14.1994 7.81234C13.9186 7.29421 14.0721 7.39385 8.0487 3.72377C5.06507 1.90368 2.52692 0.369219 2.41461 0.312756C2.0103 0.113476 1.52738 0.0204792 1.17923 0.0736198Z" fill="#9F9F9F"/>
</svg>
