<svg width="17" height="17" viewBox="0 0 17 17" fill="none" xmlns="http://www.w3.org/2000/svg">
  <path d="M14.5 4.2998H2.5C2.22667 4.2998 2 4.07314 2 3.7998C2 3.52647 2.22667 3.2998 2.5 3.2998H14.5C14.7733 3.2998 15 3.52647 15 3.7998C15 4.07314 14.7733 4.2998 14.5 4.2998Z" fill="#286CF5"/>
  <path d="M8.81333 7.6333H2.5C2.22667 7.6333 2 7.40663 2 7.1333C2 6.85997 2.22667 6.6333 2.5 6.6333H8.81333C9.08667 6.6333 9.31333 6.85997 9.31333 7.1333C9.31333 7.40663 9.09333 7.6333 8.81333 7.6333Z" fill="#286CF5"/>
  <path d="M14.5 10.9663H2.5C2.22667 10.9663 2 10.7396 2 10.4663C2 10.193 2.22667 9.96631 2.5 9.96631H14.5C14.7733 9.96631 15 10.193 15 10.4663C15 10.7396 14.7733 10.9663 14.5 10.9663Z" fill="#286CF5"/>
  <path d="M8.81333 14.2998H2.5C2.22667 14.2998 2 14.0731 2 13.7998C2 13.5265 2.22667 13.2998 2.5 13.2998H8.81333C9.08667 13.2998 9.31333 13.5265 9.31333 13.7998C9.31333 14.0731 9.09333 14.2998 8.81333 14.2998Z" fill="#286CF5"/>
</svg>
