<svg width="20" height="20" viewBox="0 0 20 20" fill="none" xmlns="http://www.w3.org/2000/svg">
  <path d="M9.99994 14.4579C10.7501 14.4579 11.3583 13.8497 11.3583 13.0995C11.3583 12.3494 10.7501 11.7412 9.99994 11.7412C9.24975 11.7412 8.6416 12.3494 8.6416 13.0995C8.6416 13.8497 9.24975 14.4579 9.99994 14.4579Z" fill="#0041C4"/>
  <path d="M15.2337 7.94199V6.90033C15.2337 4.65033 14.692 1.66699 10.0003 1.66699C5.30866 1.66699 4.76699 4.65033 4.76699 6.90033V7.94199C2.43366 8.23366 1.66699 9.41699 1.66699 12.3253V13.8753C1.66699 17.292 2.70866 18.3337 6.12533 18.3337H13.8753C17.292 18.3337 18.3337 17.292 18.3337 13.8753V12.3253C18.3337 9.41699 17.567 8.23366 15.2337 7.94199ZM10.0003 15.617C8.60866 15.617 7.48366 14.4837 7.48366 13.1003C7.48366 11.7087 8.61699 10.5837 10.0003 10.5837C11.3837 10.5837 12.517 11.717 12.517 13.1003C12.517 14.492 11.392 15.617 10.0003 15.617ZM6.12533 7.86699C6.05866 7.86699 6.00033 7.86699 5.93366 7.86699V6.90033C5.93366 4.45866 6.62533 2.83366 10.0003 2.83366C13.3753 2.83366 14.067 4.45866 14.067 6.90033V7.87533C14.0003 7.87533 13.942 7.87533 13.8753 7.87533H6.12533V7.86699Z" fill="#0041C4"/>
</svg>
