<svg width="17" height="16" viewBox="0 0 17 16" fill="none" xmlns="http://www.w3.org/2000/svg">
<path d="M12.1218 8.79996C11.9951 8.79996 11.8618 8.74663 11.7685 8.65329L8.16848 5.04663C8.00181 4.87996 7.97515 4.62663 8.10181 4.42663L9.22848 2.64663C9.54181 2.15329 10.0151 1.84663 10.5685 1.78663C11.1885 1.72663 11.8285 1.96663 12.3285 2.46663L14.3485 4.48663C14.8285 4.96663 15.0685 5.61329 14.9951 6.25329C14.9351 6.81329 14.6351 7.29996 14.1685 7.5933L12.3885 8.71996C12.3085 8.77329 12.2151 8.79996 12.1218 8.79996ZM9.15515 4.62663L12.1951 7.66663L13.6418 6.75329C13.8485 6.61996 13.9818 6.40663 14.0085 6.14663C14.0485 5.81329 13.9085 5.45996 13.6485 5.19996L11.6285 3.17996C11.3418 2.89329 10.9951 2.73996 10.6818 2.78663C10.4285 2.81329 10.2218 2.95329 10.0751 3.18663L9.15515 4.62663Z" fill="#8B8B8B"/>
<path d="M4.72849 14.2266C4.13515 14.2266 3.60182 14.0133 3.20182 13.6199C2.73515 13.1533 2.52849 12.5066 2.61515 11.7866L3.26849 6.23327C3.46849 4.55327 4.20849 3.93994 5.93515 4.03994L8.54849 4.19327C8.82182 4.21327 9.03515 4.4466 9.01515 4.71994C8.99515 4.99327 8.76182 5.2066 8.48849 5.1866L5.87515 5.03994C4.68849 4.9666 4.39515 5.19994 4.26182 6.35327L3.60849 11.8999C3.56182 12.3066 3.66849 12.6666 3.90849 12.9066C4.15515 13.1466 4.51515 13.2599 4.92182 13.2066L10.4685 12.5533C11.6352 12.4133 11.8952 12.1066 11.7818 10.9599L11.6218 8.3266C11.6085 8.05327 11.8152 7.81327 12.0885 7.79994C12.3618 7.77994 12.6018 7.99327 12.6152 8.2666L12.7685 10.8799C12.9285 12.5399 12.2752 13.3399 10.5752 13.5466L5.02849 14.1999C4.93515 14.2199 4.82849 14.2266 4.72849 14.2266Z" fill="#8B8B8B"/>
<path d="M3.87515 13.4466C3.74848 13.4466 3.62182 13.4 3.52182 13.3C3.32848 13.1066 3.32848 12.7866 3.52182 12.5933L5.54848 10.5666C5.74182 10.3733 6.06182 10.3733 6.25515 10.5666C6.44848 10.76 6.44848 11.08 6.25515 11.2733L4.22848 13.3C4.12848 13.4 4.00182 13.4466 3.87515 13.4466Z" fill="#8B8B8B"/>
</svg>
