<svg width="20" height="20" viewBox="0 0 20 20" fill="none" xmlns="http://www.w3.org/2000/svg">
<g id="vuesax/bold/document-text">
<g id="document-text">
<path id="Vector" d="M13.1666 1.8417C12.8249 1.50003 12.2333 1.73337 12.2333 2.20837V5.1167C12.2333 6.33337 13.2666 7.3417 14.5249 7.3417C15.3166 7.35003 16.4166 7.35003 17.3583 7.35003C17.8333 7.35003 18.0833 6.7917 17.7499 6.45837C16.5499 5.25003 14.3999 3.07503 13.1666 1.8417Z" fill="#0041C4"/>
<path id="Vector_2" d="M17.0834 8.49163H14.675C12.7 8.49163 11.0917 6.88329 11.0917 4.90829V2.49996C11.0917 2.04163 10.7167 1.66663 10.2584 1.66663H6.72504C4.15837 1.66663 2.08337 3.33329 2.08337 6.30829V13.6916C2.08337 16.6666 4.15837 18.3333 6.72504 18.3333H13.275C15.8417 18.3333 17.9167 16.6666 17.9167 13.6916V9.32496C17.9167 8.86663 17.5417 8.49163 17.0834 8.49163ZM9.58337 14.7916H6.25004C5.90837 14.7916 5.62504 14.5083 5.62504 14.1666C5.62504 13.825 5.90837 13.5416 6.25004 13.5416H9.58337C9.92504 13.5416 10.2084 13.825 10.2084 14.1666C10.2084 14.5083 9.92504 14.7916 9.58337 14.7916ZM11.25 11.4583H6.25004C5.90837 11.4583 5.62504 11.175 5.62504 10.8333C5.62504 10.4916 5.90837 10.2083 6.25004 10.2083H11.25C11.5917 10.2083 11.875 10.4916 11.875 10.8333C11.875 11.175 11.5917 11.4583 11.25 11.4583Z" fill="#0041C4"/>
</g>
</g>
</svg>
