<svg width="20" height="20" viewBox="0 0 20 20" fill="none" xmlns="http://www.w3.org/2000/svg">
<g id="vuesax/bold/profile-2user">
<g id="profile-2user">
<path id="Vector" d="M7.49996 1.66663C5.31663 1.66663 3.54163 3.44163 3.54163 5.62496C3.54163 7.76663 5.21663 9.49996 7.39996 9.57496C7.46663 9.56663 7.53329 9.56663 7.58329 9.57496C7.59996 9.57496 7.60829 9.57496 7.62496 9.57496C7.63329 9.57496 7.63329 9.57496 7.64163 9.57496C9.77496 9.49996 11.45 7.76663 11.4583 5.62496C11.4583 3.44163 9.68329 1.66663 7.49996 1.66663Z" fill="#0041C4"/>
<path id="Vector_2" d="M11.7333 11.7917C9.4083 10.2417 5.61663 10.2417 3.27497 11.7917C2.21663 12.5 1.6333 13.4583 1.6333 14.4833C1.6333 15.5083 2.21663 16.4583 3.26663 17.1583C4.4333 17.9417 5.96663 18.3333 7.49997 18.3333C9.0333 18.3333 10.5666 17.9417 11.7333 17.1583C12.7833 16.45 13.3666 15.5 13.3666 14.4667C13.3583 13.4417 12.7833 12.4917 11.7333 11.7917Z" fill="#0041C4"/>
<path id="Vector_3" d="M16.6583 6.11671C16.7916 7.73338 15.6416 9.15004 14.05 9.34171C14.0416 9.34171 14.0416 9.34171 14.0333 9.34171H14.0083C13.9583 9.34171 13.9083 9.34171 13.8666 9.35838C13.0583 9.40004 12.3166 9.14171 11.7583 8.66671C12.6166 7.90004 13.1083 6.75004 13.0083 5.50004C12.95 4.82504 12.7166 4.20838 12.3666 3.68338C12.6833 3.52504 13.05 3.42504 13.425 3.39171C15.0583 3.25004 16.5166 4.46671 16.6583 6.11671Z" fill="#0041C4"/>
<path id="Vector_4" d="M18.325 13.825C18.2583 14.6334 17.7417 15.3334 16.875 15.8084C16.0417 16.2667 14.9917 16.4834 13.95 16.4584C14.55 15.9167 14.9 15.2417 14.9667 14.525C15.05 13.4917 14.5583 12.5 13.575 11.7084C13.0167 11.2667 12.3667 10.9167 11.6583 10.6584C13.5 10.125 15.8167 10.4834 17.2417 11.6334C18.0083 12.25 18.4 13.025 18.325 13.825Z" fill="#0041C4"/>
</g>
</g>
</svg>
