<svg width="16" height="16" viewBox="0 0 16 16" fill="none" xmlns="http://www.w3.org/2000/svg">
<path d="M3.83325 10.7399V5.25992C4.69325 5.03992 5.33325 4.26659 5.33325 3.33325C5.33325 2.22659 4.43992 1.33325 3.33325 1.33325C2.22659 1.33325 1.33325 2.22659 1.33325 3.33325C1.33325 4.26659 1.97325 5.03992 2.83325 5.25992V10.7333C1.97325 10.9599 1.33325 11.7333 1.33325 12.6666C1.33325 13.7733 2.22659 14.6666 3.33325 14.6666C4.43992 14.6666 5.33325 13.7733 5.33325 12.6666C5.33325 11.7333 4.69325 10.9599 3.83325 10.7399Z" fill="#286CF5"/>
<path d="M13.1667 10.7401V4.33345C13.1667 3.32012 12.3467 2.50012 11.3333 2.50012H9.38L10.32 1.72012C10.5333 1.54012 10.56 1.22678 10.3867 1.01345C10.2067 0.800117 9.89333 0.77345 9.68 0.946784L7.68 2.61345C7.56667 2.70678 7.5 2.84678 7.5 3.00012C7.5 3.15345 7.56667 3.28678 7.68 3.38678L9.68 5.05345C9.77333 5.13345 9.88667 5.16678 10 5.16678C10.14 5.16678 10.2867 5.10678 10.3867 4.98678C10.5667 4.77345 10.5333 4.46012 10.32 4.28012L9.38 3.50012H11.3333C11.7933 3.50012 12.1667 3.87345 12.1667 4.33345V10.7401C11.3067 10.9601 10.6667 11.7335 10.6667 12.6668C10.6667 13.7735 11.56 14.6668 12.6667 14.6668C13.7733 14.6668 14.6667 13.7735 14.6667 12.6668C14.6667 11.7335 14.0267 10.9601 13.1667 10.7401Z" fill="#286CF5"/>
</svg>
