<svg width="16" height="16" viewBox="0 0 16 16" fill="none" xmlns="http://www.w3.org/2000/svg">
<g id="vuesax/bold/refresh-right-square">
<g id="refresh-right-square">
<path id="Vector" d="M10.7935 1.33337H5.20683C2.78016 1.33337 1.3335 2.78004 1.3335 5.20671V10.7867C1.3335 13.22 2.78016 14.6667 5.20683 14.6667H10.7868C13.2135 14.6667 14.6602 13.22 14.6602 10.7934V5.20671C14.6668 2.78004 13.2202 1.33337 10.7935 1.33337ZM8.00016 12.0067C5.88683 12.0067 4.16683 10.2867 4.16683 8.17337C4.16683 6.06004 5.88683 4.34004 8.00016 4.34004C8.0935 4.34004 8.1935 4.35337 8.28683 4.36004L8.10016 4.14671C7.92016 3.94004 7.94016 3.62004 8.14683 3.44004C8.3535 3.26004 8.6735 3.28004 8.8535 3.48671L9.96683 4.76004C9.9735 4.76671 9.9735 4.77337 9.98016 4.78004C9.98683 4.78671 9.9935 4.78671 9.9935 4.79337C10.0068 4.81337 10.0135 4.84004 10.0268 4.86671C10.0402 4.90004 10.0602 4.92671 10.0668 4.96004C10.0735 4.99337 10.0735 5.02004 10.0802 5.05337C10.0802 5.08671 10.0868 5.11337 10.0868 5.14671C10.0868 5.18004 10.0735 5.20671 10.0602 5.24004C10.0468 5.27337 10.0402 5.30671 10.0268 5.33337C10.0135 5.36004 9.98683 5.38671 9.96683 5.41337C9.94683 5.43337 9.94016 5.46004 9.92016 5.47337C9.9135 5.48004 9.90683 5.48004 9.90016 5.48671C9.8935 5.49337 9.8935 5.50004 9.88683 5.50004L8.5935 6.44671C8.50683 6.51337 8.40016 6.54004 8.30016 6.54004C8.14683 6.54004 7.9935 6.46671 7.8935 6.33337C7.7335 6.11337 7.78016 5.80004 8.00016 5.63337L8.3735 5.36004C8.24683 5.35337 8.12683 5.34004 8.00016 5.34004C6.44016 5.34004 5.16683 6.61337 5.16683 8.17337C5.16683 9.73337 6.44016 11.0067 8.00016 11.0067C9.56016 11.0067 10.8335 9.73337 10.8335 8.17337C10.8335 7.60671 10.6668 7.06671 10.3602 6.60004C10.2068 6.37337 10.2668 6.06004 10.5002 5.90671C10.7268 5.75337 11.0402 5.81337 11.1935 6.04671C11.6135 6.68004 11.8402 7.41337 11.8402 8.17337C11.8335 10.2934 10.1135 12.0067 8.00016 12.0067Z" fill="#286CF5"/>
</g>
</g>
</svg>
