<svg width="12" height="9" viewBox="0 0 12 9" fill="none" xmlns="http://www.w3.org/2000/svg">
<path d="M0.806139 8.57222C0.839735 8.62654 0.886648 8.67138 0.942431 8.70249C0.998215 8.7336 1.06102 8.74994 1.12489 8.74997H4.87489C4.97435 8.74997 5.06973 8.71047 5.14006 8.64014C5.21038 8.56981 5.24989 8.47443 5.24989 8.37497V0.874975C5.24988 0.790532 5.22138 0.708562 5.16899 0.642337C5.11659 0.576112 5.04339 0.529508 4.96121 0.51007C4.87903 0.490633 4.7927 0.499499 4.71619 0.535235C4.63968 0.570971 4.57748 0.631483 4.53964 0.706975L0.789639 8.20697C0.760994 8.2642 0.747471 8.32781 0.75036 8.39175C0.753247 8.45568 0.772449 8.51781 0.806139 8.57222ZM4.49989 2.46348V7.99997H1.73164L4.49989 2.46348ZM10.8749 8.74997C10.9388 8.74997 11.0017 8.73362 11.0576 8.70246C11.1134 8.67131 11.1604 8.62639 11.194 8.57198C11.2276 8.51756 11.2467 8.45546 11.2495 8.39158C11.2523 8.32769 11.2388 8.26415 11.2101 8.20697L7.46014 0.706975C7.4223 0.631483 7.3601 0.570971 7.28359 0.535235C7.20708 0.499499 7.12075 0.490633 7.03857 0.51007C6.95639 0.529508 6.88318 0.576112 6.83079 0.642337C6.7784 0.708562 6.7499 0.790532 6.74989 0.874975V8.37497C6.74989 8.47443 6.7894 8.56981 6.85972 8.64014C6.93005 8.71047 7.02543 8.74997 7.12489 8.74997H10.8749Z" fill="#106DB6"/>
</svg>
