<svg width="20" height="20" viewBox="0 0 20 20" fill="none" xmlns="http://www.w3.org/2000/svg">
<g id="vuesax/bold/setting-3">
<g id="setting-3">
<path id="Vector" d="M13.4916 1.66675H6.50829C3.47496 1.66675 1.66663 3.47508 1.66663 6.50841V13.4834C1.66663 16.5251 3.47496 18.3334 6.50829 18.3334H13.4833C16.5166 18.3334 18.325 16.5251 18.325 13.4917V6.50841C18.3333 3.47508 16.525 1.66675 13.4916 1.66675ZM6.39163 4.58341C6.39163 4.24175 6.67496 3.95841 7.01663 3.95841C7.35829 3.95841 7.64163 4.24175 7.64163 4.58341V7.83341C7.64163 8.17508 7.35829 8.45841 7.01663 8.45841C6.67496 8.45841 6.39163 8.17508 6.39163 7.83341V4.58341ZM7.99251 13.6666C7.7916 13.7625 7.64163 13.9533 7.64163 14.1759V15.4167C7.64163 15.7584 7.35829 16.0417 7.01663 16.0417C6.67496 16.0417 6.39163 15.7584 6.39163 15.4167V14.1759C6.39163 13.9533 6.24162 13.7625 6.0408 13.6665C5.27606 13.3007 4.74996 12.5263 4.74996 11.6251C4.74996 10.3751 5.76663 9.35008 7.01663 9.35008C8.26663 9.35008 9.29163 10.3667 9.29163 11.6251C9.29163 12.5264 8.75904 13.3009 7.99251 13.6666ZM13.6083 15.4167C13.6083 15.7584 13.325 16.0417 12.9833 16.0417C12.6416 16.0417 12.3583 15.7584 12.3583 15.4167V12.1667C12.3583 11.8251 12.6416 11.5417 12.9833 11.5417C13.325 11.5417 13.6083 11.8251 13.6083 12.1667V15.4167ZM12.9833 10.6417C11.7333 10.6417 10.7083 9.62508 10.7083 8.36675C10.7083 7.46541 11.2409 6.69088 12.0074 6.32521C12.2083 6.22937 12.3583 6.03855 12.3583 5.81596V4.58341C12.3583 4.24175 12.6416 3.95841 12.9833 3.95841C13.325 3.95841 13.6083 4.24175 13.6083 4.58341V5.82429C13.6083 6.04689 13.7583 6.23766 13.9591 6.33369C14.7239 6.69943 15.25 7.47387 15.25 8.37508C15.25 9.62508 14.2333 10.6417 12.9833 10.6417Z" fill="#0041C4"/>
</g>
</g>
</svg>
