<svg width="12" height="10" viewBox="0 0 12 10" fill="none" xmlns="http://www.w3.org/2000/svg">
<g id="Group">
<path id="Vector" d="M0.173883 8.89123C0.973883 3.64208 4.69548 2.81763 5.86714 2.68826V1.1982C5.86714 0.514084 6.65731 0.13237 7.19285 0.558198L11.2671 3.7886C11.4437 3.92874 11.5864 4.10697 11.6844 4.30997C11.7825 4.51297 11.8334 4.7355 11.8334 4.96094C11.8334 5.18638 11.7825 5.40891 11.6844 5.61191C11.5864 5.81491 11.4437 5.99314 11.2671 6.13328L7.19331 9.36574C6.65731 9.79111 5.8676 9.4094 5.8676 8.72574V7.49146C3.63011 7.65488 2.15057 8.58151 1.23971 9.4462C0.801997 9.86014 0.0829115 9.48734 0.173883 8.89123Z" fill="#286CF5"/>
</g>
</svg>
