<svg width="16" height="16" viewBox="0 0 16 16" fill="none" xmlns="http://www.w3.org/2000/svg">
<path d="M13.0199 3.68659L3.68659 13.0199C3.67325 13.0333 3.66659 13.0399 3.65325 13.0466C3.39992 12.8333 3.16659 12.5999 2.95325 12.3466C1.93992 11.1799 1.33325 9.65992 1.33325 7.99992C1.33325 4.31992 4.31992 1.33325 7.99992 1.33325C9.65992 1.33325 11.1799 1.93992 12.3466 2.95325C12.5999 3.16659 12.8333 3.39992 13.0466 3.65325C13.0399 3.66659 13.0333 3.67325 13.0199 3.68659Z" fill="#E05050"/>
<path d="M14.6666 7.99991C14.6666 11.6599 11.6599 14.6666 7.99991 14.6666C6.99991 14.6666 6.05324 14.4466 5.19991 14.0466C4.78657 13.8532 4.70657 13.2999 5.02657 12.9732L12.9732 5.02657C13.2932 4.70657 13.8532 4.78657 14.0466 5.19991C14.4466 6.04657 14.6666 6.99991 14.6666 7.99991Z" fill="#E05050"/>
<path d="M14.5133 1.48667C14.3133 1.28667 13.9867 1.28667 13.7867 1.48667L1.48667 13.7933C1.28667 13.9933 1.28667 14.32 1.48667 14.52C1.58667 14.6133 1.71334 14.6667 1.84667 14.6667C1.98 14.6667 2.10667 14.6133 2.20667 14.5133L14.5133 2.20667C14.72 2.00667 14.72 1.68667 14.5133 1.48667Z" fill="#E05050"/>
</svg>
