<svg width="16" height="16" viewBox="0 0 16 16" fill="none" xmlns="http://www.w3.org/2000/svg">
<path d="M3.3456 10.46V4C3.3456 3.86739 3.39828 3.74021 3.49205 3.64645C3.58582 3.55268 3.71299 3.5 3.8456 3.5C3.97821 3.5 4.10539 3.55268 4.19915 3.64645C4.29292 3.74021 4.3456 3.86739 4.3456 4V10.46L5.8256 8.98C5.87137 8.93088 5.92657 8.89147 5.98791 8.86415C6.04924 8.83682 6.11545 8.82212 6.18259 8.82094C6.24972 8.81975 6.31641 8.8321 6.37867 8.85725C6.44092 8.8824 6.49748 8.91983 6.54496 8.96731C6.59244 9.01479 6.62987 9.07134 6.65502 9.1336C6.68016 9.19586 6.69251 9.26255 6.69133 9.32968C6.69014 9.39682 6.67545 9.46303 6.64812 9.52436C6.62079 9.58569 6.58139 9.64089 6.53227 9.68667L4.19893 12.02C4.10518 12.1136 3.9781 12.1662 3.8456 12.1662C3.7131 12.1662 3.58602 12.1136 3.49227 12.02L1.15893 9.68667C1.10981 9.64089 1.07041 9.58569 1.04308 9.52436C1.01575 9.46303 1.00106 9.39682 0.999873 9.32968C0.998688 9.26255 1.01104 9.19586 1.03618 9.1336C1.06133 9.07134 1.09876 9.01479 1.14624 8.96731C1.19372 8.91983 1.25028 8.8824 1.31254 8.85725C1.37479 8.8321 1.44148 8.81975 1.50862 8.82094C1.57575 8.82212 1.64196 8.83682 1.70329 8.86415C1.76463 8.89147 1.81983 8.93088 1.8656 8.98L3.3456 10.46Z" fill="#0160AE"/>
<path d="M8 4.5H14" stroke="#0160AE" stroke-linecap="round"/>
<path d="M10 7.5L14 7.5" stroke="#0160AE" stroke-linecap="round"/>
<path d="M12 10.5H14" stroke="#0160AE" stroke-linecap="round"/>
</svg>
