<svg width="16" height="16" viewBox="0 0 16 16" fill="none" xmlns="http://www.w3.org/2000/svg">
<path d="M3.3456 5.20623V11.6662C3.3456 11.7988 3.39828 11.926 3.49205 12.0198C3.58582 12.1136 3.71299 12.1662 3.8456 12.1662C3.97821 12.1662 4.10539 12.1136 4.19915 12.0198C4.29292 11.926 4.3456 11.7988 4.3456 11.6662V5.20623L5.8256 6.68623C5.87137 6.73535 5.92657 6.77476 5.98791 6.80208C6.04924 6.82941 6.11545 6.84411 6.18259 6.84529C6.24972 6.84647 6.31641 6.83412 6.37867 6.80898C6.44092 6.78383 6.49748 6.7464 6.54496 6.69892C6.59244 6.65144 6.62987 6.59489 6.65502 6.53263C6.68016 6.47037 6.69251 6.40368 6.69133 6.33655C6.69014 6.26941 6.67545 6.2032 6.64812 6.14187C6.62079 6.08054 6.58139 6.02534 6.53227 5.97956L4.19893 3.64623C4.10518 3.5526 3.9781 3.5 3.8456 3.5C3.7131 3.5 3.58602 3.5526 3.49227 3.64623L1.15893 5.97956C1.10981 6.02534 1.07041 6.08054 1.04308 6.14187C1.01575 6.2032 1.00106 6.26941 0.999873 6.33655C0.998688 6.40368 1.01104 6.47037 1.03618 6.53263C1.06133 6.59489 1.09876 6.65144 1.14624 6.69892C1.19372 6.7464 1.25028 6.78383 1.31254 6.80898C1.37479 6.83412 1.44148 6.84647 1.50862 6.84529C1.57575 6.84411 1.64196 6.82941 1.70329 6.80208C1.76463 6.77476 1.81983 6.73535 1.8656 6.68623L3.3456 5.20623Z" fill="#0160AE"/>
<path d="M12 4.5L14 4.5" stroke="#0160AE" stroke-linecap="round"/>
<path d="M10 7.5L14 7.5" stroke="#0160AE" stroke-linecap="round"/>
<path d="M8 10.5H14" stroke="#0160AE" stroke-linecap="round"/>
</svg>
