<svg width="20" height="20" viewBox="0 0 20 20" fill="none" xmlns="http://www.w3.org/2000/svg">
<g id="vuesax/bold/status-up">
<g id="status-up">
<path id="Vector" d="M13.4916 1.66675H6.50829C3.47496 1.66675 1.66663 3.47508 1.66663 6.50841V13.4834C1.66663 16.5251 3.47496 18.3334 6.50829 18.3334H13.4833C16.5166 18.3334 18.325 16.5251 18.325 13.4917V6.50841C18.3333 3.47508 16.525 1.66675 13.4916 1.66675ZM6.35829 15.1251C6.35829 15.4667 6.07496 15.7501 5.73329 15.7501C5.39163 15.7501 5.10829 15.4667 5.10829 15.1251V13.4001C5.10829 13.0584 5.39163 12.7751 5.73329 12.7751C6.07496 12.7751 6.35829 13.0584 6.35829 13.4001V15.1251ZM10.625 15.1251C10.625 15.4667 10.3416 15.7501 9.99996 15.7501C9.65829 15.7501 9.37496 15.4667 9.37496 15.1251V11.6667C9.37496 11.3251 9.65829 11.0417 9.99996 11.0417C10.3416 11.0417 10.625 11.3251 10.625 11.6667V15.1251ZM14.8916 15.1251C14.8916 15.4667 14.6083 15.7501 14.2666 15.7501C13.925 15.7501 13.6416 15.4667 13.6416 15.1251V9.94175C13.6416 9.60008 13.925 9.31675 14.2666 9.31675C14.6083 9.31675 14.8916 9.60008 14.8916 9.94175V15.1251ZM14.8916 7.30842C14.8916 7.65008 14.6083 7.93342 14.2666 7.93342C13.925 7.93342 13.6416 7.65008 13.6416 7.30842V6.50008C11.5166 8.68341 8.85829 10.2251 5.88329 10.9667C5.83329 10.9834 5.78329 10.9834 5.73329 10.9834C5.44996 10.9834 5.19996 10.7917 5.12496 10.5084C5.04163 10.1751 5.24163 9.83342 5.58329 9.75008C8.39163 9.05008 10.8916 7.57508 12.875 5.49175H11.8333C11.4916 5.49175 11.2083 5.20842 11.2083 4.86675C11.2083 4.52508 11.4916 4.24175 11.8333 4.24175H14.275C14.3083 4.24175 14.3333 4.25841 14.3666 4.25841C14.4083 4.26675 14.45 4.26675 14.4916 4.28341C14.5333 4.30008 14.5666 4.32508 14.6083 4.35008C14.6333 4.36675 14.6583 4.37508 14.6833 4.39175C14.6916 4.40008 14.6916 4.40841 14.7 4.40841C14.7333 4.44175 14.7583 4.47508 14.7833 4.50841C14.8083 4.54175 14.8333 4.56675 14.8416 4.60008C14.8583 4.63341 14.8583 4.66675 14.8666 4.70842C14.875 4.75008 14.8916 4.79175 14.8916 4.84175C14.8916 4.85008 14.9 4.85841 14.9 4.86675V7.30842H14.8916Z" fill="#0041C4"/>
</g>
</g>
</svg>
