<svg width="48" height="47" viewBox="0 0 48 47" fill="none" xmlns="http://www.w3.org/2000/svg">
<path d="M44.9849 0.329082C44.5727 0.529278 43.9721 0.964996 43.5717 1.36539C42.8063 2.10728 39.6738 5.89921 39.7092 6.01697C39.7445 6.12296 33.3147 13.8599 32.7141 14.4251C32.4551 14.6842 28.8751 18.9472 24.7888 23.905C20.6907 28.8627 17.2521 33.0079 17.1461 33.1257C16.9577 33.3141 16.7221 33.0668 12.9538 28.6625C10.7516 26.0953 8.71435 23.7872 8.43172 23.5399C5.9234 21.326 1.93129 22.1385 0.435717 25.1886C0.0117761 26.0718 0 26.1071 0 27.4378C0.0117761 28.639 0.0471046 28.8627 0.30618 29.4398C0.471046 29.793 0.812554 30.3465 1.04808 30.6527C1.62511 31.4064 13.3424 45.0667 13.7899 45.4907C13.9783 45.6791 14.3433 45.9617 14.6142 46.1148C17.0048 47.5162 19.9723 46.9156 21.5386 44.7134C22.4218 43.4534 36.6827 21.22 36.6827 21.0905C36.6827 20.9138 44.0781 9.42028 44.3372 9.19653C44.6905 8.87858 47.0222 5.15731 47.4814 4.16811C47.9996 3.04938 48.1527 1.67157 47.8347 0.917892C47.4343 -0.0359764 46.2685 -0.2715 44.9849 0.329082Z" fill="#47A920"/>
</svg>
