<svg width="16" height="16" viewBox="0 0 16 16" fill="none" xmlns="http://www.w3.org/2000/svg">
<path d="M9.9266 2.29992H6.07326C5.80659 2.29992 5.59326 2.08659 5.59326 1.81992C5.59326 1.55325 5.80659 1.33325 6.07326 1.33325H9.9266C10.1933 1.33325 10.4066 1.54659 10.4066 1.81325C10.4066 2.07992 10.1933 2.29992 9.9266 2.29992Z" fill="#286CF5"/>
<path d="M13.3133 10H11.3533C10.5067 10 10 10.5067 10 11.3533V13.3133C10 14.16 10.5067 14.6667 11.3533 14.6667H13.3133C14.16 14.6667 14.6667 14.16 14.6667 13.3133V11.3533C14.6667 10.5067 14.16 10 13.3133 10ZM13.1267 12.9733L12.34 13.4267C12.18 13.52 12.02 13.5667 11.8733 13.5667C11.76 13.5667 11.66 13.54 11.5667 13.4867C11.3533 13.36 11.2333 13.1133 11.2333 12.7867V11.88C11.2333 11.5533 11.3533 11.3067 11.5667 11.18C11.78 11.0533 12.0533 11.08 12.34 11.24L13.1267 11.6933C13.4067 11.86 13.5667 12.0867 13.5667 12.3333C13.5667 12.58 13.4133 12.8067 13.1267 12.9733Z" fill="#286CF5"/>
<path d="M9.3333 13.3134V11.3534C9.3333 10.1468 10.1466 9.33343 11.3533 9.33343H13.3133C13.4666 9.33343 13.6133 9.34676 13.7533 9.37343C13.7666 9.21343 13.78 9.05343 13.78 8.88676C13.78 5.69343 11.1866 3.1001 7.99997 3.1001C4.8133 3.1001 2.21997 5.69343 2.21997 8.88676C2.21997 12.0734 4.8133 14.6668 7.99997 14.6668C8.56664 14.6668 9.10664 14.5734 9.62664 14.4268C9.43997 14.1134 9.3333 13.7401 9.3333 13.3134ZM8.49997 8.66676C8.49997 8.9401 8.2733 9.16676 7.99997 9.16676C7.72664 9.16676 7.49997 8.9401 7.49997 8.66676V5.33343C7.49997 5.0601 7.72664 4.83343 7.99997 4.83343C8.2733 4.83343 8.49997 5.0601 8.49997 5.33343V8.66676Z" fill="#286CF5"/>
</svg>
