<svg width="16" height="16" viewBox="0 0 16 16" fill="none" xmlns="http://www.w3.org/2000/svg">
<g id="vuesax/bold/trash">
<g id="trash">
<path id="Vector" d="M14.0467 3.48659C12.9733 3.37992 11.9 3.29992 10.82 3.23992V3.23325L10.6733 2.36659C10.5733 1.75325 10.4267 0.833252 8.86667 0.833252H7.12C5.56667 0.833252 5.42 1.71325 5.31334 2.35992L5.17334 3.21325C4.55334 3.25325 3.93334 3.29325 3.31334 3.35325L1.95334 3.48659C1.67334 3.51325 1.47334 3.75992 1.5 4.03325C1.52667 4.30659 1.76667 4.50659 2.04667 4.47992L3.40667 4.34659C6.9 3.99992 10.42 4.13325 13.9533 4.48659C13.9733 4.48659 13.9867 4.48659 14.0067 4.48659C14.26 4.48659 14.48 4.29325 14.5067 4.03325C14.5267 3.75992 14.3267 3.51325 14.0467 3.48659Z" fill="#E05050"/>
<path id="Vector_2" d="M12.82 5.42675C12.66 5.26008 12.44 5.16675 12.2133 5.16675H3.78664C3.55998 5.16675 3.33331 5.26008 3.17998 5.42675C3.02664 5.59341 2.93998 5.82008 2.95331 6.05341L3.36664 12.8934C3.43998 13.9067 3.53331 15.1734 5.85998 15.1734H10.14C12.4666 15.1734 12.56 13.9134 12.6333 12.8934L13.0466 6.06008C13.06 5.82008 12.9733 5.59341 12.82 5.42675ZM9.10664 11.8334H6.88664C6.61331 11.8334 6.38664 11.6067 6.38664 11.3334C6.38664 11.0601 6.61331 10.8334 6.88664 10.8334H9.10664C9.37998 10.8334 9.60664 11.0601 9.60664 11.3334C9.60664 11.6067 9.37998 11.8334 9.10664 11.8334ZM9.66664 9.16675H6.33331C6.05998 9.16675 5.83331 8.94008 5.83331 8.66675C5.83331 8.39341 6.05998 8.16675 6.33331 8.16675H9.66664C9.93998 8.16675 10.1666 8.39341 10.1666 8.66675C10.1666 8.94008 9.93998 9.16675 9.66664 9.16675Z" fill="#E05050"/>
</g>
</g>
</svg>
