<svg width="45" height="36" viewBox="0 0 45 36" fill="none" xmlns="http://www.w3.org/2000/svg">
<path d="M20.9324 0.0849495C18.442 0.375345 16.0837 1.20253 14.0861 2.50491C11.147 4.42328 8.94701 7.25683 7.82943 10.6008C7.48623 11.6392 7.11664 13.3639 7.11664 13.9447C7.11664 14.2967 7.01984 14.3759 6.42145 14.4991C4.74948 14.8511 2.82231 16.1271 1.70473 17.6143C0.525549 19.1718 -0.10804 21.275 0.0151575 23.1934C0.261553 26.8981 2.73431 29.89 6.39505 30.8932C7.02864 31.0692 7.31903 31.0868 11.279 31.1132L15.4765 31.1484V29.7405V28.3325L11.455 28.3061L7.42463 28.2797L6.72944 28.0333C5.62946 27.6461 4.83748 27.1005 4.11589 26.2381C3.6935 25.7365 3.13031 24.5925 2.98071 23.9413C2.83991 23.3342 2.83991 22.0406 2.98071 21.4422C3.5351 19.1014 5.55026 17.3327 7.92622 17.1039C8.88541 17.0159 9.04381 16.9719 9.3166 16.7343C9.74779 16.3735 9.83579 16.1095 9.92379 14.8775C10.0734 12.9151 10.4606 11.5072 11.279 9.90558C12.9597 6.58804 15.9869 4.19448 19.5684 3.3497C24.7955 2.10892 30.1634 4.22088 33.0938 8.65601C33.9562 9.95838 34.4578 11.1112 34.9242 12.8799C35.197 13.9095 35.4434 14.1559 36.4729 14.3671C37.9249 14.6751 38.9985 15.2383 40.0545 16.2591C44.164 20.2278 42.0433 27.1797 36.4201 28.2005C35.945 28.2797 34.8802 28.3149 32.6626 28.3237H29.5563V29.7405V31.1572L33.0586 31.1132C35.9714 31.0868 36.6665 31.0516 37.2121 30.9284C40.1337 30.2508 42.5712 28.4029 43.8824 25.8597C44.7096 24.2669 45 23.0614 45 21.2398C44.9912 20.5622 44.9472 19.7702 44.8768 19.4798C44.4456 17.4207 43.548 15.7399 42.14 14.3319C41.0137 13.2055 39.7377 12.4223 38.2153 11.9207L37.5025 11.6832L37.3529 11.1288C37.2649 10.8208 37.0361 10.1608 36.8337 9.65919C35.1266 5.41766 31.5802 2.13532 27.1803 0.736139C25.1827 0.0937501 22.9124 -0.143847 20.9324 0.0849495Z" fill="#106DB6"/>
<path d="M21.9884 17.2009C21.7948 17.2801 20.5716 18.4417 18.8029 20.2104L15.9165 23.088L16.9021 24.0736L17.8965 25.0679L19.498 23.4664L21.1084 21.856V28.6143V35.3638H22.5164H23.9244V28.6143V21.856L25.5523 23.484L27.1803 25.1119L28.1659 24.1176L29.1603 23.132L26.2563 20.2192C24.6548 18.6089 23.2292 17.2537 23.0708 17.1833C22.71 17.0249 22.3756 17.0337 21.9884 17.2009Z" fill="#106DB6"/>
</svg>
