<svg width="16" height="16" viewBox="0 0 16 16" fill="none" xmlns="http://www.w3.org/2000/svg">
<g clip-path="url(#clip0_1962_11871)">
<path d="M15.9598 13.7101C15.8895 13.3722 15.5586 13.1552 15.2205 13.2256C14.8826 13.2959 14.6657 13.6269 14.7361 13.9648C14.7766 14.1595 14.7283 14.359 14.6037 14.5123C14.5315 14.6011 14.3705 14.75 14.1037 14.75H1.89703C1.63021 14.75 1.46924 14.6011 1.39706 14.5123C1.2724 14.359 1.22415 14.1595 1.26468 13.9648C1.91331 10.8494 4.66128 8.57356 7.83468 8.49681C7.88965 8.49894 7.94487 8.5 8.00037 8.5C8.05606 8.5 8.1115 8.49891 8.16668 8.49678C10.4021 8.55041 12.4682 9.68262 13.7194 11.5487C13.9116 11.8354 14.2998 11.9119 14.5866 11.7197C14.8733 11.5275 14.9499 11.1393 14.7576 10.8526C13.7321 9.32306 12.2429 8.21088 10.545 7.65203C11.5797 6.87613 12.2504 5.63991 12.2504 4.25C12.2504 1.90656 10.3438 0 8.00037 0C5.6569 0 3.75037 1.90656 3.75037 4.25C3.75037 5.64075 4.42187 6.87762 5.45765 7.65347C4.50865 7.96591 3.61818 8.45206 2.83881 9.09313C1.40968 10.2687 0.416026 11.9083 0.0409319 13.7101C-0.0766306 14.2747 0.0642132 14.8545 0.427276 15.301C0.788557 15.7452 1.32428 16 1.89703 16H14.1037C14.6765 16 15.2122 15.7452 15.5734 15.301C15.9366 14.8545 16.0774 14.2747 15.9598 13.7101ZM5.00037 4.25C5.00037 2.59578 6.34615 1.25 8.00037 1.25C9.65459 1.25 11.0004 2.59578 11.0004 4.25C11.0004 5.85328 9.73615 7.16684 8.15221 7.24619C8.10168 7.24525 8.05106 7.24478 8.00037 7.24478C7.94993 7.24478 7.8995 7.24528 7.84912 7.24622C6.2649 7.16719 5.00037 5.8535 5.00037 4.25Z" fill="#F0F0F0"/>
</g>
<defs>
<clipPath id="clip0_1962_11871">
<rect width="16" height="16" fill="white"/>
</clipPath>
</defs>
</svg>
