<svg width="11" height="10" viewBox="0 0 11 10" fill="none" xmlns="http://www.w3.org/2000/svg">
<path d="M9.4726 6.29917C8.93134 5.7921 8.2871 5.41672 7.5842 5.18948C8.33703 4.70371 8.83162 3.89074 8.83162 2.97146C8.83162 1.48734 7.54281 0.279907 5.95868 0.279907C4.37454 0.279907 3.08573 1.48734 3.08573 2.97146C3.08573 3.89074 3.58032 4.70371 4.33317 5.18948C3.63027 5.41672 2.98603 5.7921 2.44477 6.29917C1.50617 7.17852 0.989258 8.34766 0.989258 9.59123H1.76573C1.76573 7.4252 3.64667 5.66301 5.95868 5.66301C8.27068 5.66301 10.1516 7.4252 10.1516 9.59123H10.9281C10.9281 8.34766 10.4112 7.17852 9.4726 6.29917ZM5.95868 4.93557C4.80268 4.93557 3.8622 4.05448 3.8622 2.97146C3.8622 1.88844 4.80268 1.00735 5.95868 1.00735C7.11467 1.00735 8.05515 1.88844 8.05515 2.97146C8.05515 4.05448 7.11467 4.93557 5.95868 4.93557Z" fill="#666666"/>
</svg>
