<svg width="23" height="25" viewBox="0 0 23 25" fill="none" xmlns="http://www.w3.org/2000/svg">
<path d="M10.6895 1.00961C10.604 1.01862 10.3383 1.05014 10.1041 1.07265C8.61825 1.23475 6.97475 1.79309 5.64644 2.58557C3.95791 3.59419 2.58457 4.96752 1.57596 6.65605C0.78798 7.97085 0.265662 9.50178 0.0540329 11.1138C-0.018011 11.6676 -0.018011 13.3516 0.0540329 13.9055C0.423258 16.7107 1.65701 19.0836 3.74628 21.0243C4.89898 22.1005 6.33536 22.938 7.89781 23.4513C9.13156 23.861 10.1087 24.0096 11.5 24.0096C12.5266 24.0096 12.9814 23.9691 13.8865 23.7845C16.9888 23.1496 19.758 21.1594 21.424 18.3632C22.212 17.0484 22.7343 15.5174 22.946 13.9055C23.018 13.3516 23.018 11.6676 22.946 11.1138C22.7343 9.50178 22.212 7.97085 21.424 6.65605C20.4154 4.96752 19.0421 3.59419 17.3536 2.58557C16.0523 1.8066 14.4988 1.27528 12.9409 1.07265C12.5446 1.01862 10.9687 0.978094 10.6895 1.00961ZM12.4231 2.37845C15.0482 2.6216 17.5832 3.9409 19.2537 5.93561C21.4466 8.5517 22.1895 11.9558 21.289 15.2428C20.9422 16.508 20.3299 17.7193 19.4969 18.7774C19.3438 18.971 19.2132 19.1286 19.1997 19.1286C19.1862 19.1286 19.1141 18.935 19.0421 18.6964C18.6594 17.4176 17.7678 16.0443 16.7367 15.1392C16.0883 14.5719 15.2013 14.027 14.4043 13.7028L14.2242 13.6308L14.3818 13.5137C14.6654 13.3021 15.3543 12.5772 15.5209 12.316C16.1603 11.3209 16.4305 10.2447 16.3179 9.14607C16.1513 7.49806 15.1877 6.0797 13.7289 5.31874C10.694 3.74278 7.02878 5.72849 6.68207 9.14607C6.59201 10.0331 6.76312 10.9652 7.15936 11.7532C7.47905 12.388 8.01038 13.0454 8.53269 13.4417C8.65427 13.5317 8.75333 13.6218 8.75333 13.6353C8.75333 13.6488 8.60474 13.7163 8.42463 13.7884C7.20889 14.2792 5.99315 15.2338 5.14213 16.3595C4.65133 17.0124 4.18305 17.9309 3.95341 18.7009C3.88587 18.935 3.81382 19.1286 3.80031 19.1286C3.76429 19.1286 3.25098 18.4622 2.99432 18.0795C2.71065 17.6562 2.21085 16.6837 2.00822 16.1658C1.65701 15.2743 1.43637 14.2432 1.35983 13.1265C1.12569 9.89802 2.58007 6.62003 5.13763 4.58029C7.20439 2.93228 9.82498 2.1398 12.4231 2.37845ZM12.4456 6.2508C13.6028 6.5795 14.5078 7.48455 14.859 8.65977C15.0166 9.1956 15.0256 9.96106 14.8861 10.4879C14.4673 12.0503 13.1075 13.095 11.5 13.095C9.89252 13.095 8.53269 12.0503 8.11394 10.4879C7.97435 9.96106 7.98336 9.1956 8.14095 8.65977C8.5372 7.32696 9.56382 6.42191 11.0047 6.14274C11.2659 6.09321 12.1169 6.15625 12.4456 6.2508ZM12.4231 14.5854C13.8189 14.7655 15.0527 15.3869 16.1198 16.4495C16.9213 17.251 17.4256 18.0615 17.7498 19.0836C17.8669 19.4483 18.0515 20.3039 18.0155 20.3219C18.011 20.3264 17.8759 20.4299 17.7138 20.556C16.3269 21.6367 14.6564 22.3301 12.7833 22.6003C12.261 22.6768 10.739 22.6768 10.2167 22.6003C8.34358 22.3301 6.67306 21.6367 5.28622 20.556C5.12412 20.4299 4.98904 20.3264 4.98453 20.3219C4.97553 20.3174 5.00254 20.1463 5.03857 19.9436C5.44832 17.6157 7.11433 15.666 9.3657 14.8826C10.3608 14.5358 11.3064 14.4413 12.4231 14.5854Z" fill="#106DB6"/>
</svg>
