<svg width="18" height="18" viewBox="0 0 18 18" fill="none" xmlns="http://www.w3.org/2000/svg">
<path d="M0 5.65094V2.5C0 1.11929 1.11929 0 2.5 0H5.65094C7.03166 0 8.15094 1.11929 8.15094 2.5V5.65094C8.15094 7.03166 7.03165 8.15094 5.65094 8.15094H2.5C1.11929 8.15094 0 7.03165 0 5.65094Z" fill="#0041C4"/>
<path d="M0 15.5001V12.3491C0 10.9684 1.11929 9.84912 2.5 9.84912H5.65094C7.03166 9.84912 8.15094 10.9684 8.15094 12.3491V15.5001C8.15094 16.8808 7.03165 18.0001 5.65094 18.0001H2.5C1.11929 18.0001 0 16.8808 0 15.5001Z" fill="#0041C4"/>
<path d="M9.84906 15.5001V12.3491C9.84906 10.9684 10.9683 9.84912 12.3491 9.84912H15.5C16.8807 9.84912 18 10.9684 18 12.3491V15.5001C18 16.8808 16.8807 18.0001 15.5 18.0001H12.3491C10.9683 18.0001 9.84906 16.8808 9.84906 15.5001Z" fill="#0041C4"/>
<path d="M9.84906 5.65094V2.5C9.84906 1.11929 10.9683 0 12.3491 0H15.5C16.8807 0 18 1.11929 18 2.5V5.65094C18 7.03166 16.8807 8.15094 15.5 8.15094H12.3491C10.9683 8.15094 9.84906 7.03165 9.84906 5.65094Z" fill="#0041C4"/>
</svg>
