<svg width="20" height="22" viewBox="0 0 20 22" fill="none" xmlns="http://www.w3.org/2000/svg">
<path fill-rule="evenodd" clip-rule="evenodd" d="M17.7381 3.49188H11.4069V2L1 3.60625V17.6856L11.4069 19.4781V17.2669H17.7381C17.93 17.2769 18.1179 17.2104 18.2608 17.082C18.4036 16.9536 18.4897 16.7737 18.5 16.5819V4.17625C18.4895 3.98455 18.4034 3.80483 18.2606 3.67653C18.1177 3.54823 17.9299 3.48182 17.7381 3.49188ZM17.8381 16.6956H11.3856L11.375 15.515H12.9294V14.14H11.3631L11.3556 13.3275H12.9294V11.9525H11.3438L11.3363 11.14H12.9294V9.765H11.3313V8.9525H12.9294V7.5775H11.3313V6.765H12.9294V5.39H11.3313V4.14H17.8381V16.6956Z" fill="#20744A"/>
<path d="M14.0544 4.99219H16.7563V6.46881H14.0544V4.99219ZM14.0544 7.34203H16.7563V8.81865H14.0544V7.34203ZM14.0544 9.69187H16.7563V11.1685H14.0544V9.69187ZM14.0544 12.0417H16.7563V13.5183H14.0544V12.0417ZM14.0544 14.3916H16.7563V15.8682H14.0544V14.3916Z" fill="#20744A"/>
<path fill-rule="evenodd" clip-rule="evenodd" d="M3.96687 7.16234L5.30812 7.07978L6.15124 9.56923L7.14749 6.97709L8.48874 6.89453L6.85999 10.429L8.48874 13.9722L7.07062 13.8696L6.11312 11.1687L5.15499 13.7669L3.85187 13.6434L5.36562 10.5136L3.96687 7.16234Z" fill="white"/>
</svg>
