<svg width="7" height="7" viewBox="0 0 7 7" fill="none" xmlns="http://www.w3.org/2000/svg">
<path d="M6.80492 0.194809C6.63762 0.0275114 6.36931 0.0275114 6.20202 0.194809L3.5 2.89683L0.797987 0.194809C0.630689 0.0275114 0.362381 0.0275114 0.195084 0.194809C0.0277862 0.362107 0.0277862 0.630416 0.195084 0.797714L2.8971 3.49973L0.195084 6.20176C0.0277862 6.36905 0.0277862 6.63736 0.195084 6.80466C0.277154 6.88673 0.387634 6.93092 0.494957 6.93092C0.60228 6.93092 0.712759 6.88989 0.79483 6.80466L3.49684 4.10264L6.19886 6.80466C6.28093 6.88673 6.39141 6.93092 6.49873 6.93092C6.60921 6.93092 6.71654 6.88989 6.79861 6.80466C6.9659 6.63736 6.9659 6.36905 6.79861 6.20176L4.1029 3.49973L6.80492 0.797714C6.97222 0.630416 6.97222 0.362107 6.80492 0.194809Z" fill="#0160AE"/>
</svg>
